<?xml version="1.0" standalone="no"?>
<!DOCTYPE svg PUBLIC "-//W3C//DTD SVG 20010904//EN"
 "http://www.w3.org/TR/2001/REC-SVG-20010904/DTD/svg10.dtd">
<svg version="1.0" xmlns="http://www.w3.org/2000/svg"
 width="300.000000pt" height="173.000000pt" viewBox="0 0 300.000000 173.000000"
 preserveAspectRatio="xMidYMid meet">
<metadata>
Created by potrace 1.10, written by Peter Selinger 2001-2011
</metadata>
<g transform="translate(0.000000,173.000000) scale(0.100000,-0.100000)"
fill="#000000" stroke="none">
<path d="M60 1705 c0 -20 5 -25 25 -25 20 0 25 5 25 25 0 14 -4 25 -9 25 -5 0
-8 -6 -7 -12 0 -7 -3 -13 -9 -13 -5 0 -9 6 -9 13 1 6 -2 12 -7 12 -5 0 -9 -11
-9 -25z"/>
<path d="M170 1705 c0 -20 5 -25 25 -25 20 0 25 5 25 25 0 14 -4 25 -9 25 -5
0 -7 -10 -4 -21 4 -16 2 -20 -8 -17 -8 3 -13 13 -13 22 1 9 -2 16 -7 16 -5 0
-9 -11 -9 -25z"/>
<path d="M291 1708 c-1 -23 3 -28 24 -28 20 0 25 5 25 25 0 14 -4 25 -10 25
-5 0 -7 -6 -4 -14 3 -8 1 -17 -5 -21 -6 -3 -15 4 -20 17 -10 23 -10 22 -10 -4z"/>
<path d="M400 1705 c0 -20 5 -25 25 -25 20 0 25 5 25 25 0 14 -4 25 -9 25 -5
0 -8 -6 -7 -12 0 -7 -3 -13 -9 -13 -5 0 -9 6 -9 13 1 6 -2 12 -7 12 -5 0 -9
-11 -9 -25z"/>
<path d="M510 1705 c0 -20 5 -25 25 -25 20 0 25 5 25 25 0 14 -4 25 -9 25 -5
0 -8 -6 -7 -12 0 -7 -3 -13 -9 -13 -5 0 -9 6 -9 13 1 6 -2 12 -7 12 -5 0 -9
-11 -9 -25z"/>
<path d="M634 1700 c1 -23 6 -25 49 -28 42 -3 47 -5 47 -28 0 -32 -37 -34 -43
-1 -4 22 -4 22 -6 0 -1 -14 -9 -23 -23 -25 -17 -2 -24 -11 -26 -30 -3 -24 0
-28 22 -28 16 0 26 -6 28 -18 3 -17 4 -17 21 0 16 17 16 18 -3 18 -14 0 -20 7
-21 23 -1 17 -2 18 -6 4 -6 -22 -27 -17 -31 6 -3 14 5 17 42 17 l46 0 0 -50 0
-50 -34 0 c-49 0 -66 -9 -66 -35 0 -26 17 -35 66 -35 27 0 34 -4 34 -20 0 -25
-37 -27 -43 -2 -4 13 -5 11 -6 -5 -1 -18 -7 -23 -27 -23 -22 0 -25 -4 -22 -27
3 -26 7 -28 51 -31 42 -3 47 -5 47 -28 0 -32 -37 -34 -43 -1 -4 22 -4 22 -6 0
-1 -14 -9 -23 -23 -25 -17 -2 -24 -11 -26 -30 -3 -24 0 -28 22 -28 20 0 26 -5
26 -22 0 -21 0 -21 14 -2 13 16 13 19 0 22 -8 2 -15 13 -15 25 -1 17 -2 18 -6
5 -6 -25 -33 -23 -33 2 0 17 7 20 45 20 l45 0 0 -49 0 -50 -47 -3 c-42 -3 -48
-6 -51 -27 -5 -29 12 -41 61 -41 30 0 37 -4 37 -20 0 -25 -37 -27 -43 -2 -4
14 -5 15 -6 1 0 -9 -13 -20 -27 -23 -20 -5 -25 -12 -22 -34 3 -25 7 -27 51
-30 42 -3 47 -5 47 -28 0 -32 -37 -34 -43 -1 l-4 22 -2 -22 c-1 -17 -7 -23
-26 -23 -21 0 -25 -5 -25 -30 0 -25 4 -30 25 -30 19 0 25 -5 26 -22 0 -15 2
-18 6 -8 3 8 12 21 21 28 14 10 13 12 -6 12 -15 0 -22 6 -22 20 0 15 7 20 25
20 23 0 25 -3 25 -49 l0 -50 -47 -3 c-44 -3 -48 -5 -51 -30 -3 -22 2 -29 22
-34 34 -8 34 -40 0 -48 -20 -5 -25 -12 -22 -34 3 -25 7 -27 51 -30 l47 -3 0
-50 c0 -46 -2 -49 -25 -49 -20 0 -25 5 -25 25 0 18 4 23 15 19 8 -4 15 -1 15
5 0 6 -4 11 -9 11 -5 0 -12 8 -14 18 -4 13 -5 11 -6 -5 -1 -18 -7 -23 -27 -23
-22 0 -25 -4 -22 -27 2 -20 9 -29 25 -31 13 -2 23 -12 26 -25 l4 -22 2 23 c2
33 41 31 41 -2 0 -23 -5 -25 -47 -28 -44 -3 -48 -5 -51 -30 -3 -27 4 -33 36
-29 7 1 12 -9 12 -22 0 -18 -7 -27 -25 -31 -18 -5 -25 -13 -25 -30 0 -27 16
-36 66 -36 l34 0 0 -50 c0 -47 -2 -50 -25 -50 -20 0 -25 5 -25 25 0 18 5 25
20 25 19 0 19 1 3 18 -17 17 -18 17 -21 0 -2 -12 -12 -18 -28 -18 -22 0 -25
-4 -22 -27 2 -20 9 -29 25 -31 13 -2 23 -12 26 -25 l4 -22 2 23 c2 33 41 31
41 -2 0 -23 -5 -25 -47 -28 -44 -3 -48 -5 -51 -30 -3 -24 0 -28 22 -28 20 0
26 -5 26 -22 1 -21 2 -21 11 -5 14 23 39 22 39 -3 0 -16 -7 -20 -34 -20 -46 0
-66 -9 -66 -29 1 -14 2 -14 11 2 9 15 26 17 134 17 114 0 124 -1 119 -17 -5
-17 -5 -17 6 -1 10 16 30 18 153 19 78 1 131 4 117 6 -14 3 -28 10 -32 17 -6
8 -8 8 -8 -1 0 -7 -11 -13 -24 -13 -19 0 -26 6 -29 28 l-4 27 -2 -27 c-1 -27
-3 -28 -51 -28 l-50 0 0 49 c0 48 1 49 34 53 27 3 41 -3 71 -29 64 -55 133
-76 271 -81 138 -5 255 14 341 55 67 31 128 100 150 169 l17 54 93 0 c66 0
103 5 124 16 54 27 58 53 61 365 3 275 2 286 -19 332 -25 54 -21 77 13 77 22
0 24 -4 24 -50 0 -33 -4 -50 -12 -50 -10 0 -10 -2 -1 -8 6 -4 13 -30 16 -57
l3 -50 2 53 2 52 50 0 c47 0 50 -2 50 -25 0 -34 -46 -36 -53 -2 -4 22 -4 22
-6 0 0 -12 -9 -24 -18 -26 -10 -3 3 -5 30 -6 40 -1 47 -4 47 -21 0 -25 -37
-27 -43 -2 -4 16 -5 16 -6 0 -1 -11 -10 -18 -23 -19 -19 -1 -19 -2 -5 -6 11
-3 16 -11 13 -19 -3 -7 -1 -16 4 -19 6 -4 10 3 10 14 0 16 6 21 25 21 20 0 25
-5 25 -24 0 -23 -4 -25 -52 -29 l-53 -3 53 -2 52 -2 0 -50 c0 -47 -2 -50 -25
-50 -18 0 -25 5 -25 20 0 14 7 20 21 20 11 0 17 5 14 10 -4 6 -10 8 -15 5 -5
-3 -11 5 -13 17 l-4 23 -2 -22 c-1 -29 -47 -33 -54 -5 -5 17 -10 -261 -7 -352
1 -31 -3 -52 -12 -57 -10 -7 -10 -9 0 -9 6 0 12 -11 12 -25 0 -22 -4 -25 -32
-25 l-33 0 3 -55 4 -55 -51 0 c-44 0 -51 3 -51 20 0 25 25 26 39 3 9 -16 10
-16 11 5 0 16 6 22 22 22 21 0 21 0 2 14 -16 13 -19 13 -22 0 -6 -24 -50 -17
-55 9 -2 12 -5 1 -6 -25 -1 -44 -3 -48 -26 -48 -23 0 -25 4 -26 48 -1 26 -4
36 -6 23 -4 -19 -10 -22 -32 -19 -25 4 -27 1 -23 -24 4 -24 1 -28 -19 -29 -16
-1 -18 -3 -7 -6 9 -2 19 -14 21 -26 l4 -22 2 23 c1 16 7 22 26 22 20 0 25 -5
25 -25 0 -23 -3 -25 -50 -25 -41 0 -50 3 -51 18 0 13 -2 14 -6 2 -3 -8 -11
-18 -17 -22 -8 -5 -7 -8 2 -8 8 0 12 -17 12 -50 0 -46 -2 -50 -24 -50 -21 0
-25 5 -29 38 l-4 37 -1 -37 -2 -38 -81 1 c-44 1 -83 -2 -86 -5 -4 -3 84 -6
195 -6 180 0 202 -2 212 -18 11 -16 11 -16 6 1 -5 16 6 17 129 17 123 0 134
-1 129 -17 -5 -17 -5 -17 6 -1 14 23 77 24 102 1 16 -14 18 -14 18 -1 0 9 -11
19 -25 22 -21 5 -25 12 -26 49 -1 23 -3 34 -6 25 -3 -11 -14 -18 -29 -18 -33
0 -35 47 -1 52 17 2 23 11 25 36 3 28 7 32 33 32 24 0 29 4 29 25 0 19 5 25
23 26 12 0 16 3 10 6 -7 2 -13 11 -13 20 0 31 25 5 36 -37 6 -24 16 -46 23
-48 16 -5 41 17 35 32 -3 7 0 25 6 41 8 22 13 26 23 16 9 -9 9 -14 -3 -21 -12
-8 -10 -10 8 -10 18 0 22 -6 22 -30 0 -25 -4 -29 -22 -27 -17 1 -24 -4 -26
-22 -2 -13 0 -27 5 -32 16 -16 42 1 45 29 2 21 9 28 31 30 24 3 27 7 27 43 0
35 3 39 25 39 23 0 25 -4 25 -40 0 -32 -4 -40 -18 -40 -23 0 -42 -19 -42 -41
0 -11 -9 -19 -22 -21 -17 -2 -24 -11 -26 -30 -5 -41 -46 -39 -61 2 -13 39 -39
39 -54 0 -14 -36 -57 -44 -57 -10 0 19 -1 19 -20 2 l-21 -17 21 -3 c14 -2 20
-11 20 -28 0 -19 5 -24 24 -24 25 0 29 6 41 67 4 19 13 33 21 33 8 0 13 -3 12
-7 0 -5 1 -15 5 -23 3 -8 8 -27 11 -43 5 -20 12 -27 31 -27 20 0 25 5 25 25 0
19 5 25 21 25 19 0 19 1 5 16 -23 22 -20 34 9 34 20 0 25 5 25 25 0 29 28 45
41 24 11 -17 5 -35 -10 -31 -6 1 -11 -2 -11 -8 0 -5 7 -10 15 -10 15 0 17 5
19 45 1 14 8 20 26 20 20 0 26 6 28 28 3 20 9 27 25 27 20 0 20 0 1 15 -19 14
-18 14 4 15 19 0 22 -5 22 -39 0 -33 -4 -40 -25 -45 -18 -5 -25 -13 -25 -31 0
-18 -5 -25 -19 -25 -11 0 -22 -4 -25 -9 -4 -5 3 -7 14 -4 14 4 20 0 20 -11 0
-9 -7 -16 -15 -16 -8 0 -15 -4 -15 -10 0 -5 9 -10 20 -10 15 0 20 -7 20 -25 0
-20 5 -25 24 -25 32 0 36 15 36 121 0 88 0 89 25 89 32 0 34 -27 3 -33 -20 -5
-20 -5 2 -4 21 2 26 8 30 40 3 21 8 38 13 37 4 0 13 0 20 0 7 0 4 -7 -7 -15
-19 -15 -19 -15 2 -15 17 0 22 -6 22 -24 0 -22 16 -36 41 -36 5 0 9 14 9 30 0
25 -4 30 -25 30 -20 0 -25 5 -25 25 0 20 -5 25 -25 25 -18 0 -26 -7 -31 -25
-9 -35 -49 -35 -58 0 -5 18 -13 25 -31 25 -20 0 -25 -5 -25 -25 0 -20 -5 -25
-24 -25 -17 0 -26 7 -30 25 -5 18 -13 25 -31 25 -18 0 -26 -7 -31 -25 -4 -18
-13 -25 -30 -25 -19 0 -24 5 -24 25 0 36 -47 36 -56 0 -9 -35 -49 -35 -58 0
-5 18 -13 25 -31 25 -20 0 -25 -5 -25 -25 0 -20 -5 -25 -25 -25 -36 0 -36 47
-1 56 17 4 26 14 28 32 2 21 8 27 26 26 18 0 22 5 22 28 0 23 -4 28 -25 28
-20 0 -25 5 -25 25 0 18 -7 26 -25 31 -31 8 -35 49 -6 57 25 6 31 0 31 -30 0
-18 5 -23 25 -23 20 0 25 5 25 25 0 20 -5 25 -25 25 -21 0 -25 5 -25 30 0 25
4 30 25 30 20 0 25 5 25 25 0 20 -5 25 -25 25 -20 0 -25 -5 -25 -25 0 -20 -5
-25 -25 -25 -36 0 -36 45 0 54 18 5 25 13 25 31 0 20 5 25 25 25 21 0 25 5 25
30 0 25 -4 30 -25 30 -20 0 -25 5 -25 25 0 18 -7 26 -25 31 -31 8 -35 49 -6
57 25 6 31 0 31 -30 0 -18 5 -23 25 -23 20 0 25 5 25 25 0 20 -5 25 -25 25
-21 0 -25 5 -25 30 0 25 4 30 25 30 20 0 25 5 25 25 0 20 -5 25 -25 25 -20 0
-25 -5 -25 -23 0 -30 -6 -36 -31 -30 -29 8 -25 49 6 57 18 5 25 13 25 31 0 20
5 25 25 25 21 0 25 5 25 30 0 25 -4 30 -25 30 -20 0 -25 5 -25 25 0 31 -17 33
-22 3 -4 -31 -28 -35 -28 -5 0 14 6 28 13 30 9 4 9 6 0 6 -7 1 -13 12 -13 26
0 20 5 25 25 25 20 0 25 -5 25 -25 0 -20 5 -25 25 -25 20 0 25 5 25 25 0 20
-5 25 -25 25 -21 0 -25 5 -25 30 0 25 4 30 25 30 20 0 25 5 25 25 0 20 -5 25
-25 25 -20 0 -25 -5 -25 -23 0 -30 -6 -36 -31 -30 -29 8 -25 49 6 57 18 5 25
13 25 31 0 20 5 25 25 25 21 0 25 5 25 29 0 25 -3 28 -25 23 -18 -3 -25 -11
-25 -28 0 -18 -6 -24 -22 -25 -13 0 -17 -3 -10 -6 17 -7 15 -43 -3 -43 -11 0
-15 12 -15 50 0 45 3 50 25 56 18 4 25 13 25 29 0 16 -7 25 -25 29 -18 5 -25
13 -25 31 0 20 5 25 25 25 20 0 25 -5 25 -25 0 -20 5 -25 25 -25 20 0 25 5 25
25 0 20 -5 25 -25 25 -20 0 -25 5 -25 25 0 18 -7 26 -25 31 -35 9 -35 49 0 58
18 5 25 13 25 31 0 14 -5 25 -11 25 -5 0 -8 -4 -5 -9 9 -14 -4 -41 -19 -41 -8
0 -16 12 -18 28 l-4 27 -2 -27 c-1 -23 -6 -28 -25 -28 -19 0 -26 6 -29 28 l-4
27 -2 -27 c-1 -27 -4 -28 -50 -28 -46 0 -50 2 -54 28 l-4 27 -2 -27 c-1 -23
-6 -28 -25 -28 -19 0 -26 6 -29 28 l-4 27 -2 -27 c-1 -27 -4 -28 -50 -28 -46
0 -50 2 -54 28 l-4 27 -2 -27 c-1 -23 -6 -28 -25 -28 -19 0 -26 6 -29 28 l-4
27 -2 -27 c-1 -27 -4 -28 -50 -28 -46 0 -50 2 -54 28 l-4 27 -2 -27 c-1 -23
-6 -28 -25 -28 -19 0 -26 6 -29 28 l-4 27 -2 -27 c-1 -24 -5 -27 -43 -31 l-43
-4 43 -1 c38 -2 42 -5 42 -27 0 -21 -5 -25 -32 -25 -17 0 -29 -3 -26 -6 4 -3
31 -5 61 -5 49 0 56 -3 60 -22 4 -22 4 -22 6 1 1 20 6 22 51 22 46 0 50 -2 50
-24 0 -21 -5 -23 -41 -23 -22 0 -45 -5 -51 -11 -8 -8 -18 -5 -34 13 -29 31
-60 32 -92 3 l-24 -23 7 27 c9 35 -25 111 -60 134 -64 42 -167 12 -195 -56
-12 -28 -14 -29 -30 -15 -26 23 -74 19 -109 -11 -23 -19 -31 -22 -31 -10 0 25
-39 46 -66 36 -19 -8 -29 -4 -50 15 -77 72 -194 0 -194 -120 0 -28 -4 -35 -20
-35 -17 0 -20 7 -20 49 0 43 3 50 23 54 l22 4 -22 2 c-17 1 -23 7 -23 26 0 20
5 25 25 25 14 0 25 -5 25 -10 0 -6 6 -5 14 2 8 7 10 15 6 18 -4 3 -10 16 -13
30 -4 25 -4 25 -6 -2 -1 -23 -6 -28 -25 -28 -19 0 -26 6 -29 28 l-4 27 -2 -27
c-1 -27 -4 -28 -50 -28 -46 0 -50 2 -54 28 l-4 27 -2 -27 c-1 -23 -6 -28 -25
-28 -19 0 -26 6 -29 28 l-4 27 -2 -27 c-1 -26 -4 -28 -45 -28 -38 0 -45 3 -49
23 -3 19 -4 19 -3 -3z m987 -28 c27 -24 33 -37 37 -86 4 -52 3 -58 -14 -56
-37 4 -39 0 -6 -20 17 -11 32 -24 32 -30 0 -5 5 -10 11 -10 7 0 9 10 5 25 -5
19 0 32 18 50 14 14 30 25 36 25 23 0 50 -21 50 -40 0 -24 13 -26 30 -5 21 25
83 19 110 -10 45 -48 26 -116 -41 -151 -25 -12 -27 -12 -33 8 -7 29 -12 22
-20 -32 -6 -36 -4 -42 5 -33 19 19 49 -13 49 -50 0 -42 -35 -77 -76 -77 -18 0
-36 5 -39 10 -4 7 2 9 18 5 14 -4 28 -2 31 3 3 5 -8 12 -24 14 -16 3 -31 0
-34 -6 -2 -8 -8 -7 -17 1 -10 11 -15 7 -26 -17 -15 -37 -36 -46 -69 -31 -34
15 -52 56 -35 83 16 26 13 28 -29 19 -22 -4 -30 -10 -22 -14 36 -23 -16 -117
-66 -117 -33 0 -62 27 -62 57 0 31 -9 29 -43 -7 -40 -42 -79 -40 -123 4 -19
19 -34 43 -34 54 0 12 -4 24 -10 27 -6 3 -10 -5 -10 -19 0 -14 -11 -37 -24
-53 -21 -24 -27 -26 -52 -18 -31 11 -44 35 -20 35 9 0 16 5 16 11 0 6 -7 8
-16 5 -9 -3 -25 -6 -37 -6 -14 0 -18 -3 -10 -8 9 -6 7 -15 -7 -37 -28 -42 -26
-117 6 -212 14 -43 28 -108 31 -144 5 -59 3 -69 -16 -88 -35 -35 -99 -22 -138
29 -22 28 -25 97 -9 200 24 153 25 149 -43 344 -12 33 -21 69 -21 82 0 32 39
73 78 80 29 6 32 4 32 -19 0 -13 7 -30 15 -37 18 -15 19 -9 4 24 -10 20 -9 30
5 51 20 30 11 50 -9 22 -13 -18 -14 -18 -25 4 -20 37 -6 100 30 132 43 38 90
37 124 -4 14 -17 26 -35 26 -40 0 -5 5 -9 10 -9 6 0 10 9 10 19 0 10 7 22 16
25 25 9 54 -22 54 -57 l0 -31 36 42 c40 47 67 53 107 22 32 -26 32 -26 47 10
33 80 122 105 181 52z m-831 -27 c0 -20 -5 -25 -25 -25 -20 0 -25 5 -25 25 0
20 5 25 25 25 20 0 25 -5 25 -25z m110 0 c0 -20 -5 -25 -25 -25 -19 0 -25 6
-26 23 l-2 22 -4 -22 c-6 -33 -43 -31 -43 2 0 23 3 25 50 25 47 0 50 -2 50
-25z m910 0 c0 -20 -5 -25 -25 -25 -20 0 -25 5 -25 25 0 20 5 25 25 25 20 0
25 -5 25 -25z m110 0 c0 -20 -5 -25 -25 -25 -19 0 -25 6 -26 23 l-2 22 -4 -22
c-6 -33 -43 -31 -43 2 0 23 3 25 50 25 47 0 50 -2 50 -25z m60 0 c0 -20 -5
-25 -25 -25 -20 0 -25 5 -25 25 0 20 5 25 25 25 20 0 25 -5 25 -25z m110 0 c0
-34 -39 -36 -41 -2 l-2 22 -4 -22 c-7 -34 -53 -32 -53 2 0 23 3 25 50 25 47 0
50 -2 50 -25z m60 0 c0 -20 -5 -25 -25 -25 -20 0 -25 5 -25 25 0 20 5 25 25
25 20 0 25 -5 25 -25z m110 0 c0 -20 -5 -25 -25 -25 -19 0 -25 6 -26 23 l-2
22 -4 -22 c-6 -33 -43 -31 -43 2 0 23 3 25 50 25 47 0 50 -2 50 -25z m60 0 c0
-20 -5 -25 -25 -25 -20 0 -25 5 -25 25 0 20 5 25 25 25 20 0 25 -5 25 -25z
m-1530 -55 c0 -15 -7 -20 -25 -20 -18 0 -25 5 -25 20 0 15 7 20 25 20 18 0 25
-5 25 -20z m110 0 c0 -25 -37 -27 -43 -2 -4 13 -5 11 -6 -5 -1 -16 -7 -23 -21
-23 -19 0 -19 -1 -2 -18 16 -17 17 -17 20 0 2 12 12 18 28 18 19 0 24 -5 24
-25 0 -23 -3 -25 -50 -25 l-50 0 0 50 0 50 50 0 c43 0 50 -3 50 -20z m1080
-35 l0 -55 55 0 c52 0 55 -1 55 -25 0 -20 -5 -25 -25 -25 -19 0 -25 6 -26 23
l-2 22 -4 -22 c-2 -13 -13 -24 -26 -26 -12 -2 2 -5 31 -6 45 -1 52 -4 52 -21
0 -25 -37 -27 -43 -2 -4 13 -5 11 -6 -5 -1 -16 -8 -23 -23 -24 -16 -1 -18 -3
-6 -6 9 -2 19 -12 21 -21 3 -12 5 -10 6 6 1 17 7 22 26 22 20 0 25 -5 25 -25
0 -23 -3 -25 -50 -25 l-50 0 -2 43 -1 42 -4 -42 c-4 -41 -6 -43 -37 -43 -31 0
-33 -2 -27 -27 5 -26 6 -26 9 -5 5 34 52 31 52 -3 0 -20 -5 -25 -27 -26 l-28
-2 28 -4 c25 -4 27 -8 27 -54 0 -46 -2 -49 -25 -49 -22 0 -25 5 -27 38 l-1 37
-4 -37 c-3 -27 -9 -38 -21 -39 -15 -1 -15 -2 1 -6 9 -2 18 -12 18 -21 1 -15 2
-15 6 1 3 10 14 17 29 17 16 0 24 -6 25 -17 1 -17 2 -17 6 0 3 13 15 17 54 17
46 0 49 -2 49 -25 0 -14 -6 -25 -12 -26 -10 0 -10 -2 0 -6 6 -2 12 -9 12 -15
0 -6 -12 -2 -27 8 -23 15 -46 19 -125 19 -94 -1 -98 0 -98 21 0 13 8 24 19 27
46 12 69 103 39 149 -14 21 -13 23 15 38 45 24 72 77 63 124 -4 21 -17 48 -29
60 -31 30 -25 76 9 76 22 0 24 -3 24 -55z m110 5 l0 -50 -50 0 c-47 0 -50 2
-50 25 0 20 5 25 25 25 18 0 25 -5 25 -20 0 -19 1 -19 18 -2 17 16 17 17 0 20
-10 2 -18 13 -19 25 -1 17 -2 18 -6 5 -6 -25 -43 -23 -43 2 0 17 7 20 50 20
l50 0 0 -50z m60 30 c0 -15 -7 -20 -25 -20 -18 0 -25 5 -25 20 0 15 7 20 25
20 18 0 25 -5 25 -20z m110 0 c0 -25 -37 -27 -43 -2 -4 13 -5 11 -6 -5 -1 -16
-7 -23 -21 -23 -19 0 -19 -1 -2 -18 16 -17 17 -17 20 0 2 12 12 18 28 18 19 0
24 -5 24 -25 0 -23 -3 -25 -50 -25 l-50 0 0 50 0 50 50 0 c43 0 50 -3 50 -20z
m60 -30 c0 -47 -2 -50 -25 -50 -23 0 -25 3 -25 50 0 47 2 50 25 50 23 0 25 -3
25 -50z m43 36 c7 -16 -1 -26 -20 -26 -7 0 -13 9 -13 20 0 23 25 27 33 6z
m-1573 -61 c0 -20 -5 -25 -25 -25 -20 0 -25 5 -25 25 0 20 5 25 25 25 20 0 25
-5 25 -25z m1360 0 c0 -20 -5 -25 -25 -25 -20 0 -25 5 -25 25 0 20 5 25 25 25
20 0 25 -5 25 -25z m-1182 -40 c-11 -9 -58 -14 -58 -6 0 10 39 20 53 13 5 -2
7 -5 5 -7z m-238 -20 c0 -20 -5 -25 -25 -25 -19 0 -25 6 -26 23 l-2 22 -4 -22
c-5 -27 -18 -30 -27 -7 -10 25 2 34 45 34 35 0 39 -3 39 -25z m60 0 c0 -20 -5
-25 -25 -25 -20 0 -25 5 -25 25 0 20 5 25 25 25 20 0 25 -5 25 -25z m113 13
c2 -7 -7 -26 -19 -41 -16 -19 -24 -41 -24 -68 0 -37 -2 -39 -30 -39 -25 0 -30
4 -30 25 0 19 6 25 23 26 l22 2 -22 4 c-15 3 -23 12 -23 24 0 14 8 19 33 21
l32 1 -32 4 c-27 4 -33 9 -33 29 0 22 4 24 49 24 31 0 51 -5 54 -12z m1247
-13 c0 -20 -5 -25 -25 -25 -20 0 -25 5 -25 25 0 20 5 25 25 25 20 0 25 -5 25
-25z m110 0 c0 -34 -39 -36 -41 -2 l-2 22 -4 -22 c-7 -34 -53 -32 -53 2 0 23
3 25 50 25 47 0 50 -2 50 -25z m60 0 c0 -20 -5 -25 -25 -25 -20 0 -25 5 -25
25 0 20 5 25 25 25 20 0 25 -5 25 -25z m39 12 c8 -10 7 -17 -1 -25 -19 -19
-28 -14 -28 13 0 27 12 32 29 12z m-1569 -97 c0 -47 -2 -50 -25 -50 -23 0 -25
3 -25 50 0 47 2 50 25 50 23 0 25 -3 25 -50z m1360 0 c0 -47 -2 -50 -25 -50
-23 0 -25 3 -25 50 0 47 2 50 25 50 23 0 25 -3 25 -50z m110 0 l0 -50 -50 0
c-47 0 -50 2 -50 25 0 20 5 25 25 25 19 0 25 -5 26 -22 1 -16 3 -18 6 -6 2 9
12 19 21 21 12 3 10 5 -5 6 -16 1 -23 8 -24 24 -1 16 -2 18 -6 5 -6 -25 -43
-23 -43 2 0 17 7 20 50 20 l50 0 0 -50z m60 30 c0 -15 -7 -20 -25 -20 -18 0
-25 5 -25 20 0 15 7 20 25 20 18 0 25 -5 25 -20z m97 -6 c-3 -3 -12 -4 -19 -1
-8 3 -5 6 6 6 11 1 17 -2 13 -5z m-1687 -49 c0 -23 -4 -25 -45 -25 -38 0 -45
3 -45 20 0 25 27 27 33 3 4 -14 5 -12 6 5 1 17 7 22 26 22 20 0 25 -5 25 -25z
m1590 0 c0 -20 -5 -25 -25 -25 -20 0 -25 5 -25 25 0 20 5 25 25 25 20 0 25 -5
25 -25z m-1530 -60 c0 -20 -5 -25 -25 -25 -20 0 -25 5 -25 25 0 20 5 25 25 25
20 0 25 -5 25 -25z m116 -79 c39 -113 40 -131 18 -265 -21 -123 -14 -179 28
-226 l30 -35 -7 -102 c-6 -94 6 -311 21 -365 5 -17 2 -23 -9 -23 -13 0 -17 15
-19 83 -3 81 -3 82 -30 85 -20 2 -28 9 -28 23 0 14 7 19 28 20 l27 2 -27 4
c-22 3 -28 10 -28 29 0 19 5 24 28 25 l27 2 -27 4 c-22 3 -28 10 -28 29 0 18
6 24 23 25 l22 2 -22 4 c-20 4 -23 11 -23 53 0 46 2 49 28 52 19 2 27 9 28 23
1 15 0 16 -3 3 -3 -11 -14 -18 -29 -18 -19 0 -24 5 -24 25 0 19 6 25 23 26
l22 2 -22 4 c-19 4 -23 11 -25 46 l-1 42 -4 -42 c-4 -38 -7 -43 -29 -43 -17 0
-24 5 -24 20 0 14 7 20 22 20 19 0 20 2 6 13 -9 6 -18 19 -21 27 -4 10 -6 7
-6 -7 -1 -18 -7 -23 -26 -23 -20 0 -25 5 -25 25 0 23 4 25 53 27 l52 2 -52 3
-53 4 0 50 0 49 55 0 55 0 1 33 c1 17 1 56 0 85 0 34 4 52 12 52 8 0 8 3 -2 9
-8 5 -12 19 -9 34 3 14 1 32 -3 39 -7 10 -9 10 -9 1 0 -9 -17 -13 -50 -13
l-50 0 0 50 0 50 43 1 c23 1 34 3 25 6 -10 2 -19 14 -19 26 -2 22 -2 22 -6 0
-6 -34 -43 -31 -43 3 0 23 3 25 36 22 l36 -3 34 -99z m1184 79 c0 -34 -39 -36
-41 -2 l-2 22 -4 -22 c-7 -34 -53 -32 -53 2 0 23 3 25 50 25 47 0 50 -2 50
-25z m60 0 c0 -20 -5 -25 -25 -25 -20 0 -25 5 -25 25 0 20 5 25 25 25 20 0 25
-5 25 -25z m110 0 c0 -20 -5 -25 -25 -25 -19 0 -25 6 -26 23 l-2 22 -4 -22
c-6 -33 -43 -31 -43 2 0 23 3 25 50 25 47 0 50 -2 50 -25z m60 0 c0 -20 -5
-25 -25 -25 -20 0 -25 5 -25 25 0 20 5 25 25 25 20 0 25 -5 25 -25z m-1530
-55 c0 -15 -7 -20 -25 -20 -18 0 -25 5 -25 20 0 15 7 20 25 20 18 0 25 -5 25
-20z m1240 0 c0 -13 -7 -20 -20 -20 -13 0 -20 7 -20 20 0 13 7 20 20 20 13 0
20 -7 20 -20z m60 -30 l0 -50 -50 0 c-47 0 -50 2 -50 25 0 20 5 25 25 25 19 0
25 -5 26 -22 0 -16 2 -18 6 -8 3 8 11 18 17 22 7 5 4 8 -6 8 -12 0 -18 8 -18
25 0 20 5 25 25 25 23 0 25 -3 25 -50z m60 30 c0 -15 -7 -20 -25 -20 -18 0
-25 5 -25 20 0 15 7 20 25 20 18 0 25 -5 25 -20z m60 -4 c0 -14 -7 -26 -16
-28 -13 -3 -13 -5 0 -23 15 -20 15 -20 16 3 0 17 6 22 25 22 20 0 25 -5 25
-25 0 -23 -3 -25 -50 -25 l-50 0 0 50 c0 47 2 50 25 50 20 0 25 -5 25 -24z
m50 4 c0 -13 -7 -20 -20 -20 -13 0 -20 7 -20 20 0 13 7 20 20 20 13 0 20 -7
20 -20z m60 -30 c0 -47 -2 -50 -25 -50 -23 0 -25 3 -25 50 0 47 2 50 25 50 23
0 25 -3 25 -50z m45 30 c0 -8 -8 -16 -17 -18 -13 -2 -18 3 -18 18 0 15 5 20
18 18 9 -2 17 -10 17 -18z m-1575 -55 c0 -20 -5 -25 -25 -25 -20 0 -25 5 -25
25 0 20 5 25 25 25 20 0 25 -5 25 -25z m1360 0 c0 -20 -5 -25 -25 -25 -20 0
-25 5 -25 25 0 20 5 25 25 25 20 0 25 -5 25 -25z m-872 -47 c45 -26 76 -29
112 -10 34 17 34 17 61 -10 15 -16 37 -28 48 -28 25 0 91 56 91 77 0 10 10 4
29 -16 20 -21 38 -31 59 -31 33 0 62 22 62 47 0 15 2 15 18 1 9 -9 27 -19 38
-22 21 -7 22 -10 29 -404 8 -443 5 -481 -50 -561 -107 -156 -538 -193 -690
-60 -69 61 -95 171 -95 412 l0 157 25 -6 c66 -16 115 34 115 120 0 27 -13 91
-30 143 -32 99 -37 156 -18 198 13 29 21 31 38 10 19 -23 64 -18 91 11 22 24
24 24 32 6 5 -10 21 -26 35 -34z m-548 -13 c0 -20 -5 -25 -25 -25 -19 0 -25 6
-26 23 l-2 22 -4 -23 c-5 -28 -27 -24 -31 6 -3 20 1 22 42 22 42 0 46 -2 46
-25z m60 0 c0 -20 -5 -25 -25 -25 -20 0 -25 5 -25 25 0 20 5 25 25 25 20 0 25
-5 25 -25z m110 0 c0 -34 -39 -36 -41 -2 l-2 22 -4 -22 c-7 -34 -53 -32 -53 2
0 23 3 25 50 25 47 0 50 -2 50 -25z m1250 0 c0 -20 -5 -25 -25 -25 -20 0 -25
5 -25 25 0 20 5 25 25 25 20 0 25 -5 25 -25z m110 0 c0 -34 -39 -36 -41 -2
l-2 22 -4 -22 c-7 -34 -53 -32 -53 2 0 23 3 25 50 25 47 0 50 -2 50 -25z m60
0 c0 -20 -5 -25 -25 -25 -20 0 -25 5 -25 25 0 20 5 25 25 25 20 0 25 -5 25
-25z m60 -56 c0 -27 -3 -31 -21 -26 -17 4 -19 3 -10 -6 16 -16 14 -47 -4 -47
-19 0 -22 96 -2 103 28 12 37 6 37 -24z m-1590 -29 c0 -47 -2 -50 -25 -50 -23
0 -25 3 -25 50 0 47 2 50 25 50 23 0 25 -3 25 -50z m110 0 l0 -50 -50 0 c-47
0 -50 2 -50 25 0 20 5 25 25 25 19 0 25 -5 26 -22 0 -16 2 -18 6 -8 4 8 13 20
22 27 14 11 13 12 -6 13 -15 0 -23 6 -24 18 -1 16 -2 16 -6 0 -6 -25 -43 -23
-43 2 0 17 7 20 50 20 l50 0 0 -50z m1114 36 c41 -8 71 -40 85 -91 14 -52 15
-537 1 -587 -18 -63 -48 -78 -156 -78 l-94 0 0 50 0 50 39 0 c112 0 126 30
126 270 0 211 -8 251 -56 270 -17 7 -50 13 -75 13 l-44 0 0 56 0 56 71 -2 c39
0 85 -4 103 -7z m246 -36 l0 -50 -50 0 c-47 0 -50 2 -50 25 0 20 5 25 25 25
19 0 25 -5 26 -22 0 -16 2 -18 6 -8 4 8 13 20 22 27 14 11 13 12 -6 13 -15 0
-23 6 -24 18 -1 16 -2 16 -6 0 -6 -25 -43 -23 -43 2 0 17 7 20 50 20 l50 0 0
-50z m60 30 c0 -15 -7 -20 -25 -20 -18 0 -25 5 -25 20 0 15 7 20 25 20 18 0
25 -5 25 -20z m100 6 c0 -11 -19 -15 -25 -6 -3 5 1 10 9 10 9 0 16 -2 16 -4z
m-1690 -61 c0 -22 -4 -25 -40 -25 -22 0 -40 2 -40 4 0 2 -3 11 -6 20 -4 10 -1
16 9 16 9 0 18 -8 20 -17 4 -14 5 -12 6 5 1 17 7 22 26 22 20 0 25 -5 25 -25z
m1590 0 c0 -20 -5 -25 -25 -25 -20 0 -25 5 -25 25 0 20 5 25 25 25 20 0 25 -5
25 -25z m-1530 -60 c0 -20 -5 -25 -25 -25 -20 0 -25 5 -25 25 0 20 5 25 25 25
20 0 25 -5 25 -25z m110 0 c0 -20 -5 -25 -25 -25 -19 0 -25 6 -26 23 l-2 22
-4 -22 c-6 -33 -43 -31 -43 2 0 23 3 25 50 25 47 0 50 -2 50 -25z m1420 0 c0
-19 -6 -25 -22 -26 l-23 -2 23 -4 c19 -4 22 -11 22 -54 0 -46 -2 -49 -25 -49
-25 0 -25 1 -25 80 0 79 0 80 25 80 20 0 25 -5 25 -25z m-346 -38 c20 -26 21
-41 21 -210 0 -100 -3 -194 -8 -209 -9 -34 -39 -54 -94 -63 l-42 -7 -1 243 c0
133 -3 252 -6 263 -5 20 -2 21 52 16 48 -4 60 -10 78 -33z m-1304 -17 c0 -11
-7 -20 -15 -20 -8 0 -15 9 -15 20 0 11 7 20 15 20 8 0 15 -9 15 -20z m120 0
c0 -15 -7 -20 -25 -20 -18 0 -25 5 -25 20 0 15 7 20 25 20 18 0 25 -5 25 -20z
m1573 14 c9 -10 -4 -34 -19 -34 -8 0 -14 9 -14 20 0 19 19 27 33 14z m-1573
-69 c0 -20 -5 -25 -25 -25 -20 0 -25 5 -25 25 0 20 5 25 25 25 20 0 25 -5 25
-25z m-60 -60 c0 -20 -5 -25 -25 -25 -19 0 -25 5 -26 23 -1 16 -2 18 -6 5 -5
-21 -33 -24 -33 -5 0 21 11 27 52 27 34 0 38 -3 38 -25z m60 -25 c0 -47 -2
-50 -25 -50 -23 0 -25 3 -25 50 0 47 2 50 25 50 23 0 25 -3 25 -50z m1530 25
c0 -20 -5 -25 -25 -25 -20 0 -25 5 -25 25 0 20 5 25 25 25 20 0 25 -5 25 -25z
m40 7 c0 -10 -5 -23 -11 -29 -9 -9 -7 -10 10 -6 18 5 21 1 21 -26 0 -31 -6
-36 -34 -25 -22 9 -23 104 -1 104 8 0 15 -8 15 -18z m-1630 -62 c0 -13 -7 -20
-20 -20 -13 0 -20 7 -20 20 0 13 7 20 20 20 13 0 20 -7 20 -20z m110 0 c0 -13
-7 -20 -20 -20 -13 0 -20 7 -20 20 0 13 7 20 20 20 13 0 20 -7 20 -20z m1360
0 c0 -13 -7 -20 -20 -20 -13 0 -20 7 -20 20 0 13 7 20 20 20 13 0 20 -7 20
-20z m120 0 c0 -15 -7 -20 -25 -20 -18 0 -25 5 -25 20 0 15 7 20 25 20 18 0
25 -5 25 -20z m-1649 -52 l2 -23 4 23 c7 33 53 31 53 -3 0 -22 -4 -25 -39 -25
-42 0 -57 11 -47 35 8 23 26 18 27 -7z m119 -3 c0 -20 -5 -25 -25 -25 -20 0
-25 5 -25 25 0 20 5 25 25 25 20 0 25 -5 25 -25z m61 3 l2 -23 4 23 c6 32 43
30 43 -3 0 -23 -3 -25 -50 -25 -47 0 -50 2 -50 25 0 20 5 25 25 25 19 0 25 -6
26 -22z m1360 0 l2 -23 4 23 c6 32 43 30 43 -3 0 -23 -3 -25 -50 -25 -47 0
-50 2 -50 25 0 20 5 25 25 25 19 0 25 -6 26 -22z m109 -3 c0 -20 -5 -25 -25
-25 -20 0 -25 5 -25 25 0 20 5 25 25 25 20 0 25 -5 25 -25z m38 -3 c2 -15 -2
-22 -12 -22 -11 0 -16 9 -16 26 0 31 23 28 28 -4z m-1568 -57 c0 -20 -5 -25
-25 -25 -20 0 -25 5 -25 25 0 20 5 25 25 25 20 0 25 -5 25 -25z m110 0 c0 -20
-5 -25 -25 -25 -19 0 -25 5 -26 23 -1 16 -2 18 -6 5 -2 -10 -9 -18 -14 -18 -5
0 -9 -5 -9 -11 0 -6 7 -9 15 -5 11 4 15 -1 15 -19 0 -20 -5 -25 -25 -25 -23 0
-25 3 -25 50 l0 50 50 0 c47 0 50 -2 50 -25z m1360 0 c0 -20 -5 -25 -25 -25
-19 0 -25 5 -26 23 -1 16 -2 18 -6 5 -2 -10 -9 -18 -14 -18 -5 0 -9 -5 -9 -11
0 -6 7 -9 15 -5 10 4 15 -1 16 -17 1 -17 2 -18 6 -4 6 24 43 22 43 -3 0 -17
-7 -20 -50 -20 l-50 0 0 50 0 50 50 0 c47 0 50 -2 50 -25z m60 -25 c0 -47 -2
-50 -25 -50 -23 0 -25 3 -25 50 0 47 2 50 25 50 23 0 25 -3 25 -50z m-1650
-30 c0 -11 -7 -20 -15 -20 -8 0 -15 9 -15 20 0 11 7 20 15 20 8 0 15 -9 15
-20z m120 0 c0 -15 -7 -20 -25 -20 -18 0 -25 5 -25 20 0 15 7 20 25 20 18 0
25 -5 25 -20z m110 0 c0 -13 -7 -20 -20 -20 -13 0 -20 7 -20 20 0 13 7 20 20
20 13 0 20 -7 20 -20z m1460 0 c0 -11 -7 -20 -15 -20 -8 0 -15 9 -15 20 0 11
7 20 15 20 8 0 15 -9 15 -20z m-1570 -55 c0 -20 -5 -25 -25 -25 -20 0 -25 5
-25 25 0 20 5 25 25 25 20 0 25 -5 25 -25z m51 3 l2 -23 4 23 c7 33 53 31 53
-3 0 -23 -3 -25 -50 -25 -47 0 -50 2 -50 25 0 34 39 36 41 3z m1355 14 c-2 -4
-1 -14 5 -22 7 -12 9 -10 9 8 0 17 6 22 25 22 20 0 25 -5 25 -25 0 -23 -3 -25
-50 -25 -47 0 -50 2 -50 25 0 19 5 25 21 25 11 0 18 -4 15 -8z m124 -17 c0
-20 -5 -25 -25 -25 -20 0 -25 5 -25 25 0 20 5 25 25 25 20 0 25 -5 25 -25z
m100 11 c0 -3 -4 -8 -10 -11 -5 -3 -10 -1 -10 4 0 6 5 11 10 11 6 0 10 -2 10
-4z m-1690 -71 c0 -20 -5 -25 -25 -25 -19 0 -25 5 -25 22 0 21 0 21 -14 2 -16
-21 -32 -14 -23 11 4 10 20 15 47 15 36 0 40 -2 40 -25z m60 -25 c0 -47 -2
-50 -25 -50 -23 0 -25 3 -25 50 0 47 2 50 25 50 23 0 25 -3 25 -50z m110 0 l0
-50 -50 0 c-43 0 -50 3 -50 20 0 25 37 27 43 3 4 -14 5 -13 6 4 0 12 7 23 15
25 13 3 13 6 0 22 -14 19 -14 19 -14 -2 0 -17 -6 -22 -25 -22 -20 0 -25 5 -25
25 0 23 3 25 50 25 l50 0 0 -50z m1360 0 l0 -50 -50 0 c-43 0 -50 3 -50 20 0
25 37 27 43 3 4 -14 5 -12 6 5 1 14 7 22 19 22 10 0 13 3 6 8 -6 4 -14 14 -17
22 -4 10 -6 8 -6 -7 -1 -18 -7 -23 -26 -23 -20 0 -25 5 -25 25 0 23 3 25 50
25 l50 0 0 -50z m60 25 c0 -20 -5 -25 -25 -25 -20 0 -25 5 -25 25 0 20 5 25
25 25 20 0 25 -5 25 -25z m44 10 c3 -8 -2 -19 -12 -24 -15 -9 -14 -10 6 -11
18 0 22 -6 22 -30 0 -31 -6 -35 -34 -24 -21 8 -23 104 -2 104 8 0 16 -7 20
-15z m-1634 -65 c0 -13 -7 -20 -20 -20 -13 0 -20 7 -20 20 0 13 7 20 20 20 13
0 20 -7 20 -20z m1590 0 c0 -15 -7 -20 -25 -20 -18 0 -25 5 -25 20 0 15 7 20
25 20 18 0 25 -5 25 -20z m-1649 -52 l2 -23 4 23 c7 33 53 31 53 -3 0 -22 -4
-25 -39 -25 -42 0 -57 11 -47 35 8 23 26 18 27 -7z m119 -3 c0 -20 -5 -25 -25
-25 -20 0 -25 5 -25 25 0 20 5 25 25 25 20 0 25 -5 25 -25z m61 3 l2 -23 4 23
c6 32 43 30 43 -3 0 -23 -3 -25 -50 -25 -47 0 -50 2 -50 25 0 20 5 25 25 25
19 0 25 -6 26 -22z m109 -3 c0 -20 -5 -25 -25 -25 -20 0 -25 5 -25 25 0 20 5
25 25 25 20 0 25 -5 25 -25z m1251 3 l2 -23 4 23 c6 32 43 30 43 -3 0 -23 -3
-25 -50 -25 -47 0 -50 2 -50 25 0 20 5 25 25 25 19 0 25 -6 26 -22z m109 -3
c0 -20 -5 -25 -25 -25 -20 0 -25 5 -25 25 0 20 5 25 25 25 20 0 25 -5 25 -25z
m35 0 c0 -10 -6 -20 -12 -22 -8 -3 -13 5 -13 22 0 17 5 25 13 23 6 -3 12 -13
12 -23z m-1565 -60 c0 -20 -5 -25 -25 -25 -20 0 -25 5 -25 25 0 20 5 25 25 25
20 0 25 -5 25 -25z m110 0 c0 -20 -5 -25 -25 -25 -18 0 -25 5 -25 20 0 19 -1
19 -18 3 -17 -17 -17 -18 0 -21 10 -2 18 -13 19 -25 1 -17 2 -18 6 -4 6 24 43
22 43 -3 0 -17 -7 -20 -50 -20 l-50 0 0 50 0 50 50 0 c47 0 50 -2 50 -25z m60
-25 c0 -47 -2 -50 -25 -50 -23 0 -25 3 -25 50 0 47 2 50 25 50 23 0 25 -3 25
-50z m1190 25 c0 -20 -5 -25 -25 -25 -20 0 -25 5 -25 25 0 20 5 25 25 25 20 0
25 -5 25 -25z m110 0 c0 -20 -5 -25 -25 -25 -18 0 -25 5 -25 20 0 19 -1 19
-18 3 -17 -17 -17 -18 0 -21 12 -2 18 -12 18 -28 0 -19 -5 -24 -25 -24 -23 0
-25 3 -25 50 l0 50 50 0 c47 0 50 -2 50 -25z m60 -25 c0 -47 -2 -50 -25 -50
-23 0 -25 3 -25 50 0 47 2 50 25 50 23 0 25 -3 25 -50z m-1650 -36 c0 -8 -7
-14 -15 -14 -15 0 -21 21 -9 33 10 9 24 -2 24 -19z m120 6 c0 -15 -7 -20 -25
-20 -18 0 -25 5 -25 20 0 15 7 20 25 20 18 0 25 -5 25 -20z m1130 0 c0 -13 -7
-20 -20 -20 -13 0 -20 7 -20 20 0 13 7 20 20 20 13 0 20 -7 20 -20z m230 0 c0
-15 -7 -20 -25 -20 -18 0 -25 5 -25 20 0 15 7 20 25 20 18 0 25 -5 25 -20z
m110 0 c0 -13 -7 -20 -20 -20 -13 0 -20 7 -20 20 0 13 7 20 20 20 13 0 20 -7
20 -20z m104 11 c3 -5 -1 -12 -10 -15 -22 -9 -24 -8 -24 9 0 16 25 21 34 6z
m115 -4 c11 -15 5 -27 -14 -27 -6 0 -11 9 -11 20 0 23 9 26 25 7z m121 -2 c0
-8 -9 -15 -20 -15 -20 0 -26 11 -13 23 12 13 33 7 33 -8z m108 3 c-7 -19 -38
-22 -38 -4 0 10 9 16 21 16 12 0 19 -5 17 -12z m222 -9 c0 -11 -4 -17 -10 -14
-5 3 -10 13 -10 21 0 8 5 14 10 14 6 0 10 -9 10 -21z m-1900 -71 c0 -5 -13 -8
-30 -8 -25 0 -30 4 -30 24 0 32 31 39 47 11 7 -11 12 -23 13 -27z m-240 17 c0
-20 -5 -25 -25 -25 -20 0 -25 5 -25 25 0 20 5 25 25 25 20 0 25 -5 25 -25z
m110 0 c0 -23 -3 -25 -50 -25 -47 0 -50 2 -50 25 0 23 3 25 50 25 47 0 50 -2
50 -25z m60 0 c0 -20 -5 -25 -25 -25 -20 0 -25 5 -25 25 0 20 5 25 25 25 20 0
25 -5 25 -25z m1020 0 c0 -20 -5 -25 -25 -25 -20 0 -25 5 -25 25 0 20 5 25 25
25 20 0 25 -5 25 -25z m60 0 c0 -20 -5 -25 -25 -25 -20 0 -25 5 -25 25 0 20 5
25 25 25 20 0 25 -5 25 -25z m50 0 c0 -18 -5 -25 -20 -25 -15 0 -20 7 -20 25
0 18 5 25 20 25 15 0 20 -7 20 -25z m60 0 c0 -20 -5 -25 -25 -25 -20 0 -25 5
-25 25 0 20 5 25 25 25 20 0 25 -5 25 -25z m40 16 c0 -5 3 -16 6 -25 4 -12 0
-16 -15 -16 -16 0 -21 6 -21 25 0 16 6 25 15 25 8 0 15 -4 15 -9z m70 -16 c0
-20 -5 -25 -25 -25 -20 0 -25 5 -25 25 0 20 5 25 25 25 20 0 25 -5 25 -25z
m44 9 c8 -20 -1 -34 -20 -34 -8 0 -14 10 -14 25 0 28 24 34 34 9z m226 -9 c0
-14 -4 -25 -10 -25 -5 0 -10 11 -10 25 0 14 5 25 10 25 6 0 10 -11 10 -25z
m240 0 c0 -27 -6 -30 -29 -16 -17 11 -7 41 14 41 9 0 15 -9 15 -25z m-16 -31
c9 -3 16 -17 16 -30 0 -19 -5 -24 -25 -24 -21 0 -25 5 -25 30 0 31 6 35 34 24z
m-2024 -29 c0 -20 -5 -25 -25 -25 -19 0 -25 5 -26 23 0 12 -3 16 -6 10 -7 -18
-33 -16 -33 2 0 11 12 15 45 15 41 0 45 -2 45 -25z m60 -25 c0 -47 -2 -50 -25
-50 -23 0 -25 3 -25 50 0 47 2 50 25 50 23 0 25 -3 25 -50z m110 0 l0 -50 -50
0 c-43 0 -50 3 -50 20 0 25 25 26 39 3 9 -16 10 -16 11 5 0 15 6 22 20 22 19
0 19 1 3 18 -17 17 -18 17 -21 0 -2 -12 -12 -18 -28 -18 -19 0 -24 5 -24 25 0
23 3 25 50 25 l50 0 0 -50z m60 25 c0 -20 -5 -25 -25 -25 -20 0 -25 5 -25 25
0 20 5 25 25 25 20 0 25 -5 25 -25z m960 -25 l0 -50 -50 0 c-43 0 -50 3 -50
20 0 25 25 26 39 3 9 -16 10 -16 11 5 0 15 6 22 20 22 19 0 19 1 3 18 -17 17
-18 17 -21 0 -2 -12 -12 -18 -28 -18 -19 0 -24 5 -24 25 0 23 3 25 50 25 l50
0 0 -50z m60 25 c0 -20 -5 -25 -25 -25 -20 0 -25 5 -25 25 0 20 5 25 25 25 20
0 25 -5 25 -25z m50 6 c0 -11 -8 -22 -17 -24 -14 -4 -12 -5 5 -6 16 -1 22 -7
22 -23 1 -21 2 -21 11 -5 14 23 39 22 39 -3 0 -17 -7 -20 -50 -20 l-50 0 0 50
c0 43 3 50 20 50 13 0 20 -7 20 -19z m60 -6 c0 -20 -5 -25 -25 -25 -20 0 -25
5 -25 25 0 20 5 25 25 25 20 0 25 -5 25 -25z m60 -25 c0 -47 -2 -50 -25 -50
-23 0 -25 3 -25 50 0 47 2 50 25 50 23 0 25 -3 25 -50z m60 25 c0 -20 -5 -25
-25 -25 -20 0 -25 5 -25 25 0 20 5 25 25 25 20 0 25 -5 25 -25z m50 -25 l0
-50 -50 0 c-43 0 -50 3 -50 20 0 25 25 26 39 3 9 -16 10 -16 11 5 0 15 6 22
21 22 19 0 19 1 5 16 -22 21 -20 34 4 34 17 0 20 -7 20 -50z m-1300 -30 c0
-15 -7 -20 -25 -20 -18 0 -25 5 -25 20 0 15 7 20 25 20 18 0 25 -5 25 -20z
m1020 0 c0 -15 -7 -20 -25 -20 -18 0 -25 5 -25 20 0 15 7 20 25 20 18 0 25 -5
25 -20z m340 0 c0 -15 -7 -20 -25 -20 -18 0 -25 5 -25 20 0 15 7 20 25 20 18
0 25 -5 25 -20z m108 8 c-6 -18 -28 -21 -28 -4 0 9 7 16 16 16 9 0 14 -5 12
-12z m103 -3 c-1 -15 -24 -12 -29 3 -3 9 2 13 12 10 10 -1 17 -7 17 -13z m237
3 c-6 -18 -28 -21 -28 -4 0 9 7 16 16 16 9 0 14 -5 12 -12z"/>
<path d="M1494 1666 c-10 -8 -17 -17 -14 -19 3 -3 14 1 24 9 11 7 17 16 15 19
-3 3 -14 -2 -25 -9z"/>
<path d="M1528 1656 c-26 -19 -22 -27 7 -14 14 6 25 15 25 20 0 12 -12 9 -32
-6z"/>
<path d="M1100 1630 c20 -13 33 -13 25 0 -3 6 -14 10 -23 10 -15 0 -15 -2 -2
-10z"/>
<path d="M1097 1610 c12 -5 26 -17 32 -27 9 -16 10 -16 11 -1 0 18 -29 38 -52
37 -7 0 -3 -4 9 -9z"/>
<path d="M1915 1465 c0 -19 3 -35 7 -35 11 0 19 36 12 54 -10 27 -19 18 -19
-19z"/>
<path d="M1157 1445 c-4 -8 -2 -17 2 -20 5 -2 11 4 14 15 6 23 -8 27 -16 5z"/>
<path d="M912 1428 c-6 -6 -11 -23 -11 -37 1 -21 2 -22 6 -6 7 29 23 43 23 20
0 -18 0 -18 15 1 18 24 19 40 1 25 -10 -8 -15 -9 -18 -1 -2 7 -7 7 -16 -2z"/>
<path d="M1326 1421 c-5 -7 -3 -18 3 -24 14 -14 20 -6 11 17 -5 15 -9 16 -14
7z"/>
<path d="M1361 1400 c-1 -28 14 -58 25 -47 4 3 2 12 -3 19 -6 7 -13 22 -16 33
-4 16 -5 16 -6 -5z"/>
<path d="M1713 1386 c7 -13 15 -22 19 -20 10 6 -9 44 -21 44 -5 0 -4 -11 2
-24z"/>
<path d="M1335 1200 c-19 -8 -19 -9 2 -9 12 -1 25 4 28 9 7 12 -2 12 -30 0z"/>
<path d="M1470 1168 c0 -11 38 -10 44 1 3 5 -5 8 -19 7 -14 0 -25 -4 -25 -8z"/>
<path d="M985 790 c19 -21 65 -28 65 -9 0 6 -6 9 -14 6 -7 -3 -26 1 -42 9 -28
15 -28 15 -9 -6z"/>
<path d="M950 793 c0 -12 38 -48 44 -42 3 2 -6 15 -20 28 -13 13 -24 19 -24
14z"/>
<path d="M2288 1553 c7 -3 16 -2 19 1 4 3 -2 6 -13 5 -11 0 -14 -3 -6 -6z"/>
<path d="M851 1474 c0 -11 3 -14 6 -6 3 7 2 16 -1 19 -3 4 -6 -2 -5 -13z"/>
<path d="M758 1383 c7 -3 16 -2 19 1 4 3 -2 6 -13 5 -11 0 -14 -3 -6 -6z"/>
<path d="M2118 1383 c7 -3 16 -2 19 1 4 3 -2 6 -13 5 -11 0 -14 -3 -6 -6z"/>
<path d="M851 1243 c0 -12 -8 -23 -17 -25 -13 -3 -13 -5 0 -23 15 -20 15 -20
16 3 0 16 6 22 23 23 15 1 17 3 5 6 -9 2 -19 12 -21 21 -3 12 -5 11 -6 -5z"/>
<path d="M851 908 c-1 -11 -10 -18 -23 -19 -16 -1 -18 -3 -6 -6 9 -2 19 -14
21 -26 l4 -22 2 23 c1 17 8 22 29 23 22 1 23 2 5 6 -12 2 -24 12 -26 21 -4 15
-5 15 -6 0z"/>
<path d="M1120 1129 c0 -5 11 -9 25 -9 14 0 25 2 25 4 0 2 -11 6 -25 8 -14 3
-25 1 -25 -3z"/>
<path d="M1591 1108 c-1 -9 -7 -18 -13 -21 -10 -4 -10 -7 0 -18 14 -15 42 -3
50 22 4 10 0 9 -15 -3 -24 -22 -40 -24 -23 -3 6 8 10 20 7 27 -4 9 -6 7 -6 -4z"/>
<path d="M1140 1100 l-25 -8 27 -1 c15 -1 30 4 33 9 7 11 0 11 -35 0z"/>
<path d="M1793 1065 c0 -27 2 -38 4 -22 2 15 2 37 0 50 -2 12 -4 0 -4 -28z"/>
<path d="M1211 655 c-1 -335 2 -417 12 -407 15 16 15 700 0 777 -8 38 -11 -53
-12 -370z"/>
<path d="M1767 1013 c8 -50 13 -55 13 -10 0 20 -4 38 -9 42 -6 3 -7 -10 -4
-32z"/>
<path d="M1436 1022 c-13 -21 -21 -792 -9 -792 7 0 13 77 18 212 8 264 3 598
-9 580z"/>
<path d="M1624 983 c3 -27 8 -118 11 -203 9 -245 25 -464 36 -474 12 -13 12
213 -1 369 -19 239 -33 355 -42 355 -5 0 -6 -21 -4 -47z"/>
<path d="M1050 668 c0 -11 38 -10 44 1 3 5 -5 8 -19 7 -14 0 -25 -4 -25 -8z"/>
<path d="M1557 673 c-11 -10 -8 -43 3 -43 6 0 10 11 10 25 0 26 -2 29 -13 18z"/>
<path d="M1802 575 c0 -16 2 -22 5 -12 2 9 2 23 0 30 -3 6 -5 -1 -5 -18z"/>
<path d="M1031 264 c0 -17 6 -37 14 -44 16 -13 21 0 6 15 -5 6 -11 21 -14 35
-4 22 -4 21 -6 -6z"/>
<path d="M1050 259 c0 -16 27 -46 35 -38 2 2 -5 15 -15 29 -15 19 -20 21 -20
9z"/>
<path d="M1542 140 c-6 -11 -12 -22 -12 -25 0 -10 49 -5 55 5 4 7 -3 9 -22 5
-25 -6 -26 -5 -10 8 18 15 22 27 9 27 -4 0 -13 -9 -20 -20z"/>
<path d="M758 1053 c7 -3 16 -2 19 1 4 3 -2 6 -13 5 -11 0 -14 -3 -6 -6z"/>
<path d="M2000 1020 c0 -6 4 -10 8 -10 5 0 15 -11 22 -25 7 -14 17 -25 22 -25
13 0 -23 58 -39 64 -7 3 -13 1 -13 -4z"/>
<path d="M1980 995 c13 -14 28 -25 33 -25 6 0 0 11 -13 25 -13 14 -28 25 -33
25 -6 0 0 -11 13 -25z"/>
<path d="M2042 411 c-12 -17 -19 -31 -14 -31 14 0 44 38 40 50 -2 6 -14 -3
-26 -19z"/>
<path d="M2288 883 c7 -3 16 -2 19 1 4 3 -2 6 -13 5 -11 0 -14 -3 -6 -6z"/>
<path d="M1893 933 c18 -3 27 -10 27 -23 0 -13 -9 -20 -27 -23 l-28 -4 28 -2
c22 -1 27 -6 27 -25 0 -20 -6 -25 -32 -29 l-33 -4 33 -1 c32 -2 32 -3 32 -51
0 -49 -1 -50 -32 -54 l-33 -4 33 -1 c27 -2 32 -6 32 -26 0 -20 -6 -25 -32 -29
l-33 -4 33 -1 c27 -2 32 -6 32 -26 0 -19 -6 -26 -27 -29 l-28 -4 28 -2 c20 -1
27 -6 27 -20 0 -14 -8 -21 -27 -24 l-28 -4 28 -2 c22 -1 27 -6 27 -26 0 -20
-5 -25 -27 -26 -28 -2 -28 -2 -3 -6 14 -3 28 -10 32 -17 6 -8 8 -8 8 1 0 6 8
14 18 16 16 4 16 5 0 6 -28 2 -24 49 5 54 l22 4 -22 2 c-21 1 -23 6 -23 50 0
47 2 50 28 53 l27 3 0 85 0 85 -27 3 c-27 3 -28 6 -28 58 l0 54 -32 -1 c-31
-2 -31 -2 -5 -6z m87 -138 c0 -20 -5 -25 -25 -25 -20 0 -25 5 -25 25 0 20 5
25 25 25 20 0 25 -5 25 -25z m0 -55 c0 -15 -7 -20 -25 -20 -18 0 -25 5 -25 20
0 15 7 20 25 20 18 0 25 -5 25 -20z m0 -55 c0 -20 -5 -25 -25 -25 -20 0 -25 5
-25 25 0 20 5 25 25 25 20 0 25 -5 25 -25z"/>
<path d="M1948 883 c7 -3 16 -2 19 1 4 3 -2 6 -13 5 -11 0 -14 -3 -6 -6z"/>
<path d="M1869 790 c-5 -22 -2 -26 20 -27 14 0 18 1 9 4 -9 2 -18 14 -20 26
-3 20 -4 20 -9 -3z"/>
<path d="M758 763 c7 -3 16 -2 19 1 4 3 -2 6 -13 5 -11 0 -14 -3 -6 -6z"/>
<path d="M758 433 c7 -3 16 -2 19 1 4 3 -2 6 -13 5 -11 0 -14 -3 -6 -6z"/>
<path d="M928 263 c7 -3 16 -2 19 1 4 3 -2 6 -13 5 -11 0 -14 -3 -6 -6z"/>
<path d="M2288 263 c7 -3 16 -2 19 1 4 3 -2 6 -13 5 -11 0 -14 -3 -6 -6z"/>
<path d="M841 174 c0 -11 3 -14 6 -6 3 7 2 16 -1 19 -3 4 -6 -2 -5 -13z"/>
<path d="M758 93 c7 -3 16 -2 19 1 4 3 -2 6 -13 5 -11 0 -14 -3 -6 -6z"/>
<path d="M2118 93 c7 -3 16 -2 19 1 4 3 -2 6 -13 5 -11 0 -14 -3 -6 -6z"/>
<path d="M667 1710 c3 -11 7 -20 9 -20 2 0 4 9 4 20 0 11 -4 20 -9 20 -5 0 -7
-9 -4 -20z"/>
<path d="M850 1710 c0 -11 2 -20 4 -20 2 0 6 9 9 20 3 11 1 20 -4 20 -5 0 -9
-9 -9 -20z"/>
<path d="M1011 1714 c0 -11 3 -14 6 -6 3 7 2 16 -1 19 -3 4 -6 -2 -5 -13z"/>
<path d="M1132 1710 c0 -14 2 -19 5 -12 2 6 2 18 0 25 -3 6 -5 1 -5 -13z"/>
<path d="M1190 1710 c0 -11 2 -20 4 -20 2 0 6 9 9 20 3 11 1 20 -4 20 -5 0 -9
-9 -9 -20z"/>
<path d="M1241 1708 c-1 -26 -4 -28 -43 -28 -23 0 -39 -2 -36 -5 3 -3 34 -6
69 -6 36 -1 67 -6 71 -13 6 -8 8 -8 8 2 0 16 97 17 102 0 8 -24 14 17 7 47
l-7 30 -1 -27 c-1 -27 -3 -28 -50 -28 -46 0 -50 2 -54 28 l-4 27 -2 -27 c-1
-23 -6 -28 -25 -28 -19 0 -26 6 -29 28 l-4 27 -2 -27z"/>
<path d="M1347 1710 c3 -11 7 -20 9 -20 2 0 4 9 4 20 0 11 -4 20 -9 20 -5 0
-7 -9 -4 -20z"/>
<path d="M1692 1710 c0 -14 2 -19 5 -12 2 6 2 18 0 25 -3 6 -5 1 -5 -13z"/>
<path d="M1870 1710 c0 -11 2 -20 4 -20 2 0 6 9 9 20 3 11 1 20 -4 20 -5 0 -9
-9 -9 -20z"/>
<path d="M2032 1710 c0 -14 2 -19 5 -12 2 6 2 18 0 25 -3 6 -5 1 -5 -13z"/>
<path d="M2210 1710 c0 -11 2 -20 4 -20 2 0 6 9 9 20 3 11 1 20 -4 20 -5 0 -9
-9 -9 -20z"/>
<path d="M2440 1705 c0 -20 5 -25 25 -25 20 0 25 5 25 25 0 14 -4 25 -10 25
-5 0 -9 -3 -9 -7 3 -21 -2 -33 -12 -28 -6 4 -8 13 -5 21 3 8 1 14 -4 14 -6 0
-10 -11 -10 -25z"/>
<path d="M2550 1705 c0 -20 5 -25 25 -25 20 0 25 5 25 25 0 14 -4 25 -9 25 -5
0 -7 -10 -4 -21 4 -16 2 -20 -8 -17 -8 3 -13 13 -13 22 1 9 -2 16 -7 16 -5 0
-9 -11 -9 -25z"/>
<path d="M2671 1708 c-1 -24 3 -28 24 -28 20 0 25 5 25 25 0 14 -4 25 -9 25
-5 0 -8 -7 -7 -16 2 -26 -22 -28 -27 -2 -4 20 -4 20 -6 -4z"/>
<path d="M2780 1705 c0 -20 5 -25 25 -25 20 0 25 5 25 25 0 14 -4 25 -9 25 -5
0 -8 -6 -7 -12 0 -7 -3 -13 -9 -13 -5 0 -9 6 -9 13 1 6 -2 12 -7 12 -5 0 -9
-11 -9 -25z"/>
<path d="M2890 1705 c0 -20 5 -25 25 -25 20 0 25 5 25 25 0 14 -4 25 -9 25 -5
0 -7 -10 -4 -21 4 -16 2 -20 -8 -17 -8 3 -13 13 -13 22 1 9 -2 16 -7 16 -5 0
-9 -11 -9 -25z"/>
<path d="M18 1660 c12 -5 22 -12 22 -15 0 -3 -10 -10 -22 -15 -22 -8 -22 -9 5
-9 22 -1 27 3 27 24 0 21 -5 25 -27 24 -27 0 -27 -1 -5 -9z"/>
<path d="M120 1645 c0 -20 5 -25 25 -25 20 0 25 5 25 25 0 20 -5 25 -25 25
-20 0 -25 -5 -25 -25z"/>
<path d="M230 1645 c0 -20 5 -25 25 -25 20 0 25 5 25 25 0 20 -5 25 -25 25
-20 0 -25 -5 -25 -25z"/>
<path d="M340 1645 c0 -20 5 -25 25 -25 20 0 25 5 25 25 0 20 -5 25 -25 25
-20 0 -25 -5 -25 -25z"/>
<path d="M460 1645 c0 -20 5 -25 25 -25 20 0 25 5 25 25 0 20 -5 25 -25 25
-20 0 -25 -5 -25 -25z"/>
<path d="M570 1645 c0 -20 5 -25 25 -25 20 0 25 5 25 25 0 20 -5 25 -25 25
-20 0 -25 -5 -25 -25z"/>
<path d="M2380 1645 c0 -20 5 -25 25 -25 20 0 25 5 25 25 0 20 -5 25 -25 25
-20 0 -25 -5 -25 -25z"/>
<path d="M2500 1645 c0 -20 5 -25 25 -25 20 0 25 5 25 25 0 20 -5 25 -25 25
-20 0 -25 -5 -25 -25z"/>
<path d="M2610 1645 c0 -20 5 -25 25 -25 20 0 25 5 25 25 0 20 -5 25 -25 25
-20 0 -25 -5 -25 -25z"/>
<path d="M2720 1645 c0 -20 5 -25 25 -25 20 0 25 5 25 25 0 20 -5 25 -25 25
-20 0 -25 -5 -25 -25z"/>
<path d="M2840 1645 c0 -20 5 -25 25 -25 20 0 25 5 25 25 0 20 -5 25 -25 25
-20 0 -25 -5 -25 -25z"/>
<path d="M2950 1645 c0 -20 5 -25 25 -25 29 0 34 16 8 23 -17 4 -17 5 0 6 27
2 20 21 -8 21 -20 0 -25 -5 -25 -25z"/>
<path d="M1701 1644 c0 -11 3 -14 6 -6 3 7 2 16 -1 19 -3 4 -6 -2 -5 -13z"/>
<path d="M60 1585 c0 -20 5 -25 25 -25 20 0 25 5 25 25 0 20 -5 25 -25 25 -20
0 -25 -5 -25 -25z m37 -1 c-3 -3 -12 -4 -19 -1 -8 3 -5 6 6 6 11 1 17 -2 13
-5z"/>
<path d="M170 1585 c0 -20 -5 -25 -25 -25 -20 0 -25 -5 -25 -25 0 -20 5 -25
25 -25 20 0 25 5 25 25 0 20 5 25 25 25 20 0 25 5 25 25 0 20 -5 25 -25 25
-20 0 -25 -5 -25 -25z m37 -1 c-3 -3 -12 -4 -19 -1 -8 3 -5 6 6 6 11 1 17 -2
13 -5z"/>
<path d="M290 1585 c0 -20 5 -25 25 -25 20 0 25 -5 25 -25 0 -20 5 -25 25 -25
20 0 25 5 25 25 0 20 -5 25 -25 25 -20 0 -25 5 -25 25 0 20 -5 25 -25 25 -20
0 -25 -5 -25 -25z"/>
<path d="M400 1585 c0 -20 5 -25 25 -25 20 0 25 5 25 25 0 20 -5 25 -25 25
-20 0 -25 -5 -25 -25z m37 -1 c-3 -3 -12 -4 -19 -1 -8 3 -5 6 6 6 11 1 17 -2
13 -5z"/>
<path d="M510 1585 c0 -20 -5 -25 -25 -25 -20 0 -25 -5 -25 -25 0 -20 5 -25
25 -25 20 0 25 5 25 25 0 20 5 25 25 25 20 0 25 5 25 25 0 20 -5 25 -25 25
-20 0 -25 -5 -25 -25z m37 -1 c-3 -3 -12 -4 -19 -1 -8 3 -5 6 6 6 11 1 17 -2
13 -5z"/>
<path d="M2440 1585 c0 -20 5 -25 25 -25 20 0 25 5 25 25 0 20 -5 25 -25 25
-20 0 -25 -5 -25 -25z m37 -1 c-3 -3 -12 -4 -19 -1 -8 3 -5 6 6 6 11 1 17 -2
13 -5z"/>
<path d="M2550 1585 c0 -20 -5 -25 -25 -25 -20 0 -25 -5 -25 -25 0 -20 5 -25
25 -25 20 0 25 5 25 25 0 20 5 25 25 25 20 0 25 5 25 25 0 20 -5 25 -25 25
-20 0 -25 -5 -25 -25z m37 -1 c-3 -3 -12 -4 -19 -1 -8 3 -5 6 6 6 11 1 17 -2
13 -5z"/>
<path d="M2670 1585 c0 -20 5 -25 25 -25 20 0 25 -5 25 -25 0 -20 5 -25 25
-25 20 0 25 5 25 25 0 20 -5 25 -25 25 -20 0 -25 5 -25 25 0 20 -5 25 -25 25
-20 0 -25 -5 -25 -25z"/>
<path d="M2780 1585 c0 -20 5 -25 25 -25 20 0 25 5 25 25 0 20 -5 25 -25 25
-20 0 -25 -5 -25 -25z m37 -1 c-3 -3 -12 -4 -19 -1 -8 3 -5 6 6 6 11 1 17 -2
13 -5z"/>
<path d="M2890 1585 c0 -20 -5 -25 -25 -25 -20 0 -25 -5 -25 -25 0 -20 5 -25
25 -25 20 0 25 5 25 25 0 20 5 25 25 25 20 0 25 5 25 25 0 20 -5 25 -25 25
-20 0 -25 -5 -25 -25z m37 -1 c-3 -3 -12 -4 -19 -1 -8 3 -5 6 6 6 11 1 17 -2
13 -5z"/>
<path d="M18 1550 c12 -5 22 -12 22 -15 0 -3 -10 -10 -22 -15 -22 -8 -22 -9 5
-9 22 -1 27 3 27 24 0 21 -5 25 -27 24 -27 0 -27 -1 -5 -9z"/>
<path d="M230 1535 c0 -20 5 -25 25 -25 20 0 25 5 25 25 0 20 -5 25 -25 25
-20 0 -25 -5 -25 -25z"/>
<path d="M570 1535 c0 -20 5 -25 25 -25 20 0 25 5 25 25 0 20 -5 25 -25 25
-20 0 -25 -5 -25 -25z"/>
<path d="M2610 1535 c0 -20 5 -25 25 -25 20 0 25 5 25 25 0 20 -5 25 -25 25
-20 0 -25 -5 -25 -25z"/>
<path d="M2950 1535 c0 -20 5 -25 25 -25 29 0 34 16 8 23 -17 4 -17 5 0 6 27
2 20 21 -8 21 -20 0 -25 -5 -25 -25z"/>
<path d="M60 1475 c0 -20 5 -25 25 -25 20 0 25 5 25 25 0 20 -5 25 -25 25 -20
0 -25 -5 -25 -25z m35 5 c3 -5 1 -10 -4 -10 -6 0 -11 5 -11 10 0 6 2 10 4 10
3 0 8 -4 11 -10z"/>
<path d="M168 1473 c-2 -22 -8 -28 -25 -27 -19 0 -23 -5 -23 -28 0 -23 4 -28
25 -28 20 0 25 -5 25 -25 0 -20 5 -25 25 -25 20 0 25 5 25 25 0 20 -5 25 -25
25 -21 0 -25 5 -25 30 0 25 4 30 25 30 20 0 25 5 25 25 0 20 -5 25 -24 25 -19
0 -25 -6 -28 -27z m-11 -59 c-3 -3 -12 -4 -19 -1 -8 3 -5 6 6 6 11 1 17 -2 13
-5z m40 -56 c-3 -8 -6 -5 -6 6 -1 11 2 17 5 13 3 -3 4 -12 1 -19z"/>
<path d="M290 1475 c0 -20 5 -25 25 -25 21 0 25 -5 25 -30 0 -25 -4 -30 -25
-30 -20 0 -25 -5 -25 -25 0 -20 5 -25 25 -25 20 0 25 5 25 25 0 20 5 25 25 25
21 0 25 5 25 28 0 23 -4 28 -22 28 -18 -1 -24 5 -26 27 -3 21 -9 27 -28 27
-19 0 -24 -5 -24 -25z m85 -55 c3 -5 -1 -10 -10 -10 -9 0 -13 5 -10 10 3 6 8
10 10 10 2 0 7 -4 10 -10z m-55 -55 c0 -8 -4 -15 -10 -15 -5 0 -7 7 -4 15 4 8
8 15 10 15 2 0 4 -7 4 -15z"/>
<path d="M400 1475 c0 -20 5 -25 25 -25 20 0 25 5 25 25 0 20 -5 25 -25 25
-20 0 -25 -5 -25 -25z"/>
<path d="M508 1473 c-2 -22 -8 -28 -25 -27 -19 0 -23 -5 -23 -28 0 -23 4 -28
25 -28 20 0 25 -5 25 -25 0 -20 5 -25 25 -25 20 0 25 5 25 25 0 20 -5 25 -25
25 -21 0 -25 5 -25 30 0 25 4 30 25 30 20 0 25 5 25 25 0 20 -5 25 -24 25 -19
0 -25 -6 -28 -27z m29 -115 c-3 -8 -6 -5 -6 6 -1 11 2 17 5 13 3 -3 4 -12 1
-19z"/>
<path d="M2440 1475 c0 -20 5 -25 25 -25 20 0 25 5 25 25 0 20 -5 25 -25 25
-20 0 -25 -5 -25 -25z m35 5 c3 -5 1 -10 -4 -10 -6 0 -11 5 -11 10 0 6 2 10 4
10 3 0 8 -4 11 -10z"/>
<path d="M2548 1473 c-2 -22 -8 -28 -25 -27 -19 0 -23 -5 -23 -28 0 -23 4 -28
25 -28 20 0 25 -5 25 -25 0 -20 5 -25 25 -25 20 0 25 5 25 25 0 20 -5 25 -25
25 -21 0 -25 5 -25 30 0 25 4 30 25 30 20 0 25 5 25 25 0 20 -5 25 -24 25 -19
0 -25 -6 -28 -27z m37 -102 c3 -5 1 -12 -5 -16 -5 -3 -10 1 -10 9 0 18 6 21
15 7z"/>
<path d="M2670 1475 c0 -20 5 -25 25 -25 21 0 25 -5 25 -30 0 -25 -4 -30 -25
-30 -20 0 -25 -5 -25 -25 0 -20 5 -25 25 -25 20 0 25 5 25 25 0 20 5 25 25 25
21 0 25 5 25 28 0 23 -4 28 -22 28 -18 -1 -24 5 -26 27 -3 21 -9 27 -28 27
-19 0 -24 -5 -24 -25z m85 -55 c3 -5 1 -10 -4 -10 -6 0 -11 5 -11 10 0 6 2 10
4 10 3 0 8 -4 11 -10z m-59 -67 c-10 -10 -19 5 -10 18 6 11 8 11 12 0 2 -7 1
-15 -2 -18z"/>
<path d="M2780 1475 c0 -20 5 -25 25 -25 20 0 25 5 25 25 0 20 -5 25 -25 25
-20 0 -25 -5 -25 -25z m35 5 c3 -5 1 -10 -4 -10 -6 0 -11 5 -11 10 0 6 2 10 4
10 3 0 8 -4 11 -10z"/>
<path d="M2888 1473 c-2 -22 -8 -28 -25 -27 -19 0 -23 -5 -23 -28 0 -23 4 -28
25 -28 20 0 25 -5 25 -25 0 -20 5 -25 25 -25 20 0 25 5 25 25 0 20 -5 25 -25
25 -21 0 -25 5 -25 30 0 25 4 30 25 30 20 0 25 5 25 25 0 20 -5 25 -24 25 -19
0 -25 -6 -28 -27z m-11 -59 c-3 -3 -12 -4 -19 -1 -8 3 -5 6 6 6 11 1 17 -2 13
-5z m40 -56 c-3 -8 -6 -5 -6 6 -1 11 2 17 5 13 3 -3 4 -12 1 -19z"/>
<path d="M230 1418 c0 -23 4 -28 25 -28 21 0 25 5 25 28 0 22 -4 27 -25 27
-21 0 -25 -5 -25 -27z m37 -4 c-3 -3 -12 -4 -19 -1 -8 3 -5 6 6 6 11 1 17 -2
13 -5z"/>
<path d="M570 1418 c0 -23 4 -28 25 -28 21 0 25 5 25 28 0 22 -4 27 -25 27
-21 0 -25 -5 -25 -27z m37 -4 c-3 -3 -12 -4 -19 -1 -8 3 -5 6 6 6 11 1 17 -2
13 -5z"/>
<path d="M2610 1418 c0 -23 4 -28 25 -28 21 0 25 5 25 28 0 22 -4 27 -25 27
-21 0 -25 -5 -25 -27z m37 -4 c-3 -3 -12 -4 -19 -1 -8 3 -5 6 6 6 11 1 17 -2
13 -5z"/>
<path d="M2950 1419 c0 -24 4 -29 25 -29 31 0 33 17 3 23 l-23 4 23 2 c30 1
28 17 -3 23 -22 5 -25 2 -25 -23z"/>
<path d="M18 1433 c24 -5 31 -23 8 -23 -8 0 -18 -4 -21 -10 -4 -6 5 -10 19
-10 21 0 26 5 26 25 0 21 -4 25 -27 24 -24 -2 -25 -2 -5 -6z"/>
<path d="M60 1365 c0 -20 5 -25 25 -25 20 0 25 5 25 25 0 20 -5 25 -25 25 -20
0 -25 -5 -25 -25z m27 -7 c-3 -8 -6 -5 -6 6 -1 11 2 17 5 13 3 -3 4 -12 1 -19z"/>
<path d="M400 1365 c0 -20 5 -25 25 -25 20 0 25 5 25 25 0 20 -5 25 -25 25
-20 0 -25 -5 -25 -25z m27 -7 c-3 -8 -6 -5 -6 6 -1 11 2 17 5 13 3 -3 4 -12 1
-19z"/>
<path d="M2440 1365 c0 -20 5 -25 25 -25 20 0 25 5 25 25 0 20 -5 25 -25 25
-20 0 -25 -5 -25 -25z m30 0 c0 -8 -4 -15 -10 -15 -5 0 -7 7 -4 15 4 8 8 15
10 15 2 0 4 -7 4 -15z"/>
<path d="M2780 1365 c0 -20 5 -25 25 -25 20 0 25 5 25 25 0 20 -5 25 -25 25
-20 0 -25 -5 -25 -25z m27 -7 c-3 -8 -6 -5 -6 6 -1 11 2 17 5 13 3 -3 4 -12 1
-19z"/>
<path d="M18 1320 c12 -5 22 -12 22 -15 0 -3 -10 -10 -22 -15 -22 -8 -22 -9 5
-9 22 -1 27 3 27 24 0 21 -5 25 -27 24 -27 0 -27 -1 -5 -9z"/>
<path d="M120 1305 c0 -20 5 -25 25 -25 21 0 25 -5 25 -30 0 -25 -4 -30 -25
-30 -20 0 -25 -5 -25 -25 0 -20 5 -25 25 -25 20 0 25 5 25 25 0 20 5 25 25 25
21 0 25 5 25 28 0 23 -4 28 -22 28 -18 -1 -24 5 -26 27 -3 21 -9 27 -28 27
-19 0 -24 -5 -24 -25z m85 -55 c3 -5 2 -10 -4 -10 -5 0 -13 5 -16 10 -3 6 -2
10 4 10 5 0 13 -4 16 -10z m-55 -60 c0 -5 -4 -10 -10 -10 -5 0 -10 5 -10 10 0
6 5 10 10 10 6 0 10 -4 10 -10z"/>
<path d="M230 1305 c0 -20 5 -25 25 -25 20 0 25 5 25 25 0 20 -5 25 -25 25
-20 0 -25 -5 -25 -25z"/>
<path d="M340 1306 c0 -24 -23 -41 -41 -30 -5 3 -9 -9 -9 -25 0 -26 4 -31 25
-31 20 0 25 -5 25 -25 0 -20 5 -25 25 -25 20 0 25 5 25 25 0 20 -5 25 -25 25
-21 0 -25 5 -25 30 0 25 4 30 25 30 20 0 25 5 25 25 0 20 -5 25 -25 25 -20 0
-25 -5 -25 -24z m-20 -56 c0 -5 -4 -10 -10 -10 -5 0 -10 5 -10 10 0 6 5 10 10
10 6 0 10 -4 10 -10z"/>
<path d="M460 1305 c0 -20 5 -25 25 -25 21 0 25 -5 25 -30 0 -25 -4 -30 -25
-30 -20 0 -25 -5 -25 -25 0 -20 5 -25 25 -25 20 0 25 5 25 25 0 20 5 25 25 25
21 0 25 5 25 28 0 23 -4 28 -22 28 -18 -1 -24 5 -26 27 -3 21 -9 27 -28 27
-19 0 -24 -5 -24 -25z m30 -115 c0 -5 -4 -10 -10 -10 -5 0 -10 5 -10 10 0 6 5
10 10 10 6 0 10 -4 10 -10z"/>
<path d="M570 1305 c0 -20 5 -25 25 -25 20 0 25 5 25 25 0 20 -5 25 -25 25
-20 0 -25 -5 -25 -25z"/>
<path d="M2500 1305 c0 -20 5 -25 25 -25 21 0 25 -5 25 -30 0 -25 -4 -30 -25
-30 -20 0 -25 -5 -25 -25 0 -20 5 -25 25 -25 20 0 25 5 25 25 0 20 5 25 25 25
21 0 25 5 25 28 0 23 -4 28 -22 28 -18 -1 -24 5 -26 27 -3 21 -9 27 -28 27
-19 0 -24 -5 -24 -25z"/>
<path d="M2610 1305 c0 -20 5 -25 25 -25 20 0 25 5 25 25 0 20 -5 25 -25 25
-20 0 -25 -5 -25 -25z"/>
<path d="M2718 1303 c-2 -22 -8 -28 -25 -27 -19 0 -23 -5 -23 -28 0 -23 4 -28
25 -28 20 0 25 -5 25 -25 0 -20 5 -25 25 -25 20 0 25 5 25 25 0 20 -5 25 -25
25 -21 0 -25 5 -25 30 0 25 4 30 25 30 20 0 25 5 25 25 0 20 -5 25 -24 25 -19
0 -25 -6 -28 -27z m-18 -53 c0 -5 -5 -10 -11 -10 -5 0 -7 5 -4 10 3 6 8 10 11
10 2 0 4 -4 4 -10z"/>
<path d="M2840 1305 c0 -20 5 -25 25 -25 21 0 25 -5 25 -30 0 -25 -4 -30 -25
-30 -20 0 -25 -5 -25 -25 0 -20 5 -25 25 -25 20 0 25 5 25 25 0 20 5 25 25 25
21 0 25 5 25 28 0 23 -4 28 -22 28 -18 -1 -24 5 -26 27 -3 21 -9 27 -28 27
-19 0 -24 -5 -24 -25z m85 -55 c3 -5 2 -10 -4 -10 -5 0 -13 5 -16 10 -3 6 -2
10 4 10 5 0 13 -4 16 -10z m-55 -60 c0 -5 -4 -10 -10 -10 -5 0 -10 5 -10 10 0
6 5 10 10 10 6 0 10 -4 10 -10z"/>
<path d="M2950 1305 c0 -20 5 -25 25 -25 29 0 34 16 8 23 -17 4 -17 5 0 6 27
2 20 21 -8 21 -20 0 -25 -5 -25 -25z"/>
<path d="M60 1248 c0 -23 4 -28 25 -28 21 0 25 5 25 28 0 22 -4 27 -25 27 -21
0 -25 -5 -25 -27z"/>
<path d="M400 1248 c0 -23 4 -28 25 -28 21 0 25 5 25 28 0 22 -4 27 -25 27
-21 0 -25 -5 -25 -27z"/>
<path d="M2440 1248 c0 -23 4 -28 25 -28 21 0 25 5 25 28 0 22 -4 27 -25 27
-21 0 -25 -5 -25 -27z"/>
<path d="M2780 1248 c0 -23 4 -28 25 -28 21 0 25 5 25 28 0 22 -4 27 -25 27
-21 0 -25 -5 -25 -27z"/>
<path d="M18 1210 c12 -5 22 -14 22 -19 0 -5 -10 -12 -23 -14 -19 -4 -18 -4 6
-6 23 -1 27 3 27 24 0 21 -5 25 -27 24 -27 0 -27 -1 -5 -9z"/>
<path d="M230 1195 c0 -20 5 -25 25 -25 20 0 25 5 25 25 0 20 -5 25 -25 25
-20 0 -25 -5 -25 -25z"/>
<path d="M570 1195 c0 -20 5 -25 25 -25 20 0 25 5 25 25 0 20 -5 25 -25 25
-20 0 -25 -5 -25 -25z"/>
<path d="M2610 1195 c0 -20 5 -25 25 -25 20 0 25 5 25 25 0 20 -5 25 -25 25
-20 0 -25 -5 -25 -25z"/>
<path d="M2950 1195 c0 -21 5 -25 28 -24 16 1 20 3 10 6 -22 5 -24 23 -3 23 8
0 15 5 15 10 0 6 -11 10 -25 10 -20 0 -25 -5 -25 -25z"/>
<path d="M60 1135 c0 -20 5 -25 25 -25 20 0 25 5 25 25 0 20 -5 25 -25 25 -20
0 -25 -5 -25 -25z"/>
<path d="M170 1135 c0 -20 -5 -25 -25 -25 -21 0 -25 -5 -25 -30 0 -25 4 -30
25 -30 20 0 25 -5 25 -25 0 -20 5 -25 25 -25 20 0 25 5 25 25 0 20 -5 25 -25
25 -21 0 -25 5 -25 30 0 25 4 30 25 30 20 0 25 5 25 25 0 20 -5 25 -25 25 -20
0 -25 -5 -25 -25z m-20 -55 c0 -5 -4 -10 -10 -10 -5 0 -10 5 -10 10 0 6 5 10
10 10 6 0 10 -4 10 -10z"/>
<path d="M290 1135 c0 -20 5 -25 25 -25 21 0 25 -5 25 -30 0 -25 -4 -30 -25
-30 -20 0 -25 -5 -25 -25 0 -20 5 -25 25 -25 20 0 25 5 25 25 0 20 5 25 25 25
21 0 25 5 25 30 0 25 -4 30 -25 30 -20 0 -25 5 -25 25 0 20 -5 25 -25 25 -20
0 -25 -5 -25 -25z m90 -49 c0 -11 -19 -15 -25 -6 -3 5 1 10 9 10 9 0 16 -2 16
-4z m-60 -66 c0 -5 -4 -10 -10 -10 -5 0 -10 5 -10 10 0 6 5 10 10 10 6 0 10
-4 10 -10z"/>
<path d="M400 1135 c0 -20 5 -25 25 -25 20 0 25 5 25 25 0 20 -5 25 -25 25
-20 0 -25 -5 -25 -25z"/>
<path d="M510 1135 c0 -20 -5 -25 -25 -25 -21 0 -25 -5 -25 -30 0 -25 4 -30
25 -30 20 0 25 -5 25 -25 0 -20 5 -25 25 -25 20 0 25 5 25 25 0 20 -5 25 -25
25 -21 0 -25 5 -25 30 0 25 4 30 25 30 20 0 25 5 25 25 0 20 -5 25 -25 25 -20
0 -25 -5 -25 -25z m-20 -55 c0 -5 -4 -10 -10 -10 -5 0 -10 5 -10 10 0 6 5 10
10 10 6 0 10 -4 10 -10z"/>
<path d="M2440 1135 c0 -20 5 -25 25 -25 20 0 25 5 25 25 0 20 -5 25 -25 25
-20 0 -25 -5 -25 -25z"/>
<path d="M2550 1135 c0 -20 -5 -25 -25 -25 -21 0 -25 -5 -25 -30 0 -25 4 -30
25 -30 20 0 25 -5 25 -25 0 -20 5 -25 25 -25 20 0 25 5 25 25 0 20 -5 25 -25
25 -21 0 -25 5 -25 30 0 25 4 30 25 30 20 0 25 5 25 25 0 20 -5 25 -25 25 -20
0 -25 -5 -25 -25z m-15 -55 c-3 -5 -10 -10 -16 -10 -5 0 -9 5 -9 10 0 6 7 10
16 10 8 0 12 -4 9 -10z"/>
<path d="M2670 1135 c0 -20 5 -25 25 -25 21 0 25 -5 25 -30 0 -25 -4 -30 -25
-30 -20 0 -25 -5 -25 -25 0 -20 5 -25 25 -25 20 0 25 5 25 25 0 20 5 25 25 25
21 0 25 5 25 30 0 25 -4 30 -25 30 -20 0 -25 5 -25 25 0 20 -5 25 -25 25 -20
0 -25 -5 -25 -25z m90 -49 c0 -11 -19 -15 -25 -6 -3 5 1 10 9 10 9 0 16 -2 16
-4z"/>
<path d="M2780 1135 c0 -20 5 -25 25 -25 20 0 25 5 25 25 0 20 -5 25 -25 25
-20 0 -25 -5 -25 -25z"/>
<path d="M2890 1135 c0 -20 -5 -25 -25 -25 -21 0 -25 -5 -25 -30 0 -25 4 -30
25 -30 20 0 25 -5 25 -25 0 -20 5 -25 25 -25 20 0 25 5 25 25 0 20 -5 25 -25
25 -21 0 -25 5 -25 30 0 25 4 30 25 30 20 0 25 5 25 25 0 20 -5 25 -25 25 -20
0 -25 -5 -25 -25z m-20 -55 c0 -5 -4 -10 -10 -10 -5 0 -10 5 -10 10 0 6 5 10
10 10 6 0 10 -4 10 -10z"/>
<path d="M8 1098 c-9 -5 -6 -8 10 -8 12 0 22 -4 22 -8 0 -5 -10 -14 -22 -20
-23 -10 -23 -11 5 -11 23 -1 27 3 27 27 0 29 -16 37 -42 20z"/>
<path d="M230 1080 c0 -25 4 -30 25 -30 21 0 25 5 25 30 0 25 -4 30 -25 30
-21 0 -25 -5 -25 -30z m40 6 c0 -11 -19 -15 -25 -6 -3 5 1 10 9 10 9 0 16 -2
16 -4z"/>
<path d="M570 1079 c0 -24 4 -29 25 -29 21 0 25 5 25 29 0 24 -4 29 -25 29
-21 0 -25 -5 -25 -29z m40 1 c0 -5 -4 -10 -9 -10 -6 0 -13 5 -16 10 -3 6 1 10
9 10 9 0 16 -4 16 -10z"/>
<path d="M2610 1080 c0 -25 4 -30 25 -30 21 0 25 5 25 30 0 25 -4 30 -25 30
-21 0 -25 -5 -25 -30z m40 6 c0 -11 -19 -15 -25 -6 -3 5 1 10 9 10 9 0 16 -2
16 -4z"/>
<path d="M2950 1080 c0 -25 4 -30 25 -30 31 0 33 15 3 25 l-23 8 23 4 c30 6
28 23 -3 23 -21 0 -25 -5 -25 -30z"/>
<path d="M60 1025 c0 -20 5 -25 25 -25 20 0 25 5 25 25 0 20 -5 25 -25 25 -20
0 -25 -5 -25 -25z"/>
<path d="M400 1025 c0 -20 5 -25 25 -25 20 0 25 5 25 25 0 20 -5 25 -25 25
-20 0 -25 -5 -25 -25z"/>
<path d="M2440 1025 c0 -20 5 -25 25 -25 20 0 25 5 25 25 0 20 -5 25 -25 25
-20 0 -25 -5 -25 -25z"/>
<path d="M2780 1025 c0 -20 5 -25 25 -25 20 0 25 5 25 25 0 20 -5 25 -25 25
-20 0 -25 -5 -25 -25z"/>
<path d="M18 980 c12 -5 22 -14 22 -19 0 -5 -10 -12 -23 -14 -19 -4 -18 -4 6
-6 23 -1 27 3 27 24 0 21 -5 25 -27 24 -27 0 -27 -1 -5 -9z"/>
<path d="M120 965 c0 -20 5 -25 25 -25 21 0 25 -5 25 -30 0 -25 -4 -30 -25
-30 -20 0 -25 -5 -25 -25 0 -20 5 -25 25 -25 20 0 25 5 25 25 0 20 5 25 25 25
21 0 25 5 25 30 0 25 -4 30 -25 30 -20 0 -25 5 -25 25 0 20 -5 25 -25 25 -20
0 -25 -5 -25 -25z m30 -105 c0 -5 -4 -10 -10 -10 -5 0 -10 5 -10 10 0 6 5 10
10 10 6 0 10 -4 10 -10z"/>
<path d="M230 965 c0 -20 5 -25 25 -25 20 0 25 5 25 25 0 20 -5 25 -25 25 -20
0 -25 -5 -25 -25z"/>
<path d="M340 965 c0 -20 -5 -25 -25 -25 -21 0 -25 -5 -25 -30 0 -25 4 -30 25
-30 20 0 25 -5 25 -25 0 -20 5 -25 25 -25 20 0 25 5 25 25 0 20 -5 25 -25 25
-21 0 -25 5 -25 30 0 25 4 30 25 30 20 0 25 5 25 25 0 20 -5 25 -25 25 -20 0
-25 -5 -25 -25z m35 -105 c3 -5 1 -10 -4 -10 -6 0 -11 5 -11 10 0 6 2 10 4 10
3 0 8 -4 11 -10z"/>
<path d="M460 965 c0 -20 5 -25 25 -25 21 0 25 -5 25 -30 0 -25 -4 -30 -25
-30 -20 0 -25 -5 -25 -25 0 -20 5 -25 25 -25 20 0 25 5 25 25 0 20 5 25 25 25
21 0 25 5 25 30 0 25 -4 30 -25 30 -20 0 -25 5 -25 25 0 20 -5 25 -25 25 -20
0 -25 -5 -25 -25z m90 -49 c0 -11 -19 -15 -25 -6 -3 5 1 10 9 10 9 0 16 -2 16
-4z m-60 -56 c0 -5 -4 -10 -10 -10 -5 0 -10 5 -10 10 0 6 5 10 10 10 6 0 10
-4 10 -10z"/>
<path d="M570 965 c0 -20 5 -25 25 -25 20 0 25 5 25 25 0 20 -5 25 -25 25 -20
0 -25 -5 -25 -25z"/>
<path d="M2500 965 c0 -20 5 -25 25 -25 21 0 25 -5 25 -30 0 -25 -4 -30 -25
-30 -20 0 -25 -5 -25 -25 0 -20 5 -25 25 -25 20 0 25 5 25 25 0 20 5 25 25 25
21 0 25 5 25 30 0 25 -4 30 -25 30 -20 0 -25 5 -25 25 0 20 -5 25 -25 25 -20
0 -25 -5 -25 -25z m87 -51 c-3 -3 -12 -4 -19 -1 -8 3 -5 6 6 6 11 1 17 -2 13
-5z m-57 -54 c0 -5 -4 -10 -10 -10 -5 0 -10 5 -10 10 0 6 5 10 10 10 6 0 10
-4 10 -10z"/>
<path d="M2610 965 c0 -20 5 -25 25 -25 20 0 25 5 25 25 0 20 -5 25 -25 25
-20 0 -25 -5 -25 -25z"/>
<path d="M2720 965 c0 -20 -5 -25 -25 -25 -21 0 -25 -5 -25 -30 0 -25 4 -30
25 -30 20 0 25 -5 25 -25 0 -20 5 -25 25 -25 20 0 25 5 25 25 0 20 -5 25 -25
25 -21 0 -25 5 -25 30 0 25 4 30 25 30 20 0 25 5 25 25 0 20 -5 25 -25 25 -20
0 -25 -5 -25 -25z"/>
<path d="M2840 965 c0 -20 5 -25 25 -25 21 0 25 -5 25 -30 0 -25 -4 -30 -25
-30 -20 0 -25 -5 -25 -25 0 -20 5 -25 25 -25 20 0 25 5 25 25 0 20 5 25 25 25
21 0 25 5 25 30 0 25 -4 30 -25 30 -20 0 -25 5 -25 25 0 20 -5 25 -25 25 -20
0 -25 -5 -25 -25z m30 -105 c0 -5 -4 -10 -10 -10 -5 0 -10 5 -10 10 0 6 5 10
10 10 6 0 10 -4 10 -10z"/>
<path d="M2950 965 c0 -20 5 -25 25 -25 29 0 34 16 8 23 -17 4 -17 5 0 6 27 2
20 21 -8 21 -20 0 -25 -5 -25 -25z"/>
<path d="M60 910 c0 -25 4 -30 25 -30 21 0 25 5 25 30 0 25 -4 30 -25 30 -21
0 -25 -5 -25 -30z m37 4 c-3 -3 -12 -4 -19 -1 -8 3 -5 6 6 6 11 1 17 -2 13 -5z"/>
<path d="M400 910 c0 -25 4 -30 25 -30 21 0 25 5 25 30 0 25 -4 30 -25 30 -21
0 -25 -5 -25 -30z m37 4 c-3 -3 -12 -4 -19 -1 -8 3 -5 6 6 6 11 1 17 -2 13 -5z"/>
<path d="M2440 910 c0 -25 4 -30 25 -30 21 0 25 5 25 30 0 25 -4 30 -25 30
-21 0 -25 -5 -25 -30z"/>
<path d="M2780 910 c0 -25 4 -30 25 -30 21 0 25 5 25 30 0 25 -4 30 -25 30
-21 0 -25 -5 -25 -30z m37 4 c-3 -3 -12 -4 -19 -1 -8 3 -5 6 6 6 11 1 17 -2
13 -5z"/>
<path d="M18 873 c28 -6 28 -21 0 -33 -22 -8 -22 -9 5 -9 22 -1 27 3 27 24 0
21 -4 25 -27 24 -24 -2 -25 -2 -5 -6z"/>
<path d="M230 855 c0 -20 5 -25 25 -25 20 0 25 5 25 25 0 20 -5 25 -25 25 -20
0 -25 -5 -25 -25z"/>
<path d="M570 855 c0 -20 5 -25 25 -25 20 0 25 5 25 25 0 20 -5 25 -25 25 -20
0 -25 -5 -25 -25z"/>
<path d="M2151 864 c0 -11 3 -14 6 -6 3 7 2 16 -1 19 -3 4 -6 -2 -5 -13z"/>
<path d="M2610 855 c0 -20 5 -25 25 -25 20 0 25 5 25 25 0 20 -5 25 -25 25
-20 0 -25 -5 -25 -25z"/>
<path d="M2950 855 c0 -20 5 -25 25 -25 14 0 25 5 25 10 0 6 -7 10 -15 10 -21
0 -19 18 3 23 10 3 6 5 -10 6 -23 1 -28 -3 -28 -24z"/>
<path d="M60 795 c0 -20 5 -25 25 -25 20 0 25 5 25 25 0 20 -5 25 -25 25 -20
0 -25 -5 -25 -25z"/>
<path d="M170 795 c0 -20 -5 -25 -25 -25 -21 0 -25 -5 -25 -30 0 -25 4 -30 25
-30 20 0 25 -5 25 -25 0 -20 5 -25 25 -25 20 0 25 5 25 25 0 20 -5 25 -25 25
-21 0 -25 5 -25 30 0 25 4 30 25 30 20 0 25 5 25 25 0 20 -5 25 -25 25 -20 0
-25 -5 -25 -25z m-20 -55 c0 -5 -4 -10 -10 -10 -5 0 -10 5 -10 10 0 6 5 10 10
10 6 0 10 -4 10 -10z"/>
<path d="M290 795 c0 -20 5 -25 25 -25 21 0 25 -5 25 -30 0 -25 -4 -30 -25
-30 -20 0 -25 -5 -25 -25 0 -20 5 -25 25 -25 20 0 25 5 25 25 0 20 5 25 25 25
21 0 25 5 25 30 0 25 -4 30 -25 30 -20 0 -25 5 -25 25 0 20 -5 25 -25 25 -20
0 -25 -5 -25 -25z m30 -105 c0 -5 -5 -10 -11 -10 -5 0 -7 5 -4 10 3 6 8 10 11
10 2 0 4 -4 4 -10z"/>
<path d="M400 795 c0 -20 5 -25 25 -25 20 0 25 5 25 25 0 20 -5 25 -25 25 -20
0 -25 -5 -25 -25z"/>
<path d="M510 795 c0 -20 -5 -25 -25 -25 -21 0 -25 -5 -25 -30 0 -25 4 -30 25
-30 20 0 25 -5 25 -25 0 -20 5 -25 25 -25 20 0 25 5 25 25 0 20 -5 25 -25 25
-21 0 -25 5 -25 30 0 25 4 30 25 30 20 0 25 5 25 25 0 20 -5 25 -25 25 -20 0
-25 -5 -25 -25z m35 5 c3 -5 1 -10 -4 -10 -6 0 -11 5 -11 10 0 6 2 10 4 10 3
0 8 -4 11 -10z m-55 -60 c0 -5 -5 -10 -11 -10 -5 0 -7 5 -4 10 3 6 8 10 11 10
2 0 4 -4 4 -10z"/>
<path d="M2440 795 c0 -20 5 -25 25 -25 20 0 25 5 25 25 0 20 -5 25 -25 25
-20 0 -25 -5 -25 -25z"/>
<path d="M2550 795 c0 -20 -5 -25 -25 -25 -21 0 -25 -5 -25 -30 0 -19 5 -30
13 -29 28 4 37 -2 37 -26 0 -20 5 -25 25 -25 20 0 25 5 25 25 0 20 -5 25 -25
25 -21 0 -25 5 -25 30 0 25 4 30 25 30 20 0 25 5 25 25 0 20 -5 25 -25 25 -20
0 -25 -5 -25 -25z m-20 -55 c0 -5 -4 -10 -10 -10 -5 0 -10 5 -10 10 0 6 5 10
10 10 6 0 10 -4 10 -10z"/>
<path d="M2670 795 c0 -20 5 -25 25 -25 21 0 25 -5 25 -30 0 -25 -4 -30 -25
-30 -20 0 -25 -5 -25 -25 0 -20 5 -25 25 -25 20 0 25 5 25 25 0 20 5 25 25 25
21 0 25 5 25 30 0 25 -4 30 -25 30 -20 0 -25 5 -25 25 0 20 -5 25 -25 25 -20
0 -25 -5 -25 -25z m90 -55 c0 -5 -4 -10 -10 -10 -5 0 -10 5 -10 10 0 6 5 10
10 10 6 0 10 -4 10 -10z m-60 -50 c0 -5 -4 -10 -10 -10 -5 0 -10 5 -10 10 0 6
5 10 10 10 6 0 10 -4 10 -10z"/>
<path d="M2780 795 c0 -20 5 -25 25 -25 20 0 25 5 25 25 0 20 -5 25 -25 25
-20 0 -25 -5 -25 -25z"/>
<path d="M2890 795 c0 -20 -5 -25 -25 -25 -21 0 -25 -5 -25 -30 0 -25 4 -30
25 -30 20 0 25 -5 25 -25 0 -20 5 -25 25 -25 20 0 25 5 25 25 0 20 -5 25 -25
25 -21 0 -25 5 -25 30 0 25 4 30 25 30 20 0 25 5 25 25 0 20 -5 25 -25 25 -20
0 -25 -5 -25 -25z m-20 -55 c0 -5 -4 -10 -10 -10 -5 0 -10 5 -10 10 0 6 5 10
10 10 6 0 10 -4 10 -10z"/>
<path d="M0 760 c0 -5 9 -10 20 -10 11 0 20 -4 20 -10 0 -5 -9 -10 -20 -10
-11 0 -20 -4 -20 -8 0 -4 11 -8 25 -8 21 0 25 5 25 28 0 23 -4 28 -25 28 -14
0 -25 -4 -25 -10z"/>
<path d="M230 740 c0 -25 4 -30 25 -30 21 0 25 5 25 30 0 25 -4 30 -25 30 -21
0 -25 -5 -25 -30z m30 0 c0 -5 -5 -10 -11 -10 -5 0 -7 5 -4 10 3 6 8 10 11 10
2 0 4 -4 4 -10z"/>
<path d="M570 740 c0 -25 4 -30 25 -30 21 0 25 5 25 30 0 25 -4 30 -25 30 -21
0 -25 -5 -25 -30z"/>
<path d="M2610 741 c0 -24 4 -28 25 -28 21 0 25 4 25 28 0 24 -4 29 -25 29
-21 0 -25 -5 -25 -29z m40 -1 c0 -5 -4 -10 -10 -10 -5 0 -10 5 -10 10 0 6 5
10 10 10 6 0 10 -4 10 -10z"/>
<path d="M2950 740 c0 -25 4 -30 25 -30 14 0 25 5 25 10 0 6 -7 10 -15 10 -8
0 -15 5 -15 10 0 6 7 10 15 10 8 0 15 5 15 10 0 6 -11 10 -25 10 -21 0 -25 -5
-25 -30z"/>
<path d="M60 685 c0 -20 5 -25 25 -25 20 0 25 5 25 25 0 20 -5 25 -25 25 -20
0 -25 -5 -25 -25z"/>
<path d="M400 685 c0 -20 5 -25 25 -25 20 0 25 5 25 25 0 20 -5 25 -25 25 -20
0 -25 -5 -25 -25z"/>
<path d="M2440 685 c0 -20 5 -25 25 -25 20 0 25 5 25 25 0 20 -5 25 -25 25
-20 0 -25 -5 -25 -25z"/>
<path d="M2780 685 c0 -20 5 -25 25 -25 20 0 25 5 25 25 0 20 -5 25 -25 25
-20 0 -25 -5 -25 -25z"/>
<path d="M18 640 c12 -5 22 -12 22 -15 0 -3 -10 -10 -22 -15 -22 -8 -22 -9 5
-9 22 -1 27 3 27 24 0 21 -5 25 -27 24 -27 0 -27 -1 -5 -9z"/>
<path d="M120 625 c0 -20 5 -25 25 -25 21 0 25 -5 25 -30 0 -25 -4 -30 -25
-30 -20 0 -25 -5 -25 -25 0 -20 5 -25 24 -25 19 0 25 6 28 28 2 21 8 27 26 26
18 0 22 5 22 28 0 23 -4 28 -25 28 -20 0 -25 5 -25 25 0 20 -5 25 -25 25 -20
0 -25 -5 -25 -25z m30 -5 c0 -5 -2 -10 -4 -10 -3 0 -8 5 -11 10 -3 6 -1 10 4
10 6 0 11 -4 11 -10z m55 -50 c-3 -5 -11 -10 -16 -10 -6 0 -7 5 -4 10 3 6 11
10 16 10 6 0 7 -4 4 -10z m-55 -50 c0 -5 -4 -10 -10 -10 -5 0 -10 5 -10 10 0
6 5 10 10 10 6 0 10 -4 10 -10z"/>
<path d="M230 625 c0 -20 5 -25 25 -25 20 0 25 5 25 25 0 20 -5 25 -25 25 -20
0 -25 -5 -25 -25z"/>
<path d="M340 625 c0 -20 -5 -25 -25 -25 -21 0 -25 -5 -25 -31 0 -16 4 -28 9
-25 18 11 41 -6 41 -30 0 -19 5 -24 25 -24 20 0 25 5 25 25 0 20 -5 25 -25 25
-21 0 -25 5 -25 30 0 25 4 30 25 30 20 0 25 5 25 25 0 20 -5 25 -25 25 -20 0
-25 -5 -25 -25z m-20 -55 c0 -5 -4 -10 -10 -10 -5 0 -10 5 -10 10 0 6 5 10 10
10 6 0 10 -4 10 -10z m47 -62 c-3 -8 -6 -5 -6 6 -1 11 2 17 5 13 3 -3 4 -12 1
-19z"/>
<path d="M460 625 c0 -20 5 -25 25 -25 21 0 25 -5 25 -30 0 -25 -4 -30 -25
-30 -20 0 -25 -5 -25 -25 0 -20 5 -25 24 -25 19 0 25 6 28 28 2 21 8 27 26 26
18 0 22 5 22 28 0 23 -4 28 -25 28 -20 0 -25 5 -25 25 0 20 -5 25 -25 25 -20
0 -25 -5 -25 -25z m30 -5 c0 -5 -2 -10 -4 -10 -3 0 -8 5 -11 10 -3 6 -1 10 4
10 6 0 11 -4 11 -10z m0 -100 c0 -5 -4 -10 -10 -10 -5 0 -10 5 -10 10 0 6 5
10 10 10 6 0 10 -4 10 -10z"/>
<path d="M570 625 c0 -20 5 -25 25 -25 20 0 25 5 25 25 0 20 -5 25 -25 25 -20
0 -25 -5 -25 -25z"/>
<path d="M2500 625 c0 -20 5 -25 25 -25 21 0 25 -5 25 -30 0 -25 -4 -30 -25
-30 -20 0 -25 -5 -25 -25 0 -20 5 -25 24 -25 19 0 25 6 28 28 2 21 8 27 26 26
18 0 22 5 22 28 0 23 -4 28 -25 28 -20 0 -25 5 -25 25 0 20 -5 25 -25 25 -20
0 -25 -5 -25 -25z m85 -55 c3 -5 1 -10 -4 -10 -6 0 -11 5 -11 10 0 6 2 10 4
10 3 0 8 -4 11 -10z m-55 -50 c0 -5 -4 -10 -10 -10 -5 0 -10 5 -10 10 0 6 5
10 10 10 6 0 10 -4 10 -10z"/>
<path d="M2610 625 c0 -20 5 -25 25 -25 20 0 25 5 25 25 0 20 -5 25 -25 25
-20 0 -25 -5 -25 -25z"/>
<path d="M2720 625 c0 -20 -5 -25 -25 -25 -21 0 -25 -5 -25 -30 0 -25 4 -29
23 -27 17 2 23 -4 25 -25 3 -22 9 -28 28 -28 19 0 24 5 24 25 0 20 -5 25 -25
25 -21 0 -25 5 -25 30 0 25 4 30 25 30 20 0 25 5 25 25 0 20 -5 25 -25 25 -20
0 -25 -5 -25 -25z m-15 -55 c-3 -5 -10 -10 -16 -10 -5 0 -9 5 -9 10 0 6 7 10
16 10 8 0 12 -4 9 -10z"/>
<path d="M2840 625 c0 -20 5 -25 25 -25 21 0 25 -5 25 -30 0 -25 -4 -30 -25
-30 -20 0 -25 -5 -25 -25 0 -20 5 -25 24 -25 19 0 25 6 28 28 2 21 8 27 26 26
18 0 22 5 22 28 0 23 -4 28 -25 28 -20 0 -25 5 -25 25 0 20 -5 25 -25 25 -20
0 -25 -5 -25 -25z m30 -5 c0 -5 -2 -10 -4 -10 -3 0 -8 5 -11 10 -3 6 -1 10 4
10 6 0 11 -4 11 -10z m55 -50 c-3 -5 -11 -10 -16 -10 -6 0 -7 5 -4 10 3 6 11
10 16 10 6 0 7 -4 4 -10z m-55 -50 c0 -5 -4 -10 -10 -10 -5 0 -10 5 -10 10 0
6 5 10 10 10 6 0 10 -4 10 -10z"/>
<path d="M2950 625 c0 -20 5 -25 25 -25 29 0 34 16 8 23 -17 4 -17 5 0 6 27 2
20 21 -8 21 -20 0 -25 -5 -25 -25z"/>
<path d="M60 573 c0 -23 4 -28 25 -28 21 0 25 5 25 28 0 22 -4 27 -25 27 -21
0 -25 -5 -25 -27z"/>
<path d="M400 573 c0 -23 4 -28 25 -28 21 0 25 5 25 28 0 22 -4 27 -25 27 -21
0 -25 -5 -25 -27z m30 -3 c0 -5 -2 -10 -4 -10 -3 0 -8 5 -11 10 -3 6 -1 10 4
10 6 0 11 -4 11 -10z"/>
<path d="M2440 573 c0 -23 4 -28 25 -28 21 0 25 5 25 28 0 22 -4 27 -25 27
-21 0 -25 -5 -25 -27z"/>
<path d="M2780 573 c0 -23 4 -28 25 -28 21 0 25 5 25 28 0 22 -4 27 -25 27
-21 0 -25 -5 -25 -27z"/>
<path d="M18 533 c28 -6 28 -21 0 -33 -22 -8 -22 -9 5 -9 22 -1 27 3 27 24 0
21 -4 25 -27 24 -24 -2 -25 -2 -5 -6z"/>
<path d="M230 515 c0 -20 5 -25 25 -25 20 0 25 5 25 25 0 20 -5 25 -25 25 -20
0 -25 -5 -25 -25z m27 -7 c-3 -8 -6 -5 -6 6 -1 11 2 17 5 13 3 -3 4 -12 1 -19z"/>
<path d="M570 515 c0 -20 5 -25 25 -25 20 0 25 5 25 25 0 20 -5 25 -25 25 -20
0 -25 -5 -25 -25z"/>
<path d="M2610 515 c0 -20 5 -25 25 -25 20 0 25 5 25 25 0 20 -5 25 -25 25
-20 0 -25 -5 -25 -25z"/>
<path d="M2950 515 c0 -20 5 -25 25 -25 14 0 25 5 25 10 0 6 -7 10 -15 10 -21
0 -19 18 3 23 10 3 6 5 -10 6 -23 1 -28 -3 -28 -24z"/>
<path d="M60 455 c0 -20 5 -25 25 -25 20 0 25 5 25 25 0 20 -5 25 -25 25 -20
0 -25 -5 -25 -25z m37 -1 c-3 -3 -12 -4 -19 -1 -8 3 -5 6 6 6 11 1 17 -2 13
-5z"/>
<path d="M170 455 c0 -20 -5 -25 -25 -25 -21 0 -25 -5 -25 -28 0 -23 4 -28 23
-28 17 1 23 -5 25 -26 3 -22 9 -28 28 -28 19 0 24 5 24 25 0 20 -5 25 -25 25
-21 0 -25 5 -25 30 0 25 4 30 25 30 20 0 25 5 25 25 0 20 -5 25 -25 25 -20 0
-25 -5 -25 -25z m37 -1 c-3 -3 -12 -4 -19 -1 -8 3 -5 6 6 6 11 1 17 -2 13 -5z
m-57 -54 c0 -5 -2 -10 -4 -10 -3 0 -8 5 -11 10 -3 6 -1 10 4 10 6 0 11 -4 11
-10z"/>
<path d="M290 455 c0 -20 5 -25 25 -25 21 0 25 -5 25 -30 0 -25 -4 -30 -25
-30 -20 0 -25 -5 -25 -25 0 -20 5 -25 24 -25 19 0 25 6 28 28 2 21 8 27 26 26
18 0 22 5 22 28 0 23 -4 28 -25 28 -20 0 -25 5 -25 25 0 20 -5 25 -25 25 -20
0 -25 -5 -25 -25z m30 -105 c0 -5 -4 -10 -10 -10 -5 0 -10 5 -10 10 0 6 5 10
10 10 6 0 10 -4 10 -10z"/>
<path d="M400 455 c0 -20 5 -25 25 -25 20 0 25 5 25 25 0 20 -5 25 -25 25 -20
0 -25 -5 -25 -25z m37 -1 c-3 -3 -12 -4 -19 -1 -8 3 -5 6 6 6 11 1 17 -2 13
-5z"/>
<path d="M510 455 c0 -20 -5 -25 -25 -25 -21 0 -25 -5 -25 -28 0 -23 4 -28 23
-28 17 1 23 -5 25 -26 3 -22 9 -28 28 -28 19 0 24 5 24 25 0 20 -5 25 -25 25
-21 0 -25 5 -25 30 0 25 4 30 25 30 20 0 25 5 25 25 0 20 -5 25 -25 25 -20 0
-25 -5 -25 -25z m-20 -55 c0 -5 -4 -10 -10 -10 -5 0 -10 5 -10 10 0 6 5 10 10
10 6 0 10 -4 10 -10z"/>
<path d="M2440 455 c0 -20 5 -25 25 -25 20 0 25 5 25 25 0 20 -5 25 -25 25
-20 0 -25 -5 -25 -25z m37 -1 c-3 -3 -12 -4 -19 -1 -8 3 -5 6 6 6 11 1 17 -2
13 -5z"/>
<path d="M2550 455 c0 -20 -5 -25 -25 -25 -21 0 -25 -5 -25 -28 0 -23 4 -28
23 -28 17 1 23 -5 25 -26 3 -22 9 -28 28 -28 19 0 24 5 24 25 0 20 -5 25 -25
25 -21 0 -25 5 -25 30 0 25 4 30 25 30 20 0 25 5 25 25 0 20 -5 25 -25 25 -20
0 -25 -5 -25 -25z m37 -1 c-3 -3 -12 -4 -19 -1 -8 3 -5 6 6 6 11 1 17 -2 13
-5z m-57 -54 c0 -5 -4 -10 -10 -10 -5 0 -10 5 -10 10 0 6 5 10 10 10 6 0 10
-4 10 -10z"/>
<path d="M2670 455 c0 -20 5 -25 25 -25 21 0 25 -5 25 -30 0 -25 -4 -30 -25
-30 -20 0 -25 -5 -25 -25 0 -20 5 -25 24 -25 19 0 25 6 28 28 2 21 8 27 26 26
18 0 22 5 22 28 0 23 -4 28 -25 28 -20 0 -25 5 -25 25 0 20 -5 25 -25 25 -20
0 -25 -5 -25 -25z m30 -105 c0 -5 -5 -10 -11 -10 -5 0 -7 5 -4 10 3 6 8 10 11
10 2 0 4 -4 4 -10z"/>
<path d="M2780 455 c0 -20 5 -25 25 -25 20 0 25 5 25 25 0 20 -5 25 -25 25
-20 0 -25 -5 -25 -25z m37 -1 c-3 -3 -12 -4 -19 -1 -8 3 -5 6 6 6 11 1 17 -2
13 -5z"/>
<path d="M2890 455 c0 -20 -5 -25 -25 -25 -21 0 -25 -5 -25 -28 0 -23 4 -28
23 -28 17 1 23 -5 25 -26 3 -22 9 -28 28 -28 19 0 24 5 24 25 0 20 -5 25 -25
25 -21 0 -25 5 -25 30 0 25 4 30 25 30 20 0 25 5 25 25 0 20 -5 25 -25 25 -20
0 -25 -5 -25 -25z m37 -1 c-3 -3 -12 -4 -19 -1 -8 3 -5 6 6 6 11 1 17 -2 13
-5z m-57 -54 c0 -5 -2 -10 -4 -10 -3 0 -8 5 -11 10 -3 6 -1 10 4 10 6 0 11 -4
11 -10z"/>
<path d="M5 420 c3 -5 13 -10 21 -10 23 0 16 -18 -9 -22 -20 -3 -20 -4 6 -9
24 -6 27 -4 27 22 0 24 -4 29 -26 29 -14 0 -23 -4 -19 -10z"/>
<path d="M230 403 c0 -23 4 -28 25 -28 21 0 25 5 25 28 0 22 -4 27 -25 27 -21
0 -25 -5 -25 -27z"/>
<path d="M570 403 c0 -23 4 -28 25 -28 21 0 25 5 25 28 0 22 -4 27 -25 27 -21
0 -25 -5 -25 -27z m40 3 c0 -3 -4 -8 -10 -11 -5 -3 -10 -1 -10 4 0 6 5 11 10
11 6 0 10 -2 10 -4z"/>
<path d="M2610 403 c0 -23 4 -28 25 -28 21 0 25 5 25 28 0 22 -4 27 -25 27
-21 0 -25 -5 -25 -27z m35 -3 c3 -5 1 -10 -4 -10 -6 0 -11 5 -11 10 0 6 2 10
4 10 3 0 8 -4 11 -10z"/>
<path d="M2950 401 c0 -26 3 -28 28 -23 19 4 22 7 10 10 -22 4 -24 22 -3 22 8
0 15 5 15 10 0 6 -11 10 -25 10 -21 0 -25 -5 -25 -29z"/>
<path d="M60 345 c0 -20 5 -25 25 -25 20 0 25 5 25 25 0 20 -5 25 -25 25 -20
0 -25 -5 -25 -25z"/>
<path d="M400 345 c0 -20 5 -25 25 -25 20 0 25 5 25 25 0 20 -5 25 -25 25 -20
0 -25 -5 -25 -25z"/>
<path d="M2440 345 c0 -20 5 -25 25 -25 20 0 25 5 25 25 0 20 -5 25 -25 25
-20 0 -25 -5 -25 -25z"/>
<path d="M2780 345 c0 -20 5 -25 25 -25 20 0 25 5 25 25 0 20 -5 25 -25 25
-20 0 -25 -5 -25 -25z"/>
<path d="M18 300 c12 -5 22 -12 22 -15 0 -3 -10 -10 -22 -15 -22 -8 -22 -9 5
-9 22 -1 27 3 27 24 0 21 -5 25 -27 24 -27 0 -27 -1 -5 -9z"/>
<path d="M120 285 c0 -20 5 -25 25 -25 20 0 25 -5 25 -25 0 -20 5 -25 25 -25
20 0 25 5 25 25 0 20 -5 25 -25 25 -20 0 -25 5 -25 25 0 20 -5 25 -25 25 -20
0 -25 -5 -25 -25z m37 -1 c-3 -3 -12 -4 -19 -1 -8 3 -5 6 6 6 11 1 17 -2 13
-5z"/>
<path d="M230 285 c0 -20 5 -25 25 -25 20 0 25 5 25 25 0 20 -5 25 -25 25 -20
0 -25 -5 -25 -25z m37 -1 c-3 -3 -12 -4 -19 -1 -8 3 -5 6 6 6 11 1 17 -2 13
-5z"/>
<path d="M340 285 c0 -20 -5 -25 -25 -25 -20 0 -25 -5 -25 -25 0 -20 5 -25 25
-25 20 0 25 5 25 25 0 20 5 25 25 25 20 0 25 5 25 25 0 20 -5 25 -25 25 -20 0
-25 -5 -25 -25z m37 -1 c-3 -3 -12 -4 -19 -1 -8 3 -5 6 6 6 11 1 17 -2 13 -5z
m-57 -54 c0 -5 -4 -10 -10 -10 -5 0 -10 5 -10 10 0 6 5 10 10 10 6 0 10 -4 10
-10z"/>
<path d="M460 285 c0 -20 5 -25 25 -25 20 0 25 -5 25 -25 0 -20 5 -25 25 -25
20 0 25 5 25 25 0 20 -5 25 -25 25 -20 0 -25 5 -25 25 0 20 -5 25 -25 25 -20
0 -25 -5 -25 -25z m37 -1 c-3 -3 -12 -4 -19 -1 -8 3 -5 6 6 6 11 1 17 -2 13
-5z"/>
<path d="M570 285 c0 -20 5 -25 25 -25 20 0 25 5 25 25 0 20 -5 25 -25 25 -20
0 -25 -5 -25 -25z"/>
<path d="M2950 285 c0 -20 5 -25 25 -25 31 0 33 17 3 23 l-23 4 23 2 c30 2 28
21 -3 21 -20 0 -25 -5 -25 -25z"/>
<path d="M1948 263 c7 -3 16 -2 19 1 4 3 -2 6 -13 5 -11 0 -14 -3 -6 -6z"/>
<path d="M2628 263 c7 -3 16 -2 19 1 4 3 -2 6 -13 5 -11 0 -14 -3 -6 -6z"/>
<path d="M60 233 c0 -23 4 -28 25 -28 21 0 25 5 25 28 0 22 -4 27 -25 27 -21
0 -25 -5 -25 -27z m30 -3 c0 -5 -2 -10 -4 -10 -3 0 -8 5 -11 10 -3 6 -1 10 4
10 6 0 11 -4 11 -10z"/>
<path d="M400 233 c0 -23 4 -28 25 -28 21 0 25 5 25 28 0 22 -4 27 -25 27 -21
0 -25 -5 -25 -27z m30 -3 c0 -5 -2 -10 -4 -10 -3 0 -8 5 -11 10 -3 6 -1 10 4
10 6 0 11 -4 11 -10z"/>
<path d="M2387 203 c-4 -3 -7 -17 -7 -29 0 -17 -7 -24 -27 -27 -16 -2 -4 -4
25 -4 l52 0 0 34 c0 25 -4 33 -18 33 -10 0 -22 -3 -25 -7z m33 -28 c0 -24 -10
-32 -23 -18 -4 3 -1 13 6 21 9 13 9 14 0 8 -7 -4 -13 -2 -13 3 0 6 7 11 15 11
9 0 15 -9 15 -25z"/>
<path d="M2843 203 c-7 -3 -13 -15 -13 -28 0 -14 -7 -25 -17 -28 -17 -4 -17
-5 0 -6 13 -1 17 -10 17 -35 0 -50 9 -66 36 -66 19 0 24 5 24 25 0 20 5 25 25
25 21 0 25 5 25 31 0 26 -3 30 -22 27 -17 -2 -24 -11 -26 -30 -3 -22 -9 -28
-28 -28 -35 0 -34 45 1 54 18 5 25 13 25 30 0 24 -22 37 -47 29z m27 -33 c0
-11 -7 -20 -15 -20 -8 0 -15 9 -15 20 0 11 7 20 15 20 8 0 15 -9 15 -20z m58
-42 c-6 -18 -28 -21 -28 -4 0 9 7 16 16 16 9 0 14 -5 12 -12z m-58 -64 c0 -17
-22 -14 -28 4 -2 7 3 12 12 12 9 0 16 -7 16 -16z"/>
<path d="M18 190 c12 -5 22 -12 22 -15 0 -3 -10 -10 -22 -15 -22 -8 -22 -9 5
-9 22 -1 27 3 27 24 0 21 -5 25 -27 24 -27 0 -27 -1 -5 -9z"/>
<path d="M120 175 c0 -20 5 -25 25 -25 20 0 25 5 25 25 0 20 -5 25 -25 25 -20
0 -25 -5 -25 -25z"/>
<path d="M230 175 c0 -20 5 -25 25 -25 20 0 25 5 25 25 0 20 -5 25 -25 25 -20
0 -25 -5 -25 -25z"/>
<path d="M340 175 c0 -20 5 -25 25 -25 20 0 25 5 25 25 0 20 -5 25 -25 25 -20
0 -25 -5 -25 -25z m35 5 c3 -5 1 -10 -4 -10 -6 0 -11 5 -11 10 0 6 2 10 4 10
3 0 8 -4 11 -10z"/>
<path d="M460 175 c0 -20 5 -25 25 -25 20 0 25 5 25 25 0 20 -5 25 -25 25 -20
0 -25 -5 -25 -25z"/>
<path d="M570 175 c0 -20 5 -25 25 -25 20 0 25 5 25 25 0 20 -5 25 -25 25 -20
0 -25 -5 -25 -25z m35 5 c3 -5 1 -10 -4 -10 -6 0 -11 5 -11 10 0 6 2 10 4 10
3 0 8 -4 11 -10z"/>
<path d="M2950 175 c0 -20 5 -25 25 -25 29 0 34 16 8 23 -17 4 -17 5 0 6 27 2
20 21 -8 21 -20 0 -25 -5 -25 -25z"/>
<path d="M60 115 c0 -20 5 -25 25 -25 20 0 25 5 25 25 0 20 -5 25 -25 25 -20
0 -25 -5 -25 -25z m37 -1 c-3 -3 -12 -4 -19 -1 -8 3 -5 6 6 6 11 1 17 -2 13
-5z"/>
<path d="M170 115 c0 -20 -5 -25 -25 -25 -20 0 -25 -5 -25 -25 0 -20 5 -25 25
-25 20 0 25 5 25 25 0 20 5 25 25 25 20 0 25 5 25 25 0 20 -5 25 -25 25 -20 0
-25 -5 -25 -25z m37 -1 c-3 -3 -12 -4 -19 -1 -8 3 -5 6 6 6 11 1 17 -2 13 -5z
m-57 -54 c0 -5 -5 -10 -11 -10 -5 0 -7 5 -4 10 3 6 8 10 11 10 2 0 4 -4 4 -10z"/>
<path d="M290 115 c0 -20 5 -25 25 -25 20 0 25 -5 25 -25 0 -20 5 -25 25 -25
20 0 25 5 25 25 0 20 -5 25 -25 25 -20 0 -25 5 -25 25 0 20 -5 25 -25 25 -20
0 -25 -5 -25 -25z"/>
<path d="M400 115 c0 -20 5 -25 25 -25 20 0 25 5 25 25 0 20 -5 25 -25 25 -20
0 -25 -5 -25 -25z m37 -1 c-3 -3 -12 -4 -19 -1 -8 3 -5 6 6 6 11 1 17 -2 13
-5z"/>
<path d="M510 115 c0 -20 -5 -25 -25 -25 -20 0 -25 -5 -25 -25 0 -20 5 -25 25
-25 20 0 25 5 25 25 0 20 5 25 25 25 20 0 25 5 25 25 0 20 -5 25 -25 25 -20 0
-25 -5 -25 -25z m37 -1 c-3 -3 -12 -4 -19 -1 -8 3 -5 6 6 6 11 1 17 -2 13 -5z
m-52 -54 c3 -5 -1 -10 -9 -10 -9 0 -16 5 -16 10 0 6 4 10 9 10 6 0 13 -4 16
-10z"/>
<path d="M998 108 c-17 -17 -17 -18 2 -18 13 0 20 -7 20 -20 0 -19 1 -19 18
-2 16 16 16 17 0 20 -9 2 -18 11 -20 20 -3 16 -4 16 -20 0z"/>
<path d="M2601 105 c-2 -41 11 -65 35 -65 19 0 24 7 30 35 3 20 4 39 0 42 -3
4 -6 -1 -6 -10 0 -24 -47 -23 -53 1 -4 14 -5 14 -6 -3z m53 -40 c-8 -19 -30
-19 -38 0 -4 11 1 15 19 15 18 0 23 -4 19 -15z"/>
<path d="M2790 100 c0 -6 7 -10 15 -10 8 0 15 2 15 4 0 2 -7 6 -15 10 -8 3
-15 1 -15 -4z"/>
<path d="M1778 93 c7 -3 16 -2 19 1 4 3 -2 6 -13 5 -11 0 -14 -3 -6 -6z"/>
<path d="M2458 93 c7 -3 16 -2 19 1 4 3 -2 6 -13 5 -11 0 -14 -3 -6 -6z"/>
<path d="M18 78 c12 -6 22 -15 22 -19 0 -4 -10 -10 -23 -12 -19 -4 -18 -4 6
-6 23 -1 27 3 27 24 0 21 -5 25 -27 24 -28 0 -28 -1 -5 -11z"/>
<path d="M230 65 c0 -20 5 -25 25 -25 20 0 25 5 25 25 0 20 -5 25 -25 25 -20
0 -25 -5 -25 -25z"/>
<path d="M570 65 c0 -20 5 -25 25 -25 20 0 25 5 25 25 0 20 -5 25 -25 25 -20
0 -25 -5 -25 -25z"/>
<path d="M2950 65 c0 -21 5 -25 28 -24 16 1 20 3 10 6 -22 5 -24 23 -3 23 8 0
15 5 15 10 0 6 -11 10 -25 10 -20 0 -25 -5 -25 -25z"/>
<path d="M60 13 c0 -13 3 -14 12 -5 8 8 15 9 25 1 10 -9 13 -8 13 5 0 10 -9
16 -25 16 -17 0 -25 -6 -25 -17z"/>
<path d="M170 13 c0 -13 3 -14 12 -5 8 8 15 9 25 1 10 -9 13 -8 13 5 0 10 -9
16 -25 16 -17 0 -25 -6 -25 -17z"/>
<path d="M290 13 c0 -15 2 -15 9 -4 8 12 12 12 25 2 13 -11 16 -11 16 3 0 10
-9 16 -25 16 -17 0 -25 -5 -25 -17z"/>
<path d="M400 13 c0 -13 3 -14 12 -5 8 8 15 9 25 1 10 -9 13 -8 13 5 0 10 -9
16 -25 16 -17 0 -25 -6 -25 -17z"/>
<path d="M510 13 c0 -13 3 -14 12 -5 8 8 15 9 25 1 10 -9 13 -8 13 5 0 10 -9
16 -25 16 -17 0 -25 -6 -25 -17z"/>
<path d="M2440 13 c0 -13 3 -14 12 -5 8 8 15 9 25 1 10 -9 13 -8 13 5 0 10 -9
16 -25 16 -17 0 -25 -6 -25 -17z"/>
<path d="M2550 13 c0 -13 3 -14 12 -5 8 8 15 9 25 1 10 -9 13 -8 13 5 0 10 -9
16 -25 16 -17 0 -25 -6 -25 -17z"/>
<path d="M2670 13 c0 -15 2 -15 9 -4 8 12 12 12 25 2 13 -11 16 -11 16 3 0 10
-9 16 -25 16 -17 0 -25 -5 -25 -17z"/>
<path d="M2780 13 c0 -13 3 -14 12 -5 8 8 15 9 25 1 10 -9 13 -8 13 5 0 10 -9
16 -25 16 -17 0 -25 -6 -25 -17z"/>
<path d="M2890 13 c0 -13 3 -14 12 -5 8 8 15 9 25 1 10 -9 13 -8 13 5 0 10 -9
16 -25 16 -17 0 -25 -6 -25 -17z"/>
</g>
</svg>
