<?xml version="1.0" standalone="no"?>
<!DOCTYPE svg PUBLIC "-//W3C//DTD SVG 20010904//EN"
 "http://www.w3.org/TR/2001/REC-SVG-20010904/DTD/svg10.dtd">
<svg version="1.0" xmlns="http://www.w3.org/2000/svg"
 width="300.000000pt" height="300.000000pt" viewBox="0 0 300.000000 300.000000"
 preserveAspectRatio="xMidYMid meet">
<metadata>
Created by potrace 1.10, written by Peter Selinger 2001-2011
</metadata>
<g transform="translate(0.000000,300.000000) scale(0.100000,-0.100000)"
fill="#000000" stroke="none">
<path d="M1470 2621 c-17 -32 -13 -177 6 -195 8 -9 19 -16 24 -16 5 0 16 7 24
16 12 11 16 36 16 95 0 88 -10 119 -40 119 -11 0 -24 -9 -30 -19z"/>
<path d="M1033 2503 c-6 -15 20 -73 67 -150 21 -35 50 -42 70 -18 10 12 3 30
-36 100 -39 69 -52 85 -71 85 -13 0 -27 -7 -30 -17z m83 -97 c14 -26 21 -45
15 -41 -6 3 -18 21 -27 38 -9 18 -20 34 -24 37 -4 3 -10 16 -14 30 -7 24 -7
25 9 5 9 -11 28 -42 41 -69z"/>
<path d="M1866 2435 c-40 -71 -46 -88 -35 -101 25 -30 52 -12 96 66 48 84 51
113 13 118 -23 3 -31 -7 -74 -83z m50 1 c-13 -25 -27 -43 -30 -38 -5 9 43 96
50 89 3 -2 -6 -25 -20 -51z m-45 -73 c-8 -15 -10 -15 -11 -2 0 17 10 32 18 25
2 -3 -1 -13 -7 -23z"/>
<path d="M1373 2285 c-108 -23 -189 -70 -278 -160 -59 -58 -90 -99 -114 -149
-107 -225 -69 -464 106 -659 59 -65 111 -165 132 -252 7 -27 16 -94 20 -147
11 -145 -2 -138 261 -138 263 0 250 -7 261 138 14 180 59 296 155 402 72 79
105 134 133 220 70 212 12 442 -151 596 -146 138 -332 191 -525 149z m280 -42
c88 -24 189 -82 234 -133 63 -72 76 -89 100 -134 45 -87 56 -142 54 -262 -2
-128 -10 -168 -36 -172 -15 -3 -17 0 -11 25 13 48 16 226 5 273 -30 137 -148
282 -280 345 -99 46 -199 62 -296 46 -190 -33 -357 -177 -413 -358 -15 -50
-19 -88 -17 -173 1 -79 -1 -111 -10 -114 -20 -8 -24 9 -30 107 -8 138 28 255
108 357 53 67 65 79 119 115 145 96 312 124 473 78z m-13 -59 c253 -71 405
-362 320 -614 -27 -81 -51 -120 -116 -191 -109 -119 -151 -225 -179 -461 -6
-47 -7 -48 -41 -48 l-34 0 0 215 0 215 45 0 c87 0 147 87 111 162 -33 69 -119
89 -175 42 -32 -26 -56 -90 -45 -118 5 -12 0 -16 -22 -16 -28 0 -29 2 -30 47
-1 40 -6 51 -37 80 -61 55 -147 40 -182 -33 -23 -50 -13 -95 31 -133 28 -25
44 -31 79 -31 l45 0 0 -215 0 -215 -34 0 c-34 0 -35 1 -41 48 -28 233 -69 340
-176 458 -102 112 -141 207 -141 344 0 248 175 447 427 483 44 7 133 -2 195
-19z m-632 -677 l-1 -62 -7 60 c-6 54 -7 56 -10 20 -3 -40 -3 -40 -7 -7 -5 40
3 66 17 57 5 -3 9 -34 8 -68z m1001 10 c8 -11 5 -19 -12 -35 -13 -12 -25 -21
-28 -20 -2 2 2 -3 10 -9 13 -11 13 -13 -2 -13 -9 0 -21 10 -28 21 -8 16 -8 20
1 14 7 -4 10 -1 8 11 -2 12 4 20 17 22 16 3 18 1 8 -9 -18 -18 -16 -34 2 -19
22 18 18 38 -7 43 -22 4 -22 4 -2 6 12 0 27 -5 33 -12z m-657 -24 c-3 -16 -7
-22 -10 -15 -4 13 4 42 11 42 2 0 2 -12 -1 -27z m-301 -33 l6 35 1 -37 c1 -21
7 -38 12 -38 25 0 136 -140 170 -215 28 -60 53 -168 65 -280 4 -33 12 -66 17
-72 14 -18 83 -16 98 2 9 11 12 74 12 232 -1 203 -2 219 -21 234 -18 15 -19
16 0 27 10 7 19 23 19 37 0 14 5 25 10 25 6 0 10 -11 10 -24 0 -14 9 -31 21
-40 l21 -14 -21 -11 c-20 -11 -21 -18 -21 -234 0 -238 2 -247 50 -247 32 0 50
17 50 47 0 13 5 23 11 23 5 0 7 -5 4 -10 -4 -6 1 -22 9 -35 13 -19 25 -25 55
-25 21 0 43 6 48 13 6 6 16 57 23 112 21 170 57 265 140 365 65 78 83 95 99
92 13 -3 13 -1 2 12 -20 24 -9 27 18 5 17 -14 19 -19 8 -19 -9 0 -18 -8 -21
-17 -4 -10 -27 -40 -52 -68 -26 -27 -57 -67 -70 -88 -51 -79 -93 -233 -94
-342 0 -33 -5 -67 -10 -75 -7 -12 -46 -16 -210 -20 -238 -6 -240 -5 -240 84 0
30 -7 89 -15 132 -25 134 -65 216 -149 312 -31 35 -54 68 -51 73 4 5 -1 9 -9
9 -13 0 -16 11 -14 48 l1 47 7 -45 6 -45 5 35z m353 34 c3 -9 6 -21 5 -27 0
-7 -4 -2 -9 11 -11 26 -30 30 -30 5 0 -9 -3 -14 -6 -10 -10 10 4 37 20 37 7 0
17 -7 20 -16z m203 -21 c-3 -10 -5 -4 -5 12 0 17 2 24 5 18 2 -7 2 -21 0 -30z
m51 30 c-15 -2 -29 -12 -31 -21 -3 -12 -5 -10 -6 6 -1 19 4 22 32 21 29 -2 29
-2 5 -6z m-341 -35 c-3 -7 -5 -2 -5 12 0 14 2 19 5 13 2 -7 2 -19 0 -25z m-20
-25 c-3 -10 -5 -2 -5 17 0 19 2 27 5 18 2 -10 2 -26 0 -35z m130 0 c-3 -10 -5
-2 -5 17 0 19 2 27 5 18 2 -10 2 -26 0 -35z m259 29 c1 -7 0 -8 -3 -2 -2 5 -9
8 -14 4 -5 -3 -9 0 -9 6 0 15 23 7 26 -8z m46 -31 c8 12 9 12 6 0 -9 -31 -28
-23 -27 11 2 32 2 32 6 4 4 -23 7 -26 15 -15z m-338 3 c9 -8 16 -29 16 -45 0
-26 -3 -29 -34 -29 -33 0 -66 21 -66 41 0 44 53 64 84 33z m286 -3 c5 -11 10
-24 10 -30 0 -20 -33 -41 -66 -41 -30 0 -34 3 -34 27 0 54 67 86 90 44z m-400
-6 c0 -8 -4 -15 -10 -15 -5 0 -7 7 -4 15 4 8 8 15 10 15 2 0 4 -7 4 -15z m283
-29 c-4 -17 2 -32 19 -49 23 -23 23 -23 3 -39 -17 -14 -21 -31 -26 -129 l-5
-114 -2 117 c-2 105 -4 119 -21 130 -20 12 -20 12 0 26 11 7 19 25 19 41 0 23
7 41 15 41 1 0 0 -11 -2 -24z m-239 -65 c-7 -8 -44 32 -44 48 0 11 8 6 24 -14
13 -16 22 -32 20 -34z m381 19 c-10 -11 -23 -20 -28 -20 -6 0 -2 9 8 20 10 11
23 20 28 20 6 0 2 -9 -8 -20z m-180 -275 l0 -215 -25 0 -25 0 0 215 0 215 25
0 25 0 0 -215z"/>
<path d="M1686 1618 c-9 -12 -16 -27 -16 -33 1 -5 7 1 15 15 7 14 26 28 42 31
l28 7 -27 1 c-17 1 -32 -7 -42 -21z"/>
<path d="M1707 1613 c-3 -5 8 -8 23 -8 15 0 26 3 23 8 -2 4 -13 7 -23 7 -10 0
-21 -3 -23 -7z"/>
<path d="M1696 1577 c3 -10 9 -15 12 -12 3 3 0 11 -7 18 -10 9 -11 8 -5 -6z"/>
<path d="M1763 1578 c3 -9 1 -19 -6 -22 -9 -3 -9 -5 0 -5 18 -1 23 13 11 29
-8 12 -9 12 -5 -2z"/>
<path d="M1140 1536 c0 -2 9 -6 20 -9 11 -3 18 -1 14 4 -5 9 -34 13 -34 5z"/>
<path d="M1240 1530 c-9 -6 -10 -10 -3 -10 6 0 15 5 18 10 8 12 4 12 -15 0z"/>
<path d="M1867 1529 c7 -7 15 -10 18 -7 3 3 -2 9 -12 12 -14 6 -15 5 -6 -5z"/>
<path d="M713 2184 c-10 -26 7 -44 90 -91 65 -38 80 -43 93 -32 29 24 11 52
-61 95 -75 46 -112 54 -122 28z m77 -47 c0 -4 4 -5 10 -2 5 3 15 1 22 -5 7 -6
22 -17 33 -25 12 -9 4 -8 -24 4 -24 10 -53 29 -65 41 l-21 22 23 -13 c12 -8
22 -17 22 -22z"/>
<path d="M2165 2156 c-72 -43 -90 -71 -61 -95 13 -11 28 -6 93 32 83 47 100
65 90 91 -10 26 -47 18 -122 -28z m79 -1 c-10 -8 -23 -15 -28 -15 -6 0 -1 7
10 15 10 8 23 15 28 15 6 0 1 -7 -10 -15z m-44 -25 c0 -5 -2 -10 -4 -10 -2 0
-12 -3 -22 -7 -16 -6 -17 -5 -4 10 17 19 30 22 30 7z"/>
<path d="M608 1759 c-20 -11 -24 -44 -7 -55 19 -12 203 -4 211 9 11 17 10 24
-8 41 -18 19 -167 22 -196 5z"/>
<path d="M2196 1754 c-18 -17 -19 -24 -8 -41 8 -13 192 -21 211 -9 18 11 13
44 -8 56 -32 17 -177 13 -195 -6z"/>
<path d="M2052 1455 c4 -4 3 -14 -3 -22 -9 -10 -8 -13 5 -13 19 0 22 26 4 36
-7 4 -10 4 -6 -1z"/>
<path d="M792 1363 c-73 -42 -83 -50 -80 -73 2 -14 10 -26 20 -28 22 -4 167
75 175 95 6 16 -7 45 -23 50 -5 1 -46 -18 -92 -44z m39 -23 c-13 -11 -28 -20
-35 -19 -6 0 -1 5 12 11 12 6 22 15 22 20 0 4 6 8 13 8 6 -1 1 -10 -12 -20z"/>
<path d="M2100 1395 c-22 -27 -5 -49 70 -92 84 -48 114 -51 118 -13 2 22 -8
31 -81 73 -46 26 -86 47 -89 47 -3 0 -11 -7 -18 -15z m70 -43 c0 -5 10 -14 23
-20 12 -6 17 -11 11 -11 -7 -1 -22 8 -35 19 -13 10 -18 19 -11 20 6 0 12 -4
12 -8z"/>
<path d="M1272 718 c-7 -7 -12 -21 -12 -33 0 -43 13 -45 240 -45 155 0 219 3
228 12 15 15 15 51 0 66 -17 17 -439 17 -456 0z m431 -33 c1 -6 -74 -11 -205
-13 -190 -2 -221 1 -201 22 11 11 403 2 406 -9z"/>
<path d="M1366 584 c-9 -8 -16 -24 -16 -34 0 -42 25 -50 150 -50 125 0 150 8
150 50 0 42 -25 50 -150 50 -94 0 -122 -3 -134 -16z m254 -35 c0 -15 -42 -20
-139 -17 -63 2 -96 7 -98 15 -3 9 24 13 104 15 114 3 133 1 133 -13z"/>
<path d="M1438 434 c-19 -41 -1 -59 62 -59 63 0 81 18 62 59 -10 23 -18 26
-62 26 -44 0 -52 -3 -62 -26z m92 -19 c0 -16 -55 -22 -64 -6 -8 13 5 21 36 21
18 0 28 -5 28 -15z"/>
</g>
</svg>
