<?xml version="1.0" standalone="no"?>
<!DOCTYPE svg PUBLIC "-//W3C//DTD SVG 20010904//EN"
 "http://www.w3.org/TR/2001/REC-SVG-20010904/DTD/svg10.dtd">
<svg version="1.0" xmlns="http://www.w3.org/2000/svg"
 width="300.000000pt" height="300.000000pt" viewBox="0 0 300.000000 300.000000"
 preserveAspectRatio="xMidYMid meet">
<metadata>
Created by potrace 1.10, written by Peter Selinger 2001-2011
</metadata>
<g transform="translate(0.000000,300.000000) scale(0.100000,-0.100000)"
fill="#000000" stroke="none">
<path d="M1360 2857 c-3 -2 -97 -7 -210 -11 -287 -10 -442 -33 -461 -69 -6
-10 -14 -65 -18 -121 -4 -56 -11 -108 -16 -116 -5 -8 -13 -71 -17 -140 -4 -69
-12 -168 -19 -220 -6 -52 -13 -142 -15 -200 -2 -58 -8 -145 -13 -195 -6 -49
-10 -135 -10 -190 1 -200 33 -560 50 -571 5 -3 9 -24 9 -47 0 -23 7 -80 16
-127 8 -47 17 -107 20 -135 5 -69 14 -106 29 -131 7 -11 18 -65 25 -120 6 -54
18 -109 26 -122 31 -48 94 -102 119 -102 14 0 25 -4 25 -9 0 -12 122 -48 227
-66 364 -62 901 -14 1051 95 59 42 71 66 98 187 13 60 30 127 39 150 8 24 20
82 25 130 10 82 34 228 60 367 23 124 15 923 -10 1016 -8 29 -24 139 -56 390
-3 25 -9 59 -14 75 -5 17 -15 69 -21 117 -10 83 -12 88 -42 104 -46 24 -101
35 -197 40 -47 2 -94 7 -105 10 -24 7 -588 17 -595 11z m-32 -26 c6 -1 12 -4
12 -8 0 -5 -19 -8 -43 -7 -54 1 -59 2 -54 12 4 6 22 7 85 3z m29 -13 c-3 -8
-6 -5 -6 6 -1 11 2 17 5 13 3 -3 4 -12 1 -19z m90 8 c-2 -6 -14 -12 -28 -14
-19 -2 -21 -1 -9 7 13 9 13 11 0 11 -9 0 -21 -5 -26 -10 -7 -7 -11 -6 -11 5 0
11 10 14 39 13 23 -1 37 -6 35 -12z m136 7 c-7 -2 -21 -2 -30 0 -10 3 -4 5 12
5 17 0 24 -2 18 -5z m61 -1 c2 -4 -7 -8 -20 -8 -13 -1 -24 1 -24 5 0 9 38 12
44 3z m60 -14 c8 -13 13 -16 11 -8 -4 13 11 15 100 15 58 0 105 -4 105 -9 0
-5 6 -3 14 3 18 15 63 4 63 -15 0 -19 -16 -18 -23 1 -4 8 -10 15 -15 15 -6 0
-5 -9 1 -20 6 -11 20 -20 30 -20 13 0 20 7 20 20 0 11 3 20 6 20 12 0 30 -26
26 -38 -2 -8 8 -12 35 -11 37 1 38 1 8 9 -16 4 -25 8 -20 9 6 1 2 7 -7 15 -15
11 -10 12 33 12 30 -1 53 -7 58 -15 5 -7 14 -10 21 -6 16 10 85 -4 74 -15 -14
-13 -122 -28 -294 -39 -167 -12 -710 -16 -800 -7 -30 3 -115 8 -187 11 -122 4
-133 3 -133 -13 0 -9 3 -13 8 -7 11 15 52 12 63 -5 9 -12 10 -11 5 5 -6 19 -5
19 8 2 8 -10 17 -14 20 -8 8 13 146 10 146 -3 0 -7 3 -8 8 -1 4 6 16 11 27 13
19 2 19 2 2 -12 -14 -10 -15 -15 -5 -19 11 -4 11 -7 0 -15 -9 -6 -6 -11 13
-20 15 -7 25 -8 25 -2 0 6 -4 10 -10 10 -18 0 -10 15 15 26 19 9 27 9 35 -1 9
-10 6 -14 -12 -17 -21 -4 -21 -5 -4 -13 12 -5 21 -3 27 6 6 10 9 8 9 -9 0 -15
5 -22 13 -19 6 2 27 -2 46 -9 40 -17 41 -17 41 -4 0 6 -9 10 -21 10 -13 0 -18
4 -13 12 4 7 3 8 -4 4 -7 -4 -12 -2 -12 3 0 6 -5 11 -11 11 -5 0 -7 -4 -4 -10
3 -6 -1 -7 -10 -4 -9 4 -14 9 -11 11 3 3 -7 15 -21 27 l-26 23 31 0 c17 0 29
-4 26 -8 -2 -4 30 -6 72 -5 72 3 79 2 100 -21 13 -14 21 -29 18 -34 -2 -4 7
-2 22 6 15 7 34 11 43 8 9 -4 13 -3 10 1 -4 4 -22 9 -40 11 -18 3 -40 12 -48
21 -15 15 -14 16 9 9 63 -20 95 -24 105 -13 7 7 6 9 -2 4 -6 -3 -14 -3 -16 1
-7 11 245 10 261 0 6 -5 12 -4 12 1 0 6 28 10 63 10 34 0 64 1 67 2 3 1 26 3
51 5 73 6 142 14 167 19 21 5 22 2 16 -28 -4 -22 0 -44 10 -64 9 -17 16 -33
16 -37 0 -3 -21 -5 -47 -5 -25 0 -44 -3 -40 -6 11 -11 92 -6 140 9 l47 15 2
-46 c0 -26 1 -52 1 -58 0 -6 6 -11 14 -11 9 0 11 6 7 16 -3 9 -9 37 -11 64 -6
52 -4 51 -53 37 -31 -9 -37 -8 -52 11 -18 21 -25 98 -11 112 3 4 13 1 21 -6
10 -7 13 -8 9 -1 -9 15 44 26 60 13 6 -6 15 -29 18 -52 4 -23 9 -53 12 -67 2
-14 8 -38 13 -55 5 -16 8 -45 5 -62 -2 -18 0 -35 6 -38 12 -8 8 -74 -4 -82 -6
-3 -40 -14 -76 -24 -39 -10 -55 -18 -40 -18 15 -1 45 5 67 13 l40 14 5 -36 c4
-21 9 -68 13 -107 3 -38 8 -79 9 -90 2 -11 4 -34 4 -52 1 -22 7 -33 20 -38 25
-8 34 -34 19 -53 -11 -13 -11 -14 0 -8 10 6 13 2 11 -15 -2 -13 0 -29 4 -35
12 -21 -89 -56 -253 -88 -14 -2 -4 -4 23 -3 36 2 47 -1 48 -13 0 -9 4 -6 9 7
7 18 16 22 49 20 23 -2 43 2 45 8 3 6 8 5 14 -3 7 -11 11 -8 15 9 4 13 8 21
11 19 12 -13 38 -405 31 -467 -2 -21 -7 -89 -10 -151 -7 -123 -11 -142 -30
-142 -8 0 -20 -6 -27 -12 -47 -44 -85 -48 -83 -10 1 15 0 18 -2 7 -10 -42 -55
-71 -66 -42 -4 9 -6 9 -6 0 -2 -34 64 -21 171 33 65 32 68 33 64 11 -3 -12 -5
-22 -6 -22 -1 0 -4 -13 -6 -30 -5 -31 -24 -60 -24 -36 0 7 -4 9 -10 6 -16 -10
-12 -35 5 -29 8 4 15 2 15 -4 0 -11 -56 -55 -82 -65 -10 -3 -18 -12 -18 -19 0
-8 3 -9 8 -3 4 6 22 18 40 27 32 17 32 17 27 -5 -3 -12 -9 -58 -15 -102 -22
-186 -17 -173 -74 -206 -28 -16 -59 -27 -69 -25 -9 2 -15 0 -12 -4 3 -5 -1
-11 -7 -14 -7 -3 -2 -3 12 0 14 3 49 19 79 36 29 16 54 28 55 26 1 -2 -4 -23
-10 -48 -9 -34 -13 -39 -14 -20 l-2 25 -7 -25 c-4 -14 -7 -32 -6 -40 1 -8 -6
-23 -16 -34 -11 -11 -16 -22 -13 -25 4 -3 9 0 11 7 3 6 9 10 13 7 18 -11 -29
-85 -54 -85 -14 -1 -53 -30 -39 -30 5 0 27 11 47 25 20 13 36 20 36 15 0 -5
-4 -11 -9 -14 -5 -3 -7 -15 -4 -25 3 -11 -3 -28 -14 -39 -10 -11 -25 -31 -34
-44 -17 -24 -72 -55 -129 -73 -55 -17 -94 -26 -108 -23 -9 1 -24 -2 -32 -7 -8
-6 -26 -11 -40 -12 -14 -1 -41 -5 -60 -8 -19 -3 -77 -7 -128 -10 -52 -2 -108
-7 -125 -10 -24 -5 -28 -4 -17 4 17 12 10 14 -14 5 -9 -3 -14 -9 -12 -13 5 -8
-52 -6 -61 2 -10 10 -25 8 -19 -2 9 -13 -113 -5 -129 9 -11 9 -15 9 -15 1 0
-8 -5 -9 -19 -1 -12 6 -22 6 -25 1 -7 -11 -46 -2 -46 10 0 4 -9 13 -21 20 -16
8 -24 8 -33 -2 -8 -9 -8 -10 1 -5 13 7 43 -2 43 -14 0 -4 -10 -6 -22 -5 -13 1
-29 3 -36 4 -7 0 -11 5 -7 10 3 5 1 12 -5 16 -5 3 -10 1 -10 -4 0 -18 -27 -12
-35 7 -6 16 -7 16 -19 0 -13 -18 -56 -15 -56 4 0 5 -6 6 -12 2 -9 -5 -8 -2 1
9 8 10 11 20 7 24 -3 3 -6 1 -6 -5 0 -7 -7 -12 -16 -12 -8 0 -12 -5 -9 -10 3
-6 1 -10 -4 -10 -6 0 -11 7 -11 15 0 18 -16 20 -23 3 -3 -7 -4 6 -2 30 4 48
-13 73 -48 71 -20 -1 -21 -2 -2 -6 31 -8 43 -22 38 -43 -5 -20 -15 -24 -42
-20 -20 2 -41 26 -33 35 4 5 0 6 -9 2 -11 -3 -24 5 -38 24 -12 16 -17 28 -10
27 6 -2 14 4 16 12 3 10 2 11 -4 3 -5 -7 -13 -9 -19 -5 -13 8 -30 56 -18 50 5
-2 24 -10 42 -17 19 -8 54 -24 78 -36 24 -12 46 -19 49 -15 2 3 -20 17 -50 29
-30 12 -56 30 -59 39 -5 18 -18 77 -22 101 -1 7 2 25 7 40 8 23 8 24 -4 9 -14
-18 -27 -14 -27 8 0 7 7 14 15 16 13 2 12 6 -5 16 -11 7 -20 9 -19 5 4 -24 -4
-34 -10 -14 -4 14 -13 26 -21 29 -12 3 -12 1 -2 -6 7 -5 10 -16 6 -26 -5 -14
-10 -10 -20 21 -18 51 -17 59 4 41 9 -8 25 -18 34 -21 14 -5 16 1 11 51 -3 31
-9 64 -14 73 -4 9 -8 49 -8 89 0 49 -4 76 -13 81 -7 4 -9 11 -5 15 4 4 13 2
19 -4 7 -7 20 -12 31 -12 10 0 16 -3 14 -7 -3 -5 8 -8 24 -9 16 -1 32 -4 36
-7 3 -4 14 -69 25 -144 10 -76 23 -147 28 -158 7 -14 8 -4 3 35 -4 30 -7 71
-8 90 0 19 -3 37 -6 40 -3 3 -9 33 -13 68 -6 51 -4 62 8 62 19 0 32 -20 14
-21 -10 0 -10 -2 0 -6 6 -2 10 -8 7 -13 -3 -4 2 -11 10 -14 12 -4 14 0 9 20
-6 24 -5 26 17 19 13 -4 25 -8 26 -9 1 -1 11 -71 23 -156 12 -85 26 -160 31
-166 5 -6 7 -14 4 -18 -3 -3 1 -1 7 4 10 9 10 12 0 18 -6 5 -15 37 -19 72 -5
53 -4 62 8 54 21 -13 44 -15 32 -3 -6 6 -19 11 -30 12 -17 1 -21 10 -26 62 -4
33 -9 74 -13 92 l-6 32 33 -9 c41 -12 39 -12 39 0 0 6 -11 10 -25 10 -14 0
-25 4 -25 10 0 5 -6 7 -14 4 -21 -8 -197 36 -203 51 -2 8 -11 11 -18 9 -7 -3
-27 2 -44 10 -39 21 -39 21 -33 -11 5 -25 6 -25 13 -8 6 17 8 16 8 -8 1 -16 5
-26 11 -22 5 3 7 -11 4 -37 -3 -24 0 -63 6 -88 7 -25 15 -67 17 -95 l5 -50
-20 23 c-19 21 -26 46 -37 127 -9 73 -27 181 -32 195 -4 8 -7 20 -8 25 0 6 -6
23 -13 38 -15 35 -15 50 -1 64 6 6 8 21 4 34 -4 12 -8 43 -10 68 -11 238 -20
361 -25 336 l-7 -30 -8 29 c-6 23 -4 32 10 42 15 11 17 27 14 121 -1 59 1 121
6 137 5 19 4 36 -5 49 -11 18 -10 19 6 13 15 -6 13 -2 -5 18 -14 15 -19 26
-12 26 9 0 11 12 7 41 -3 22 -8 45 -12 51 -4 6 1 6 14 -1 30 -16 46 -14 30 3
-7 8 -15 14 -18 14 -16 -1 -20 3 -15 13 4 5 8 34 8 64 1 35 8 60 20 73 10 11
17 23 16 28 -1 5 1 17 6 27 4 10 5 21 1 24 -3 4 -6 -1 -6 -10 0 -10 -4 -17 -9
-17 -5 0 -11 -8 -14 -17 -2 -10 -4 -2 -3 18 1 21 4 35 8 33 3 -2 13 3 22 12
12 11 13 20 6 33 -18 35 29 44 53 11 13 -18 15 -19 21 -5 3 10 13 14 23 12 10
-3 35 -8 56 -12 l39 -6 -7 -72 c-4 -40 -10 -115 -14 -167 l-6 -95 -36 3 c-22
2 -40 -2 -44 -9 -6 -8 -1 -10 18 -7 14 3 25 2 25 -1 -1 -3 2 -16 6 -29 6 -19
10 -21 22 -11 8 6 14 17 14 23 0 6 -5 4 -10 -4 -9 -13 -11 -13 -20 0 -7 12 -4
16 17 18 15 2 29 0 30 -5 2 -5 22 -7 44 -5 25 3 45 -1 52 -8 9 -10 9 -11 0 -6
-7 4 -13 2 -13 -3 0 -6 7 -11 15 -11 8 0 15 5 15 11 0 7 11 9 27 6 15 -3 38
-1 51 4 20 8 23 7 18 -7 -5 -13 -4 -14 7 -6 8 7 17 9 20 6 3 -4 9 6 13 20 3
15 4 30 0 33 -3 4 -6 -4 -6 -16 0 -26 -31 -26 -37 -1 -4 13 -3 13 6 0 7 -9 11
-10 11 -3 0 6 -4 14 -9 17 -5 4 -8 17 -6 31 3 27 -10 43 -18 22 -2 -7 -3 -29
-2 -50 l3 -37 -81 5 c-111 7 -117 10 -117 49 0 46 21 300 26 305 2 2 19 0 40
-3 29 -6 35 -11 31 -26 -3 -11 1 -27 9 -37 8 -10 14 -13 13 -8 -5 34 3 62 16
62 8 0 15 -4 15 -9 0 -4 10 -8 23 -7 21 0 21 1 2 9 -20 9 -20 9 0 9 11 0 25
-3 30 -7 14 -10 17 -64 3 -56 -6 4 -9 1 -7 -5 8 -22 24 -11 22 15 -1 13 3 24
8 24 6 0 7 5 4 10 -4 6 8 10 29 10 22 0 36 -5 36 -12 0 -9 3 -10 8 -2 8 13 72
15 72 2 0 -4 -4 -8 -10 -8 -5 0 -10 -5 -10 -11 0 -5 5 -7 10 -4 6 4 10 -5 10
-19 0 -14 -5 -25 -11 -24 -6 2 -13 -5 -14 -14 -2 -10 0 -18 3 -18 19 1 29 19
29 51 0 20 6 43 13 51 13 13 17 12 33 -6 10 -12 16 -15 12 -8 -5 9 8 12 49 12
46 0 56 -3 57 -17 1 -17 2 -17 6 0 4 14 16 17 63 17 59 0 59 0 50 -24 -5 -13
-7 -26 -4 -28 10 -10 13 -288 3 -288 -6 0 -8 10 -4 23 6 21 5 21 -6 2 -7 -11
-19 -26 -26 -33 -11 -11 -13 -11 -13 0 0 11 -2 11 -9 0 -4 -7 -12 -12 -17 -10
-5 2 -9 -1 -9 -7 0 -9 7 -9 50 -1 6 1 20 7 31 14 12 6 23 9 25 7 3 -2 3 13 2
33 -7 96 -7 230 0 225 4 -2 7 1 7 6 0 6 -4 11 -9 11 -5 0 -8 15 -7 33 2 24 8
33 24 35 12 2 22 -1 22 -7 0 -6 -8 -11 -17 -11 -10 0 -14 -4 -8 -8 6 -4 12
-16 13 -27 6 -33 12 -31 12 5 0 28 2 31 15 20 10 -9 15 -9 15 -1 0 6 -4 11
-10 11 -5 0 -10 5 -10 10 0 6 24 11 53 11 28 1 43 4 33 6 -18 5 -18 6 5 24
l24 18 -23 -6 c-13 -3 -26 -12 -29 -19 -6 -16 -23 -19 -23 -5 0 5 6 16 14 24
9 9 11 19 5 28 -5 8 -9 12 -10 9 -6 -34 -9 -43 -19 -55 -16 -19 -50 -19 -50
-1 0 8 5 18 10 21 6 4 8 11 5 16 -4 5 -1 9 5 9 6 0 8 5 4 11 -4 8 -9 7 -15 -2
-6 -10 -9 -11 -9 -1 0 6 -7 12 -17 12 -13 0 -11 -4 7 -20 20 -18 20 -24 -1
-22 -4 1 -6 -6 -5 -16 1 -12 -8 -18 -31 -20 -28 -3 -32 0 -27 15 5 17 5 17 -6
1 -13 -21 -46 -24 -53 -5 -3 8 1 14 9 14 7 0 10 -5 7 -10 -3 -5 0 -7 8 -5 8 3
13 12 11 22 -2 9 1 16 6 16 5 0 10 12 10 26 0 31 14 47 38 42 17 -3 17 -5 -4
-26 -13 -13 -21 -27 -17 -30 4 -4 12 1 19 11 30 49 33 52 49 39 12 -10 16 -10
19 -1 2 7 11 10 21 6 10 -4 14 -12 11 -22 -3 -8 -11 -12 -17 -8 -6 3 -7 1 -3
-6 5 -8 12 -9 20 -2 7 6 17 6 26 1 21 -14 30 -12 30 4 0 8 7 17 15 20 18 6 17
-23 0 -37 -6 -5 -4 -7 4 -5 16 5 28 68 13 68 -5 0 -17 -9 -27 -20 -20 -22 -49
-27 -43 -8 2 6 12 12 22 14 23 3 42 21 32 31 -4 4 -10 2 -14 -4 -9 -14 -22
-16 -99 -14 l-63 1 -2 53 -2 52 -3 -52 c-4 -51 -5 -53 -33 -53 -23 0 -32 -7
-46 -35 -9 -19 -20 -32 -25 -29 -15 9 -10 31 8 38 13 5 14 9 4 19 -9 9 -14 9
-21 -3 -5 -8 -10 -10 -10 -5 0 6 -10 15 -22 20 -15 7 -22 17 -20 30 2 16 1 17
-7 5 -6 -9 -26 -15 -48 -16 -30 0 -40 5 -45 20 -6 18 -7 18 -5 -4 2 -26 4 -26
80 -29 16 -1 27 -7 27 -15 0 -8 5 -18 12 -22 7 -4 8 -3 4 4 -4 7 -3 12 3 12
20 0 22 -22 4 -42 -10 -12 -12 -18 -6 -14 7 4 20 3 29 -2 14 -8 14 -10 0 -21
-13 -11 -16 -11 -16 0 0 11 -2 11 -10 -1 -14 -22 -12 -29 9 -27 11 0 18 4 16
8 -8 11 34 42 60 45 32 3 23 -12 -18 -30 -18 -8 -26 -15 -19 -15 6 -1 12 -5
12 -11 0 -6 -32 -10 -76 -10 -54 0 -73 3 -68 12 4 7 3 8 -4 4 -7 -4 -12 -2
-12 3 0 6 7 11 15 11 8 0 15 5 15 10 0 22 -33 5 -43 -23 -4 -12 -14 -16 -29
-13 -13 3 -81 8 -153 11 -71 4 -133 9 -137 11 -4 3 -5 11 -1 19 3 8 0 15 -7
15 -6 0 -8 -5 -5 -10 12 -19 -27 -23 -117 -10 -67 10 -95 19 -110 34 -11 12
-18 17 -16 11 2 -5 -2 -10 -7 -10 -6 0 -9 11 -7 23 2 13 -1 22 -5 19 -5 -3 -8
12 -8 34 0 28 4 38 13 34 8 -3 23 -5 35 -5 17 0 19 -2 8 -9 -8 -5 -21 -7 -29
-3 -10 4 -13 1 -8 -7 5 -7 14 -10 22 -7 8 3 14 0 13 -7 -3 -23 1 -37 11 -37 5
0 7 13 4 30 -6 26 -4 30 15 30 11 0 21 -5 21 -11 0 -6 -7 -9 -15 -5 -9 3 -15
0 -15 -9 0 -9 8 -14 22 -12 14 1 23 -4 26 -15 2 -10 -2 -18 -8 -18 -6 0 -9 4
-5 9 3 5 0 13 -6 17 -9 5 -10 0 -7 -14 4 -12 2 -22 -3 -22 -5 0 -9 -4 -9 -8 0
-10 72 -34 79 -27 2 3 -1 5 -8 5 -7 0 -9 5 -6 10 4 6 11 7 17 4 7 -4 8 -2 4 5
-6 9 -11 9 -21 1 -21 -17 -39 -2 -20 16 16 17 20 34 7 34 -5 0 -14 11 -20 24
-7 16 -22 26 -49 31 -40 7 -63 21 -63 37 0 5 9 7 19 3 17 -5 20 -1 19 25 -1
17 -8 35 -17 41 -13 8 -11 9 9 5 14 -3 33 -6 43 -6 9 0 17 -8 18 -17 0 -11 3
-13 6 -5 6 14 126 6 131 -9 4 -11 22 -1 22 12 0 5 -19 9 -43 9 -32 0 -44 4
-44 15 0 8 4 15 9 15 4 0 8 5 8 11 0 5 -4 7 -10 4 -5 -3 -10 -1 -10 5 0 6 -5
8 -11 4 -8 -5 -8 -8 0 -14 9 -5 9 -9 -1 -17 -14 -11 -91 -5 -83 7 2 4 -8 5
-23 3 -26 -3 -27 -3 -3 7 19 8 21 13 11 25 -14 16 -25 20 -15 6 3 -5 2 -12 -3
-15 -10 -6 -13 19 -6 52 2 12 12 22 22 22 10 0 13 3 6 8 -14 9 -24 38 -17 46
4 3 11 2 17 -3 23 -17 75 -19 176 -6 58 8 186 17 285 20 99 3 225 7 280 10 55
3 126 5 159 5 51 0 57 2 46 15 -10 12 -10 15 3 15 8 0 22 -10 31 -22z m-607 6
c-3 -3 -29 -8 -59 -10 -29 -2 -82 -9 -117 -15 -35 -5 -66 -8 -69 -5 -12 12 30
19 222 33 16 1 26 0 23 -3z m132 2 c-10 -8 -89 -13 -89 -5 0 5 21 9 47 9 25 0
44 -2 42 -4z m-394 -35 c-7 -12 -45 -21 -45 -11 0 12 33 30 42 23 5 -2 6 -8 3
-12z m330 -80 c-3 -6 -16 -11 -28 -11 -21 1 -21 1 3 15 27 14 36 13 25 -4z
m314 -312 c-23 -14 -31 2 -12 23 16 18 18 19 21 3 2 -10 -2 -21 -9 -26z m855
-64 c3 -22 8 -65 11 -95 3 -30 13 -77 21 -104 15 -47 13 -76 -4 -76 -5 0 -17
68 -27 152 -9 84 -20 159 -23 168 -3 11 -2 12 6 5 7 -6 14 -28 16 -50z m-1677
13 c-3 -7 -5 -2 -5 12 0 14 2 19 5 13 2 -7 2 -19 0 -25z m1739 -611 c7 -169 7
-134 4 -242 -3 -65 -5 -40 -10 95 -4 102 -10 219 -14 260 -4 53 -3 68 4 52 5
-12 12 -87 16 -165z m-1783 -59 c4 -41 2 -55 -6 -52 -8 3 -11 24 -9 60 5 68 9
66 15 -8z m5 -251 c1 -29 4 -65 7 -82 5 -23 4 -26 -4 -14 -6 9 -13 52 -16 95
-2 44 -1 73 4 66 4 -7 9 -36 9 -65z m12 -137 c0 -11 -2 -20 -4 -20 -2 0 -6 9
-9 20 -3 11 -1 20 4 20 5 0 9 -9 9 -20z m1757 -32 c-3 -7 -5 -2 -5 12 0 14 2
19 5 13 2 -7 2 -19 0 -25z m0 -65 c-3 -10 -5 -2 -5 17 0 19 2 27 5 18 2 -10 2
-26 0 -35z m-1747 -6 c0 -20 -1 -20 -16 -5 -9 9 -13 21 -9 27 10 16 25 3 25
-22z m4 -77 c-6 -5 -24 21 -24 34 0 6 6 1 14 -10 8 -10 12 -21 10 -24z m26
-140 c0 -5 -5 -10 -11 -10 -5 0 -7 5 -4 10 3 6 8 10 11 10 2 0 4 -4 4 -10z m7
-82 c-3 -8 -6 -5 -6 6 -1 11 2 17 5 13 3 -3 4 -12 1 -19z m20 -150 c-3 -8 -6
-5 -6 6 -1 11 2 17 5 13 3 -3 4 -12 1 -19z m11 -43 c-3 -3 -9 2 -12 12 -6 14
-5 15 5 6 7 -7 10 -15 7 -18z m62 -150 c7 -8 9 -15 4 -15 -5 0 -2 -6 6 -13 8
-7 16 -17 17 -24 2 -6 6 -31 9 -55 7 -38 6 -42 -8 -30 -18 15 -43 106 -33 122
3 5 -1 10 -9 10 -9 0 -16 5 -16 10 0 15 16 12 30 -5z m-6 -90 c3 -8 1 -15 -3
-15 -5 0 -11 7 -15 15 -3 8 -1 15 3 15 5 0 11 -7 15 -15z"/>
<path d="M1755 2802 c6 -5 32 -12 59 -15 32 -3 44 -2 34 4 -23 13 -105 22 -93
11z"/>
<path d="M1882 2788 c-12 -5 -8 -7 13 -7 17 0 36 3 44 8 17 11 -29 10 -57 -1z"/>
<path d="M2130 2780 c0 -5 5 -10 11 -10 5 0 7 5 4 10 -3 6 -8 10 -11 10 -2 0
-4 -4 -4 -10z"/>
<path d="M1418 2743 c7 -3 16 -2 19 1 4 3 -2 6 -13 5 -11 0 -14 -3 -6 -6z"/>
<path d="M747 2723 c-11 -11 -8 -21 9 -27 13 -5 14 -4 6 7 -7 8 -9 17 -5 20 3
4 4 7 1 7 -2 0 -8 -3 -11 -7z"/>
<path d="M707 2713 c-11 -11 -8 -20 7 -20 8 0 12 6 9 14 -6 15 -7 15 -16 6z"/>
<path d="M943 2709 c3 -9 2 -20 -1 -25 -4 -5 -5 -8 -3 -7 2 2 11 -3 19 -10 13
-10 14 -9 7 3 -5 8 -10 21 -11 28 -2 8 -6 17 -10 20 -4 4 -5 0 -1 -9z"/>
<path d="M1011 2701 c-6 -10 -7 -21 -4 -25 13 -13 21 -5 19 19 -1 30 -2 30
-15 6z"/>
<path d="M970 2701 c0 -5 5 -13 10 -16 6 -3 10 -2 10 4 0 5 -4 13 -10 16 -5 3
-10 2 -10 -4z"/>
<path d="M1042 2706 c3 -4 2 -21 -2 -37 -7 -22 -6 -29 3 -26 16 5 19 55 4 63
-7 4 -9 4 -5 0z"/>
<path d="M2227 2696 c-3 -8 0 -22 7 -31 10 -14 12 -12 14 14 2 32 -11 42 -21
17z"/>
<path d="M838 2693 c6 -2 18 -2 25 0 6 3 1 5 -13 5 -14 0 -19 -2 -12 -5z"/>
<path d="M1350 2696 c0 -2 7 -7 16 -10 8 -3 12 -2 9 4 -6 10 -25 14 -25 6z"/>
<path d="M2175 2688 c-9 -22 4 -43 17 -30 7 7 7 16 0 29 -10 17 -11 17 -17 1z"/>
<path d="M747 2681 c6 -7 9 -20 6 -27 -3 -8 -3 -14 0 -14 14 0 14 30 -1 41
-14 11 -15 11 -5 0z"/>
<path d="M1066 2681 c-4 -5 -2 -12 3 -15 5 -4 12 -2 15 3 4 5 2 12 -3 15 -5 4
-12 2 -15 -3z"/>
<path d="M1570 2673 c14 -10 28 -17 33 -15 4 1 7 -2 7 -8 0 -5 6 -7 14 -4 7 3
25 -9 40 -26 14 -17 26 -27 26 -21 0 25 -64 68 -86 59 -3 -2 -10 5 -15 15 -6
9 -18 17 -27 17 -12 0 -10 -4 8 -17z"/>
<path d="M850 2670 c-9 -6 -10 -10 -3 -10 6 0 15 5 18 10 8 12 4 12 -15 0z"/>
<path d="M1534 2654 c9 -8 16 -19 16 -24 0 -5 7 -7 15 -4 8 4 15 2 15 -4 0 -6
-6 -13 -12 -15 -10 -4 -10 -6 -1 -6 25 -2 24 21 -2 45 -28 26 -56 34 -31 8z"/>
<path d="M923 2631 c-1 -14 1 -19 4 -11 3 8 10 20 14 26 5 6 4 11 -4 11 -7 0
-13 -12 -14 -26z"/>
<path d="M1364 2648 c-4 -7 -4 -10 1 -6 4 4 17 2 29 -4 19 -10 20 -10 7 5 -16
20 -27 21 -37 5z"/>
<path d="M977 2618 c20 -23 24 -23 16 0 -6 15 -4 15 15 -2 20 -17 22 -18 22
-2 0 9 -4 15 -9 11 -5 -3 -12 -1 -16 4 -3 5 -14 9 -25 8 -18 -1 -18 -2 -3 -19z"/>
<path d="M1060 2621 c0 -11 29 -35 35 -29 2 2 -4 12 -15 21 -11 9 -20 13 -20
8z"/>
<path d="M1115 2620 c-3 -5 -1 -10 4 -10 6 0 11 5 11 10 0 6 -2 10 -4 10 -3 0
-8 -4 -11 -10z"/>
<path d="M1245 2610 c1 -13 7 -26 13 -28 16 -5 15 10 -1 33 -13 17 -14 16 -12
-5z"/>
<path d="M1485 2620 c-3 -6 1 -7 9 -4 18 7 21 14 7 14 -6 0 -13 -4 -16 -10z"/>
<path d="M1825 2620 c-3 -6 1 -7 9 -4 18 7 21 14 7 14 -6 0 -13 -4 -16 -10z"/>
<path d="M1155 2610 c-3 -6 1 -7 9 -4 18 7 21 14 7 14 -6 0 -13 -4 -16 -10z"/>
<path d="M1130 2591 c0 -11 -19 -13 -102 -8 -57 3 -95 3 -85 1 10 -3 14 -10
10 -17 -5 -9 -3 -9 8 -1 8 5 21 10 29 9 8 -1 32 -3 54 -3 37 -2 38 -3 34 -32
-3 -16 -1 -30 4 -30 4 0 8 13 8 28 0 22 5 28 26 30 24 2 25 0 23 -54 -2 -48
-5 -55 -21 -51 -11 3 -24 -3 -31 -14 -8 -10 -17 -16 -20 -12 -4 3 -7 1 -7 -5
0 -17 16 -15 35 4 9 9 18 14 21 11 9 -9 -22 -48 -31 -39 -5 4 -5 2 -1 -5 4 -7
13 -10 21 -7 8 4 12 10 9 15 -3 5 -1 9 5 9 5 0 13 -5 17 -11 4 -8 9 -7 15 2 7
12 10 12 21 0 10 -10 10 -12 1 -7 -7 4 -13 2 -13 -3 0 -6 7 -11 15 -11 8 0 15
5 15 11 0 6 7 8 15 5 8 -3 22 -9 32 -13 11 -4 14 -3 9 5 -4 7 -3 12 3 12 5 0
11 -6 14 -12 2 -7 17 -13 33 -13 22 0 28 -4 26 -17 -2 -12 2 -16 13 -12 8 3
15 1 15 -6 0 -6 4 -9 10 -5 5 3 7 12 4 20 -4 8 -10 12 -15 9 -5 -3 -9 -1 -9 4
0 6 8 13 17 16 15 6 15 8 3 16 -9 6 -17 5 -22 -3 -4 -6 -10 -8 -14 -4 -4 3 -2
13 4 20 12 14 6 27 -12 27 -7 0 -7 -3 1 -8 8 -5 8 -12 -2 -25 -12 -17 -16 -17
-49 -3 -23 10 -36 11 -36 4 0 -7 -5 -6 -14 2 -8 6 -12 18 -10 25 4 9 -5 15
-28 17 -18 2 -32 6 -30 11 1 4 2 28 2 53 0 37 3 45 15 40 9 -3 67 -6 130 -7
97 -1 115 -3 118 -17 4 -15 5 -15 6 1 1 15 14 17 115 17 87 0 116 -3 126 -15
6 -8 9 -18 6 -24 -3 -5 1 -11 9 -14 15 -6 11 16 -7 39 -10 14 31 19 162 23 47
1 112 6 145 11 53 8 49 8 -30 4 -49 -2 -213 -7 -362 -10 -219 -4 -273 -2 -273
8 0 10 -2 10 -9 -1 -6 -10 -24 -12 -70 -7 -79 8 -85 9 -93 21 -5 6 -8 5 -8 -4z
m38 -146 c23 0 13 -18 -12 -21 -18 -2 -23 2 -21 14 2 9 4 19 4 22 1 3 5 1 9
-5 4 -5 13 -10 20 -10z"/>
<path d="M735 2570 c5 -8 11 -24 12 -34 5 -31 10 -30 15 3 3 17 2 29 0 26 -3
-3 -12 1 -20 8 -13 10 -14 9 -7 -3z"/>
<path d="M2122 2550 c0 -14 2 -19 5 -12 2 6 2 18 0 25 -3 6 -5 1 -5 -13z"/>
<path d="M2225 2560 c-3 -6 1 -7 9 -4 18 7 21 14 7 14 -6 0 -13 -4 -16 -10z"/>
<path d="M889 2530 c-7 -35 -4 -48 7 -38 3 4 4 21 2 40 l-3 33 -6 -35z"/>
<path d="M976 2545 c-10 -27 -6 -31 10 -10 15 19 16 18 10 -17 -4 -21 -3 -38
1 -38 5 0 8 16 8 37 0 38 -18 55 -29 28z"/>
<path d="M1251 2534 c0 -11 3 -14 6 -6 3 7 2 16 -1 19 -3 4 -6 -2 -5 -13z"/>
<path d="M1304 2523 c2 -16 6 -29 9 -30 4 -2 7 -1 7 2 0 3 0 16 0 30 0 14 -4
25 -9 25 -5 0 -8 -12 -7 -27z"/>
<path d="M1770 2540 c0 -5 5 -10 11 -10 5 0 7 5 4 10 -3 6 -8 10 -11 10 -2 0
-4 -4 -4 -10z"/>
<path d="M806 2527 c3 -10 9 -15 12 -12 3 3 0 11 -7 18 -10 9 -11 8 -5 -6z"/>
<path d="M840 2529 c-13 -9 -12 -10 3 -5 12 4 17 0 18 -17 1 -18 2 -19 6 -3 6
24 -8 38 -27 25z"/>
<path d="M1102 2520 c0 -14 2 -19 5 -12 2 6 2 18 0 25 -3 6 -5 1 -5 -13z"/>
<path d="M1434 2503 c-1 -37 10 -33 19 8 4 17 2 26 -6 26 -7 0 -12 -15 -13
-34z"/>
<path d="M1492 2520 c0 -14 2 -19 5 -12 2 6 2 18 0 25 -3 6 -5 1 -5 -13z"/>
<path d="M1614 2531 c4 -5 3 -16 0 -25 -5 -14 -9 -14 -22 -4 -12 10 -16 10
-19 0 -3 -6 -9 -10 -14 -7 -5 4 -6 -1 -2 -11 6 -15 7 -15 15 1 9 15 11 15 29
-1 10 -9 19 -15 20 -13 7 46 7 69 -2 69 -5 0 -8 -4 -5 -9z"/>
<path d="M1901 2524 c0 -11 3 -14 6 -6 3 7 2 16 -1 19 -3 4 -6 -2 -5 -13z"/>
<path d="M770 2520 c0 -5 5 -10 11 -10 5 0 7 5 4 10 -3 6 -8 10 -11 10 -2 0
-4 -4 -4 -10z"/>
<path d="M1026 2504 c4 -20 0 -27 -16 -31 -11 -3 -20 -10 -20 -15 0 -5 5 -6
10 -3 6 3 10 -3 10 -14 0 -12 4 -21 9 -21 6 0 8 -9 6 -19 -3 -18 -1 -19 20 -9
18 8 21 13 12 23 -7 7 -16 12 -21 12 -5 -1 -11 4 -13 11 -3 6 2 12 11 12 9 0
17 5 17 10 1 6 2 16 3 23 3 16 -13 47 -24 47 -5 0 -7 -12 -4 -26z m19 -34 c-3
-5 -11 -10 -16 -10 -6 0 -7 5 -4 10 3 6 11 10 16 10 6 0 7 -4 4 -10z"/>
<path d="M1741 2513 c-1 -14 -9 -23 -23 -26 l-23 -4 23 -2 c24 -1 38 19 29 41
-3 7 -6 3 -6 -9z"/>
<path d="M2225 2520 c-3 -5 -2 -10 4 -10 5 0 13 5 16 10 3 6 2 10 -4 10 -5 0
-13 -4 -16 -10z"/>
<path d="M1220 2505 c-7 -9 -8 -15 -2 -15 5 0 12 7 16 15 3 8 4 15 2 15 -2 0
-9 -7 -16 -15z"/>
<path d="M1412 2490 c0 -19 2 -27 5 -17 2 9 2 25 0 35 -3 9 -5 1 -5 -18z"/>
<path d="M1463 2500 c1 -11 5 -20 9 -20 3 0 6 9 5 20 -1 11 -5 20 -9 20 -3 0
-6 -9 -5 -20z"/>
<path d="M1710 2509 c0 -5 5 -7 10 -4 6 3 10 8 10 11 0 2 -4 4 -10 4 -5 0 -10
-5 -10 -11z"/>
<path d="M1782 2499 c-2 -28 -24 -54 -35 -42 -4 3 -7 1 -7 -6 0 -8 8 -10 23
-5 l22 6 -24 -26 c-14 -14 -22 -28 -19 -31 2 -3 14 9 27 26 16 22 21 40 18 67
-2 25 -4 28 -5 11z"/>
<path d="M2121 2504 c0 -11 3 -14 6 -6 3 7 2 16 -1 19 -3 4 -6 -2 -5 -13z"/>
<path d="M1968 2498 c5 -5 16 -8 23 -6 8 3 3 7 -10 11 -17 4 -21 3 -13 -5z"/>
<path d="M800 2489 c0 -5 5 -7 10 -4 6 3 10 8 10 11 0 2 -4 4 -10 4 -5 0 -10
-5 -10 -11z"/>
<path d="M1655 2489 c-4 -6 -4 -13 -1 -16 3 -4 6 -1 6 6 0 7 5 9 12 5 7 -4 8
-3 4 4 -9 15 -13 15 -21 1z"/>
<path d="M1806 2492 c-3 -5 1 -9 9 -9 8 0 15 4 15 9 0 4 -4 8 -9 8 -6 0 -12
-4 -15 -8z"/>
<path d="M1902 2480 c0 -14 2 -19 5 -12 2 6 2 18 0 25 -3 6 -5 1 -5 -13z"/>
<path d="M926 2481 c-4 -6 -5 -15 -1 -21 8 -13 -5 -61 -16 -55 -4 3 -6 12 -2
20 3 8 0 15 -7 15 -8 0 -10 -9 -5 -27 4 -16 8 -30 10 -31 9 -9 25 11 26 31 0
19 1 20 8 4 4 -10 11 -18 15 -17 5 1 12 -3 16 -9 4 -7 11 -3 17 12 9 20 7 29
-13 52 -13 15 -24 24 -24 19 0 -5 -4 -3 -9 5 -6 9 -11 10 -15 2z m54 -45 c9
-12 9 -16 1 -16 -7 0 -9 -4 -6 -10 3 -6 -1 -7 -10 -4 -12 5 -13 9 -4 20 10 12
8 13 -7 8 -10 -4 -16 -4 -12 1 4 4 2 15 -5 23 -10 13 -9 14 9 4 11 -6 26 -18
34 -26z"/>
<path d="M1165 2480 c3 -5 8 -10 11 -10 2 0 4 5 4 10 0 6 -5 10 -11 10 -5 0
-7 -4 -4 -10z"/>
<path d="M1861 2474 c0 -11 3 -14 6 -6 3 7 2 16 -1 19 -3 4 -6 -2 -5 -13z"/>
<path d="M2180 2480 c-13 -8 -12 -10 3 -10 9 0 20 0 24 -1 4 0 9 4 11 10 5 14
-18 14 -38 1z"/>
<path d="M2282 2476 c7 -8 15 -12 17 -11 5 6 -10 25 -20 25 -5 0 -4 -6 3 -14z"/>
<path d="M829 2470 c-1 -5 -2 -16 -3 -22 -3 -14 33 -58 46 -58 14 0 4 25 -14
32 -10 4 -15 16 -14 32 2 14 -1 26 -5 26 -5 0 -10 -4 -10 -10z"/>
<path d="M870 2473 c8 -3 7 -9 -1 -19 -10 -13 -6 -34 5 -23 11 11 10 42 -2 45
-7 1 -8 0 -2 -3z"/>
<path d="M1070 2465 c-7 -9 -8 -15 -2 -15 5 0 12 7 16 15 3 8 4 15 2 15 -2 0
-9 -7 -16 -15z"/>
<path d="M2110 2469 c0 -5 5 -7 10 -4 6 3 10 8 10 11 0 2 -4 4 -10 4 -5 0 -10
-5 -10 -11z"/>
<path d="M2153 2464 c1 -11 -5 -29 -13 -40 -9 -11 -4 -9 13 5 27 24 36 38 18
26 -5 -3 -12 3 -15 12 -3 13 -4 13 -3 -3z"/>
<path d="M2220 2449 c-7 -13 -7 -19 0 -19 5 0 10 6 11 13 0 6 4 3 9 -8 8 -19
9 -19 9 3 1 16 5 21 14 16 6 -4 8 -3 4 1 -14 16 -37 13 -47 -6z"/>
<path d="M1220 2451 c0 -12 38 -21 58 -14 13 6 13 8 -4 14 -27 11 -54 11 -54
0z"/>
<path d="M1927 2445 c3 -8 9 -12 14 -9 12 7 11 11 -5 17 -10 4 -13 1 -9 -8z"/>
<path d="M1970 2451 c0 -6 4 -13 10 -16 6 -3 7 1 4 9 -7 18 -14 21 -14 7z"/>
<path d="M690 2440 c0 -5 5 -10 11 -10 5 0 7 5 4 10 -3 6 -8 10 -11 10 -2 0
-4 -4 -4 -10z"/>
<path d="M1793 2432 c-9 -15 -8 -19 2 -19 8 0 16 9 18 19 3 10 2 18 -2 18 -3
0 -11 -8 -18 -18z"/>
<path d="M1855 2429 c-4 -5 -10 -7 -15 -4 -5 3 -12 0 -16 -6 -4 -8 -3 -9 4 -5
7 4 12 0 13 -11 0 -16 1 -16 9 2 9 20 9 20 10 0 1 -15 3 -16 7 -5 3 8 10 18
15 21 5 3 3 9 -6 12 -8 3 -18 2 -21 -4z"/>
<path d="M1900 2429 c0 -5 5 -7 10 -4 6 3 10 8 10 11 0 2 -4 4 -10 4 -5 0 -10
-5 -10 -11z"/>
<path d="M2265 2429 c-4 -6 -4 -13 -1 -16 3 -4 6 -1 6 5 0 7 5 12 11 12 5 0 7
-5 3 -12 -4 -7 -3 -8 5 -4 12 8 6 26 -9 26 -5 0 -12 -5 -15 -11z"/>
<path d="M2000 2426 c0 -2 8 -10 18 -17 15 -13 16 -12 3 4 -13 16 -21 21 -21
13z"/>
<path d="M2100 2411 c0 -6 4 -12 8 -15 5 -3 9 1 9 9 0 8 -4 15 -9 15 -4 0 -8
-4 -8 -9z"/>
<path d="M2165 2398 l-20 -21 23 12 c12 6 22 16 22 21 0 13 -2 12 -25 -12z"/>
<path d="M1803 2383 c1 -13 5 -23 9 -23 4 0 8 -8 9 -17 0 -10 3 -13 5 -6 3 6
-1 24 -10 40 -13 25 -15 26 -13 6z"/>
<path d="M1889 2386 c6 -7 8 -22 4 -31 -4 -13 -3 -16 5 -11 18 11 15 43 -4 50
-14 5 -15 4 -5 -8z"/>
<path d="M995 2380 c3 -6 -4 -14 -17 -19 l-23 -10 23 0 c12 -1 22 4 22 10 0 8
6 7 18 -2 14 -11 13 -10 -2 9 -20 23 -32 30 -21 12z"/>
<path d="M1055 2381 c-9 -15 15 -25 28 -12 9 9 7 10 -7 5 -13 -5 -17 -4 -12 4
4 7 5 12 2 12 -3 0 -7 -4 -11 -9z"/>
<path d="M1100 2371 c-7 -14 -7 -22 2 -27 7 -4 8 -3 4 4 -4 7 -3 12 3 12 5 0
13 -4 16 -10 8 -13 25 -13 25 -1 0 5 -9 13 -20 16 -11 4 -18 11 -15 16 4 5 4
9 1 9 -3 0 -10 -9 -16 -19z"/>
<path d="M1165 2373 c11 -3 26 -12 33 -21 11 -14 12 -14 12 4 0 15 2 16 9 5 5
-8 16 -11 26 -8 30 12 7 23 -47 24 -29 0 -44 -2 -33 -4z"/>
<path d="M1617 2373 c-4 -3 -7 -11 -7 -17 0 -6 5 -5 12 2 6 6 9 14 7 17 -3 3
-9 2 -12 -2z"/>
<path d="M1717 2350 c-3 -11 -3 -20 -1 -20 2 0 8 9 14 20 6 11 7 20 2 20 -6 0
-12 -9 -15 -20z"/>
<path d="M1530 2350 c-9 -6 -10 -10 -3 -10 6 0 15 5 18 10 8 12 4 12 -15 0z"/>
<path d="M2029 2336 c-6 -6 -144 -15 -233 -16 -44 0 -77 -3 -74 -6 3 -3 20 -6
36 -6 37 -1 40 -9 38 -122 0 -47 2 -86 5 -86 3 0 6 -24 8 -52 1 -29 5 -55 8
-58 6 -6 -6 276 -13 301 -4 14 11 17 103 22 118 7 139 10 149 20 8 7 -19 10
-27 3z"/>
<path d="M755 2319 c-4 -6 -5 -13 -2 -16 7 -7 27 6 27 18 0 12 -17 12 -25 -2z"/>
<path d="M2151 2300 c-1 -48 10 -110 20 -110 5 0 6 6 4 13 -3 6 -9 39 -14 72
-6 42 -9 50 -10 25z"/>
<path d="M824 2286 c-5 -18 -7 -42 -3 -52 4 -11 8 -14 9 -9 5 43 10 95 7 95
-1 0 -7 -15 -13 -34z"/>
<path d="M933 2304 c-15 -16 -16 -24 -4 -24 8 0 24 30 19 35 -2 2 -9 -3 -15
-11z"/>
<path d="M720 2266 c0 -23 -3 -72 -6 -107 -4 -35 -4 -61 0 -58 3 3 8 32 11 64
3 33 11 66 18 74 10 12 9 13 -2 6 -11 -7 -13 -1 -8 28 3 21 2 37 -4 37 -5 0
-9 -20 -9 -44z"/>
<path d="M1115 2300 c-3 -5 -1 -10 4 -10 6 0 11 5 11 10 0 6 -2 10 -4 10 -3 0
-8 -4 -11 -10z"/>
<path d="M1190 2281 c0 -11 -6 -22 -12 -24 -7 -3 -3 -6 8 -6 17 -1 20 4 16 24
-5 30 -12 33 -12 6z"/>
<path d="M1357 2286 c-4 -9 -1 -18 5 -22 7 -4 8 -3 4 4 -4 7 -3 12 3 12 5 0
11 -6 14 -12 2 -7 7 -10 11 -7 3 3 -2 13 -13 23 -16 15 -19 15 -24 2z"/>
<path d="M1482 2286 c7 -7 19 -11 26 -9 16 7 8 16 -19 20 -16 2 -18 1 -7 -11z"/>
<path d="M2257 2275 c4 -17 1 -25 -7 -23 -7 2 -15 -4 -17 -12 -4 -13 -3 -13 6
0 9 13 11 12 12 -5 1 -13 4 -9 12 13 7 23 7 36 0 43 -7 7 -9 2 -6 -16z"/>
<path d="M1261 2274 c0 -11 3 -14 6 -6 3 7 2 16 -1 19 -3 4 -6 -2 -5 -13z"/>
<path d="M1701 2274 c0 -11 3 -14 6 -6 3 7 2 16 -1 19 -3 4 -6 -2 -5 -13z"/>
<path d="M1316 2263 c2 -6 -4 -14 -12 -17 -9 -3 -12 -10 -9 -16 4 -6 12 -4 21
5 9 8 20 13 25 10 5 -4 6 1 3 9 -3 9 -10 14 -14 11 -5 -3 -10 -2 -13 2 -2 5
-2 3 -1 -4z"/>
<path d="M1472 2255 c0 -16 2 -22 5 -12 2 9 2 23 0 30 -3 6 -5 -1 -5 -18z"/>
<path d="M1753 2265 c0 -8 4 -15 9 -15 4 0 8 4 8 9 0 6 -4 12 -8 15 -5 3 -9
-1 -9 -9z"/>
<path d="M918 2258 c-6 -52 -3 -64 17 -66 14 -1 16 1 7 7 -17 10 -22 43 -9 59
6 8 6 12 -2 12 -6 0 -12 -6 -13 -12z"/>
<path d="M1012 2245 c-1 -14 3 -25 8 -25 6 0 10 5 10 11 0 5 5 7 11 4 6 -4 5
2 -3 14 -17 27 -23 27 -26 -4z"/>
<path d="M1411 2259 c0 -9 2 -18 5 -21 8 -8 44 3 44 14 0 5 -8 4 -19 -2 -16
-8 -20 -6 -24 8 -4 14 -5 14 -6 1z"/>
<path d="M762 2240 c-15 -25 -15 -33 0 -24 7 5 9 1 6 -13 -3 -12 0 -20 7 -20
8 0 12 12 10 35 -4 43 -8 46 -23 22z"/>
<path d="M1147 2246 c-4 -10 1 -20 13 -26 24 -13 30 -13 30 2 0 6 -3 8 -7 4
-4 -3 -12 3 -18 15 -10 18 -13 19 -18 5z"/>
<path d="M1600 2252 c0 -6 9 -12 20 -15 11 -3 20 -3 20 -1 0 2 -9 8 -20 14
-11 6 -20 7 -20 2z"/>
<path d="M1661 2238 c0 -15 4 -30 9 -33 6 -4 8 -11 5 -16 -4 -5 -2 -9 3 -9 6
0 13 7 16 16 9 23 7 31 -4 14 -10 -16 -13 -11 -23 35 -4 15 -5 13 -6 -7z"/>
<path d="M991 2233 c-1 -12 4 -25 9 -28 12 -7 12 2 0 30 -8 19 -9 19 -9 -2z"/>
<path d="M1260 2239 c0 -5 5 -7 10 -4 6 3 10 8 10 11 0 2 -4 4 -10 4 -5 0 -10
-5 -10 -11z"/>
<path d="M1375 2229 c5 -16 4 -19 -5 -14 -9 5 -10 1 -5 -16 13 -42 20 -39 22
7 1 25 -2 44 -8 44 -6 0 -8 -9 -4 -21z"/>
<path d="M945 2230 c3 -5 8 -10 11 -10 2 0 4 5 4 10 0 6 -5 10 -11 10 -5 0 -7
-4 -4 -10z"/>
<path d="M1062 2221 c1 -9 -2 -26 -6 -38 -6 -17 -3 -23 8 -23 10 0 16 9 16 24
0 13 2 31 5 39 4 8 0 14 -9 14 -8 0 -14 -7 -14 -16z"/>
<path d="M1490 2210 c0 -17 -5 -30 -12 -30 -7 0 -5 -5 5 -11 10 -6 21 -8 24
-5 4 3 2 6 -3 6 -6 0 -8 16 -6 35 2 19 1 35 -2 35 -3 0 -6 -13 -6 -30z"/>
<path d="M1720 2220 c0 -11 2 -20 4 -20 2 0 6 9 9 20 3 11 1 20 -4 20 -5 0 -9
-9 -9 -20z"/>
<path d="M1765 2229 c-4 -6 -4 -13 -1 -16 3 -4 6 -1 6 6 0 7 5 9 12 5 7 -4 8
-3 4 4 -9 15 -13 15 -21 1z"/>
<path d="M1425 2220 c-19 -7 -19 -8 -2 -15 19 -8 31 -2 26 13 -2 5 -13 6 -24
2z"/>
<path d="M2021 2214 c0 -11 3 -14 6 -6 3 7 2 16 -1 19 -3 4 -6 -2 -5 -13z"/>
<path d="M1113 2205 c-17 -18 -16 -22 2 -22 8 0 15 9 15 19 0 21 -1 22 -17 3z"/>
<path d="M1260 2195 c-2 -29 -2 -29 -9 -5 l-7 25 -6 -27 c-3 -15 -1 -25 3 -22
5 3 9 0 9 -5 0 -6 -7 -11 -15 -11 -8 0 -15 -7 -15 -15 0 -8 6 -12 14 -9 20 8
38 48 33 75 -4 21 -5 21 -7 -6z"/>
<path d="M1570 2204 c-12 -13 -12 -18 -2 -21 6 -3 10 -9 7 -14 -4 -5 1 -6 9
-3 17 7 18 10 7 37 -7 18 -8 18 -21 1z"/>
<path d="M1626 2207 c3 -10 9 -15 12 -12 3 3 0 11 -7 18 -10 9 -11 8 -5 -6z"/>
<path d="M2049 2203 c-13 -16 -12 -17 4 -4 9 7 17 15 17 17 0 8 -8 3 -21 -13z"/>
<path d="M659 2208 c-1 -2 -2 -14 -3 -28 -2 -14 -6 -36 -11 -50 -5 -17 -4 -22
3 -15 11 11 27 95 17 95 -3 0 -5 -1 -6 -2z"/>
<path d="M958 2189 c-13 -13 -14 -19 -5 -19 10 0 11 -15 7 -59 -6 -68 -16 -84
-28 -51 l-9 24 -5 -22 c-4 -13 -1 -22 5 -22 6 0 19 -7 29 -17 11 -9 18 -11 18
-5 0 7 -5 12 -11 12 -6 0 -1 14 11 30 12 17 26 27 32 24 7 -4 8 -2 4 5 -6 9
-11 9 -22 0 -11 -9 -14 -7 -14 13 0 13 6 30 13 37 8 10 8 12 0 7 -9 -5 -10 3
-6 29 6 40 5 41 -19 14z"/>
<path d="M1315 2200 c4 -6 3 -16 -3 -23 -5 -7 -6 -23 -2 -37 6 -25 6 -25 12
-2 3 12 2 22 -4 22 -5 0 -2 7 6 16 20 20 20 34 0 34 -8 0 -12 -5 -9 -10z"/>
<path d="M2256 2193 c-6 -14 -5 -15 5 -6 7 7 10 15 7 18 -3 3 -9 -2 -12 -12z"/>
<path d="M685 2174 c0 -13 3 -24 8 -24 4 0 7 9 7 19 0 11 -3 22 -7 24 -5 3 -8
-6 -8 -19z"/>
<path d="M741 2184 c0 -11 3 -14 6 -6 3 7 2 16 -1 19 -3 4 -6 -2 -5 -13z"/>
<path d="M1174 2188 c-3 -4 9 -8 27 -8 18 0 29 3 25 7 -10 10 -46 11 -52 1z"/>
<path d="M815 2180 c-3 -5 -1 -10 4 -10 6 0 11 5 11 10 0 6 -2 10 -4 10 -3 0
-8 -4 -11 -10z"/>
<path d="M1004 2178 c3 -15 26 -23 26 -8 0 6 -4 9 -9 6 -5 -4 -12 -1 -14 4 -3
6 -4 5 -3 -2z"/>
<path d="M1615 2168 c10 -30 13 -34 25 -22 6 6 2 16 -11 28 -20 17 -21 17 -14
-6z"/>
<path d="M1728 2183 c7 -3 16 -2 19 1 4 3 -2 6 -13 5 -11 0 -14 -3 -6 -6z"/>
<path d="M1880 2181 c0 -6 4 -13 10 -16 6 -3 7 1 4 9 -7 18 -14 21 -14 7z"/>
<path d="M1921 2174 c0 -11 3 -14 6 -6 3 7 2 16 -1 19 -3 4 -6 -2 -5 -13z"/>
<path d="M886 2172 c-4 -7 -4 -12 1 -13 4 0 16 -2 26 -4 10 -2 17 3 17 12 0
12 -3 13 -14 4 -11 -9 -15 -9 -18 1 -3 9 -6 9 -12 0z"/>
<path d="M1150 2168 c0 -13 7 -17 24 -16 14 1 22 6 20 10 -3 5 -10 5 -16 2 -6
-4 -14 0 -19 7 -7 11 -9 10 -9 -3z"/>
<path d="M1350 2162 c6 -13 9 -28 6 -35 -3 -8 -5 -7 -5 2 -1 11 -5 10 -15 -5
-8 -10 -13 -30 -10 -44 5 -20 3 -22 -5 -10 -9 13 -11 12 -11 -5 0 -17 -2 -18
-11 -5 -8 12 -10 12 -7 1 2 -8 14 -16 26 -17 16 -3 23 3 28 22 4 17 2 30 -7
36 -11 8 -10 9 3 4 29 -9 40 25 17 54 -19 24 -20 24 -9 2z"/>
<path d="M2171 2145 c-1 -54 10 -115 21 -115 5 0 6 5 3 10 -4 6 -10 41 -15 78
-5 48 -8 56 -9 27z"/>
<path d="M1081 2153 c-16 -17 -11 -25 8 -14 7 5 12 13 10 19 -2 6 -10 4 -18
-5z"/>
<path d="M1673 2149 c12 -19 27 -16 27 4 0 7 -8 13 -19 13 -15 0 -16 -4 -8
-17z"/>
<path d="M750 2140 c-9 -16 -8 -18 5 -14 8 4 15 12 15 20 0 20 -7 17 -20 -6z"/>
<path d="M798 2153 c7 -3 16 -2 19 1 4 3 -2 6 -13 5 -11 0 -14 -3 -6 -6z"/>
<path d="M1471 2144 c0 -11 3 -14 6 -6 3 7 2 16 -1 19 -3 4 -6 -2 -5 -13z"/>
<path d="M1594 2149 c-3 -6 -1 -16 4 -21 8 -8 11 -5 9 11 -1 24 -3 25 -13 10z"/>
<path d="M1950 2155 c0 -5 5 -17 10 -25 5 -8 10 -10 10 -5 0 6 -5 17 -10 25
-5 8 -10 11 -10 5z"/>
<path d="M1410 2130 c0 -11 0 -22 0 -25 0 -3 3 -5 7 -5 3 0 7 11 9 25 1 14 -2
25 -7 25 -5 0 -9 -9 -9 -20z"/>
<path d="M1496 2142 c-3 -5 1 -9 9 -9 8 0 12 4 9 9 -3 4 -7 8 -9 8 -2 0 -6 -4
-9 -8z"/>
<path d="M1726 2138 c3 -4 12 -20 20 -36 l14 -27 -2 37 c-1 28 -6 36 -19 35
-10 -1 -15 -5 -13 -9z"/>
<path d="M801 2123 c0 -11 3 -13 6 -5 2 6 10 9 15 6 7 -4 8 -2 4 4 -11 18 -26
14 -25 -5z"/>
<path d="M911 2118 c1 -19 2 -20 6 -4 4 15 7 16 15 5 8 -12 9 -12 6 0 -7 25
-28 24 -27 -1z"/>
<path d="M1119 2138 c0 -2 -2 -21 -4 -43 -3 -33 -2 -35 5 -13 4 14 11 31 14
37 4 5 2 12 -4 16 -5 3 -10 5 -11 3z"/>
<path d="M1167 2133 c-4 -3 -7 -16 -6 -27 0 -19 1 -19 10 3 10 24 8 36 -4 24z"/>
<path d="M1192 2120 c0 -14 2 -19 5 -12 2 6 2 18 0 25 -3 6 -5 1 -5 -13z"/>
<path d="M1927 2121 c-4 -17 -3 -21 5 -13 5 5 8 16 6 23 -3 8 -7 3 -11 -10z"/>
<path d="M678 2107 c-3 -19 -2 -25 4 -19 6 6 8 18 6 28 -3 14 -5 12 -10 -9z"/>
<path d="M1570 2122 c0 -7 5 -12 12 -12 6 0 3 -7 -8 -16 -10 -8 -13 -13 -6 -9
8 4 12 -1 12 -15 0 -12 -4 -19 -9 -15 -6 3 -9 -3 -8 -14 1 -18 2 -19 17 -4 17
19 19 68 2 85 -9 9 -12 9 -12 0z"/>
<path d="M1070 2106 c0 -10 4 -15 9 -11 6 3 12 -14 14 -37 l4 -43 1 41 c1 27
-3 46 -13 54 -12 10 -15 9 -15 -4z"/>
<path d="M1680 2110 c0 -5 5 -10 10 -10 6 0 10 5 10 10 0 6 -4 10 -10 10 -5 0
-10 -4 -10 -10z"/>
<path d="M2110 2105 c0 -8 4 -15 10 -15 5 0 7 7 4 15 -4 8 -8 15 -10 15 -2 0
-4 -7 -4 -15z"/>
<path d="M761 2103 c-1 -17 16 -25 25 -12 4 7 3 9 -4 5 -5 -3 -13 0 -15 6 -4
9 -6 10 -6 1z"/>
<path d="M1239 2101 c-8 -22 3 -141 12 -135 5 3 7 31 4 62 -3 42 -2 50 5 32 8
-23 9 -22 6 9 -2 33 -20 53 -27 32z"/>
<path d="M1620 2098 c0 -4 7 -8 15 -8 8 0 15 4 15 8 0 5 -7 9 -15 9 -8 0 -15
-4 -15 -9z"/>
<path d="M2003 2091 c0 -11 5 -18 9 -15 4 3 5 11 1 19 -7 21 -12 19 -10 -4z"/>
<path d="M2268 2087 c-3 -19 -2 -25 4 -19 6 6 8 18 6 28 -3 14 -5 12 -10 -9z"/>
<path d="M651 2084 c0 -11 3 -14 6 -6 3 7 2 16 -1 19 -3 4 -6 -2 -5 -13z"/>
<path d="M805 2090 c-3 -5 -1 -10 4 -10 6 0 11 5 11 10 0 6 -2 10 -4 10 -3 0
-8 -4 -11 -10z"/>
<path d="M1713 2087 c3 -10 4 -24 0 -33 -5 -13 -8 -13 -15 -2 -8 10 -9 10 -5
-2 2 -8 10 -15 17 -15 17 0 24 51 9 61 -9 5 -10 2 -6 -9z"/>
<path d="M700 2062 c0 -19 -8 -32 -25 -43 l-26 -15 27 -27 c15 -15 30 -27 35
-27 5 0 6 -7 3 -15 -5 -12 -10 -10 -26 8 -11 12 -17 15 -13 7 4 -9 1 -8 -8 3
-12 15 -16 15 -20 3 -7 -19 62 -50 133 -61 3 0 12 -4 20 -10 13 -8 13 -7 1 8
-7 9 -20 17 -28 17 -8 0 -12 4 -9 9 3 4 -6 7 -19 5 -14 -1 -25 2 -25 7 0 5 5
9 10 9 6 0 10 5 10 11 0 5 -4 7 -10 4 -5 -3 -10 -2 -10 3 0 5 -8 12 -18 14
-10 3 -18 14 -19 25 -1 16 3 20 18 16 10 -3 17 -9 14 -13 -3 -5 4 -6 15 -3 22
6 17 23 -7 23 -12 0 -14 8 -11 35 2 19 0 35 -4 35 -4 0 -8 -12 -8 -28z"/>
<path d="M886 2074 c-23 -23 -20 -30 4 -9 11 10 20 20 20 22 0 7 -9 2 -24 -13z"/>
<path d="M1477 2079 c7 -7 15 -10 18 -7 3 3 -2 9 -12 12 -14 6 -15 5 -6 -5z"/>
<path d="M1671 2074 c0 -11 3 -14 6 -6 3 7 2 16 -1 19 -3 4 -6 -2 -5 -13z"/>
<path d="M730 2070 c0 -5 5 -10 11 -10 5 0 7 5 4 10 -3 6 -8 10 -11 10 -2 0
-4 -4 -4 -10z"/>
<path d="M1420 2072 c0 -4 9 -13 20 -20 12 -7 18 -18 14 -24 -5 -7 -3 -8 5 -3
9 5 7 13 -10 31 -24 26 -29 28 -29 16z"/>
<path d="M1616 2058 c1 -13 3 -26 3 -30 2 -21 16 -4 18 22 1 19 -3 30 -11 30
-7 0 -12 -9 -10 -22z"/>
<path d="M1896 2065 c-3 -9 -6 -22 -5 -28 0 -7 5 -1 10 12 5 13 8 26 5 28 -2
2 -6 -3 -10 -12z"/>
<path d="M1388 2045 c-3 -14 -1 -25 3 -25 5 0 9 11 9 25 0 14 -2 25 -4 25 -2
0 -6 -11 -8 -25z"/>
<path d="M762 2040 c0 -14 2 -19 5 -12 2 6 2 18 0 25 -3 6 -5 1 -5 -13z"/>
<path d="M1174 2047 c1 -7 5 -18 10 -26 5 -8 4 -16 -5 -22 -10 -6 -9 -10 6
-15 11 -4 23 -12 26 -17 4 -5 9 -5 13 2 4 6 0 14 -8 17 -12 5 -13 10 -5 26 8
15 8 19 0 14 -6 -4 -11 -1 -11 7 0 8 -6 17 -14 20 -8 3 -13 0 -12 -6z"/>
<path d="M1511 2044 c0 -11 3 -14 6 -6 3 7 2 16 -1 19 -3 4 -6 -2 -5 -13z"/>
<path d="M1745 2049 c-4 -6 -5 -12 -2 -15 2 -3 7 2 10 11 7 17 1 20 -8 4z"/>
<path d="M1961 2044 c0 -11 3 -14 6 -6 3 7 2 16 -1 19 -3 4 -6 -2 -5 -13z"/>
<path d="M981 2044 c-1 -5 6 -19 14 -30 14 -18 14 -18 15 4 0 13 -4 21 -9 18
-5 -4 -12 0 -14 6 -3 7 -6 8 -6 2z"/>
<path d="M1417 2043 c-3 -5 -1 -17 4 -28 6 -17 7 -16 6 8 -1 28 -3 32 -10 20z"/>
<path d="M1861 2034 c0 -11 3 -14 6 -6 3 7 2 16 -1 19 -3 4 -6 -2 -5 -13z"/>
<path d="M1586 2024 c-8 -20 8 -51 18 -35 4 6 2 11 -4 11 -7 0 -9 8 -5 20 8
24 0 27 -9 4z"/>
<path d="M1767 2033 c-3 -5 -1 -17 4 -28 7 -17 8 -17 8 8 1 27 -4 34 -12 20z"/>
<path d="M2120 2030 c0 -6 7 -10 15 -10 8 0 15 2 15 4 0 2 -7 6 -15 10 -8 3
-15 1 -15 -4z"/>
<path d="M2235 2025 l-50 -13 48 3 c27 2 54 8 60 14 13 13 6 13 -58 -4z"/>
<path d="M1328 2018 c17 -17 15 -36 -5 -41 -10 -3 -6 -4 10 -4 15 1 27 5 27 8
0 4 3 16 6 26 5 15 4 15 -5 3 -9 -13 -11 -13 -11 3 0 9 -8 17 -17 17 -13 0
-14 -3 -5 -12z"/>
<path d="M1676 2017 c3 -10 9 -15 12 -12 3 3 0 11 -7 18 -10 9 -11 8 -5 -6z"/>
<path d="M1487 2000 c3 -11 7 -20 9 -20 2 0 4 9 4 20 0 11 -4 20 -9 20 -5 0
-7 -9 -4 -20z"/>
<path d="M1133 1995 c0 -8 4 -15 9 -15 5 0 6 -4 3 -10 -3 -5 1 -10 10 -10 14
0 14 2 -1 25 -19 29 -21 30 -21 10z"/>
<path d="M1636 1998 c3 -4 9 -8 15 -8 5 0 9 4 9 8 0 5 -7 9 -15 9 -8 0 -12 -4
-9 -9z"/>
<path d="M2095 2001 c-3 -6 10 -7 32 -4 50 8 55 13 10 13 -20 0 -38 -4 -42 -9z"/>
<path d="M2033 1993 c9 -2 25 -2 35 0 9 3 1 5 -18 5 -19 0 -27 -2 -17 -5z"/>
<path d="M1420 1990 c-8 -26 -7 -41 2 -32 6 6 8 16 5 24 -3 7 -6 11 -7 8z"/>
<path d="M1613 1975 c-10 -11 -9 -13 6 -12 11 1 17 7 14 14 -6 16 -5 16 -20
-2z"/>
<path d="M1670 1980 c0 -5 5 -10 11 -10 5 0 7 5 4 10 -3 6 -8 10 -11 10 -2 0
-4 -4 -4 -10z"/>
<path d="M1720 1975 c-8 -9 -8 -15 0 -20 6 -4 9 -2 8 3 -2 6 2 10 7 10 6 0 9
-4 8 -9 -2 -5 2 -9 7 -9 15 0 12 27 -4 33 -8 3 -20 0 -26 -8z"/>
<path d="M1938 1983 c6 -2 18 -2 25 0 6 3 1 5 -13 5 -14 0 -19 -2 -12 -5z"/>
<path d="M1986 1978 c3 -5 10 -6 15 -3 13 9 11 12 -6 12 -8 0 -12 -4 -9 -9z"/>
<path d="M1375 1970 c-4 -6 -3 -16 3 -22 6 -6 12 -6 17 2 4 6 3 16 -3 22 -6 6
-12 6 -17 -2z"/>
<path d="M1775 1970 c-3 -6 1 -7 9 -4 18 7 21 14 7 14 -6 0 -13 -4 -16 -10z"/>
<path d="M753 1955 c0 -8 4 -15 9 -15 4 0 8 7 8 15 0 8 -4 15 -8 15 -5 0 -9
-7 -9 -15z"/>
<path d="M1575 1960 c3 -5 8 -10 11 -10 2 0 4 5 4 10 0 6 -5 10 -11 10 -5 0
-7 -4 -4 -10z"/>
<path d="M886 1948 c5 -8 2 -9 -9 -5 -9 3 -18 3 -21 -1 -3 -4 11 -8 31 -9 19
0 39 -7 44 -14 7 -12 9 -12 9 -1 0 8 -9 16 -20 19 -11 3 -20 9 -20 14 0 5 -5
9 -11 9 -5 0 -7 -5 -3 -12z"/>
<path d="M788 1943 c7 -3 16 -2 19 1 4 3 -2 6 -13 5 -11 0 -14 -3 -6 -6z"/>
<path d="M985 1930 c-10 -11 -14 -20 -9 -20 5 0 15 9 22 20 7 11 11 20 9 20
-2 0 -12 -9 -22 -20z"/>
<path d="M1258 1943 c7 -3 16 -2 19 1 4 3 -2 6 -13 5 -11 0 -14 -3 -6 -6z"/>
<path d="M1660 1939 c0 -5 5 -7 10 -4 6 3 10 8 10 11 0 2 -4 4 -10 4 -5 0 -10
-5 -10 -11z"/>
<path d="M1540 1930 c0 -5 5 -10 11 -10 5 0 7 5 4 10 -3 6 -8 10 -11 10 -2 0
-4 -4 -4 -10z"/>
<path d="M806 1922 c-3 -5 3 -18 14 -30 16 -17 25 -19 49 -12 40 11 52 20 46
31 -10 15 -25 10 -25 -8 0 -14 -2 -15 -9 -4 -5 8 -11 9 -15 3 -3 -6 -15 -8
-26 -5 -11 3 -18 9 -15 13 3 5 1 11 -4 14 -5 4 -12 2 -15 -2z"/>
<path d="M1223 1913 c0 -9 4 -10 14 -2 7 6 13 12 13 14 0 1 -6 2 -13 2 -8 0
-14 -6 -14 -14z"/>
<path d="M1073 1913 c4 -3 1 -13 -6 -22 -11 -14 -10 -14 6 -2 20 15 22 31 5
31 -6 0 -8 -3 -5 -7z"/>
<path d="M1255 1910 c-3 -6 1 -7 9 -4 18 7 21 14 7 14 -6 0 -13 -4 -16 -10z"/>
<path d="M947 1897 c-3 -7 -2 -19 3 -26 5 -9 9 -8 14 5 4 9 3 21 -2 26 -6 6
-12 4 -15 -5z"/>
<path d="M1190 1906 c0 -2 7 -9 15 -16 13 -11 14 -10 9 4 -5 14 -24 23 -24 12z"/>
<path d="M1370 1903 c0 -4 5 -15 10 -23 8 -13 10 -13 10 2 0 9 -4 20 -10 23
-5 3 -10 3 -10 -2z"/>
<path d="M1100 1889 c0 -5 5 -7 10 -4 6 3 10 8 10 11 0 2 -4 4 -10 4 -5 0 -10
-5 -10 -11z"/>
<path d="M1435 1889 c-4 -6 -5 -12 -2 -15 2 -3 7 2 10 11 7 17 1 20 -8 4z"/>
<path d="M1535 1890 c-11 -4 -27 -5 -35 -3 -9 3 -8 0 3 -7 10 -6 26 -8 35 -4
9 4 20 8 24 8 3 1 9 4 12 7 8 8 -16 7 -39 -1z"/>
<path d="M1915 1890 c-3 -6 1 -7 9 -4 18 7 21 14 7 14 -6 0 -13 -4 -16 -10z"/>
<path d="M651 1873 c0 -11 3 -13 6 -5 2 6 12 12 20 12 13 0 14 -17 10 -122 -4
-91 -4 -110 3 -73 5 28 8 56 5 63 -6 17 22 27 39 13 16 -13 27 -4 19 17 -5 12
-1 14 15 10 14 -4 19 -2 15 8 -2 7 -12 10 -20 7 -13 -5 -13 -2 -5 14 6 11 10
22 9 24 -1 2 6 -5 15 -16 19 -22 24 -55 8 -55 -5 0 -10 -5 -10 -11 0 -5 4 -8
9 -5 5 4 12 0 15 -6 4 -9 5 -8 5 2 -2 31 1 50 9 50 4 0 6 -114 4 -252 -2 -139
1 -288 5 -330 8 -65 7 -80 -6 -95 -15 -16 -15 -16 2 -4 15 12 17 10 17 -22 0
-19 3 -49 6 -66 4 -21 3 -31 -5 -31 -8 0 -10 8 -6 21 5 16 4 19 -5 14 -8 -5
-11 -4 -7 1 3 6 -8 15 -25 22 -17 6 -28 8 -24 5 8 -9 -14 -34 -25 -27 -5 3 -9
0 -9 -5 0 -6 4 -11 9 -11 5 0 8 -8 6 -17 -1 -10 0 -13 2 -8 6 17 43 36 54 29
8 -4 7 -9 -2 -15 -11 -7 -10 -9 4 -9 10 0 15 -4 12 -10 -3 -6 0 -10 9 -10 8 0
19 12 24 28 6 16 11 20 11 10 1 -9 6 -20 12 -24 8 -4 9 1 4 17 -4 13 -12 27
-18 31 -6 3 -14 35 -19 70 -10 81 -16 493 -9 623 5 87 8 100 24 99 9 -1 17 2
17 7 0 5 -11 9 -24 9 -13 0 -33 3 -43 6 -17 5 -17 5 0 -9 21 -17 22 -37 2 -37
-15 0 -38 34 -29 42 3 3 -15 9 -40 12 -25 4 -48 11 -51 17 -11 16 -45 10 -44
-8z m100 -45 c-2 -7 -4 -19 -4 -25 0 -7 -4 -13 -9 -13 -5 0 -6 -4 -3 -10 3 -6
-1 -7 -10 -4 -9 4 -14 13 -11 20 3 8 0 14 -7 14 -9 0 -9 2 1 8 7 5 10 16 6 25
-5 15 -2 16 17 8 13 -5 22 -15 20 -23z m34 -798 c-3 -5 -11 -10 -16 -10 -6 0
-7 5 -4 10 3 6 11 10 16 10 6 0 7 -4 4 -10z"/>
<path d="M1137 1875 c-4 -8 -2 -17 3 -20 6 -4 10 3 10 14 0 25 -6 27 -13 6z"/>
<path d="M1643 1875 c0 -8 9 -15 20 -15 11 0 18 1 16 3 -2 1 -11 8 -20 15 -13
9 -16 9 -16 -3z"/>
<path d="M1730 1886 c0 -2 7 -7 16 -10 8 -3 12 -2 9 4 -6 10 -25 14 -25 6z"/>
<path d="M1780 1880 c0 -5 5 -10 11 -10 5 0 7 5 4 10 -3 6 -8 10 -11 10 -2 0
-4 -4 -4 -10z"/>
<path d="M1858 1883 c6 -2 18 -2 25 0 6 3 1 5 -13 5 -14 0 -19 -2 -12 -5z"/>
<path d="M910 1871 c0 -6 5 -13 10 -16 6 -3 10 1 10 9 0 9 -4 16 -10 16 -5 0
-10 -4 -10 -9z"/>
<path d="M1080 1869 c0 -5 9 -9 20 -9 11 0 20 2 20 4 0 2 -9 6 -20 9 -11 3
-20 1 -20 -4z"/>
<path d="M1185 1870 c-4 -6 -11 -7 -17 -4 -7 4 -8 2 -4 -4 10 -16 23 -15 30 3
6 17 0 20 -9 5z"/>
<path d="M1313 1855 c0 -15 2 -23 6 -17 3 5 23 10 44 10 21 0 41 2 44 5 3 3
-14 6 -37 5 -23 0 -46 5 -50 12 -5 7 -7 1 -7 -15z"/>
<path d="M868 1863 c7 -3 16 -2 19 1 4 3 -2 6 -13 5 -11 0 -14 -3 -6 -6z"/>
<path d="M1050 1859 c0 -6 -9 -8 -21 -4 -15 5 -19 4 -15 -4 10 -16 31 -14 46
4 9 10 9 15 1 15 -6 0 -11 -5 -11 -11z"/>
<path d="M1571 1861 c-10 -7 -7 -9 12 -8 15 1 27 5 27 10 0 10 -22 9 -39 -2z"/>
<path d="M1920 1860 c-9 -6 -10 -10 -3 -10 6 0 15 5 18 10 8 12 4 12 -15 0z"/>
<path d="M970 1850 c0 -5 -18 -10 -41 -10 -39 0 -51 -18 -19 -28 7 -3 10 0 6
7 -5 7 3 11 23 11 28 0 31 -3 32 -32 0 -27 2 -29 8 -13 5 11 5 27 1 35 -4 8
-5 21 -3 28 3 6 2 12 -1 12 -3 0 -6 -4 -6 -10z"/>
<path d="M1438 1853 c6 -2 18 -2 25 0 6 3 1 5 -13 5 -14 0 -19 -2 -12 -5z"/>
<path d="M1506 1843 c-6 -14 -5 -15 5 -6 7 7 10 15 7 18 -3 3 -9 -2 -12 -12z"/>
<path d="M1533 1845 c0 -8 4 -15 9 -15 4 0 8 7 8 15 0 8 -4 15 -8 15 -5 0 -9
-7 -9 -15z"/>
<path d="M1711 1851 c-8 -5 -23 -8 -33 -6 -10 2 -16 0 -13 -5 3 -5 15 -6 28
-4 12 3 27 6 34 6 7 1 10 5 7 10 -6 10 -6 10 -23 -1z"/>
<path d="M654 1814 c0 -19 4 -34 8 -34 4 0 8 13 8 29 0 17 -4 32 -8 35 -4 2
-8 -11 -8 -30z"/>
<path d="M1200 1840 c-9 -6 -10 -10 -3 -10 6 0 15 5 18 10 8 12 4 12 -15 0z"/>
<path d="M1870 1835 c-74 -7 -201 -14 -282 -16 -82 -1 -148 -6 -148 -11 0 -8
278 -3 385 7 89 8 173 17 225 25 l55 8 -50 -1 c-27 0 -111 -6 -185 -12z"/>
<path d="M1048 1833 c-40 -3 -48 -8 -48 -24 0 -10 5 -19 11 -19 6 0 9 7 5 15
-4 12 3 15 34 15 21 0 42 5 45 10 3 6 5 9 3 8 -2 -1 -24 -3 -50 -5z"/>
<path d="M2332 1820 c0 -14 2 -19 5 -12 2 6 2 18 0 25 -3 6 -5 1 -5 -13z"/>
<path d="M1102 1796 c-1 -14 -3 -29 -4 -33 -1 -4 2 -32 6 -60 8 -53 19 -67 30
-37 11 28 6 54 -9 54 -8 0 -15 5 -15 11 0 6 7 8 16 5 9 -3 20 -6 25 -6 5 0 8
-5 7 -11 -2 -6 5 -13 15 -14 9 -2 17 0 17 4 0 13 -24 31 -41 31 -25 0 -33 18
-17 37 9 12 9 15 1 9 -8 -4 -13 -1 -13 8 0 13 12 16 60 16 l60 0 0 -74 c0 -72
-1 -75 -27 -85 l-28 -11 28 4 27 3 0 -73 c0 -61 -3 -72 -15 -68 -8 4 -15 1
-15 -5 0 -6 8 -11 18 -11 15 -1 15 -2 -3 -17 -17 -13 -17 -15 -2 -9 16 5 18 1
15 -32 -2 -21 -8 -36 -14 -35 -7 1 -10 -6 -7 -17 3 -11 11 -20 17 -20 15 0 20
-56 6 -65 -5 -3 -10 2 -10 11 0 10 -3 14 -6 11 -4 -3 0 -21 9 -39 10 -21 17
-78 21 -158 4 -79 3 -118 -3 -105 -8 17 -10 18 -10 3 -1 -10 -4 -18 -7 -18 -4
0 -13 8 -20 18 -7 9 -14 12 -14 6 0 -7 -7 -15 -16 -18 -14 -5 -15 -4 -4 9 7 9
10 18 6 22 -3 3 -6 1 -6 -6 0 -8 -6 -11 -16 -7 -8 3 -12 2 -9 -4 3 -6 2 -10
-3 -10 -15 0 -22 78 -29 333 -3 131 -9 233 -13 228 -8 -14 -5 -262 5 -404 8
-109 -2 -167 -29 -167 -6 0 -13 -14 -14 -30 -1 -19 2 -30 10 -30 9 0 8 -3 -2
-10 -10 -6 -11 -10 -3 -10 7 0 12 -6 10 -12 -1 -9 8 -12 26 -10 18 2 26 -1 22
-7 -4 -7 1 -8 11 -4 11 4 13 8 6 11 -14 4 -16 32 -3 32 5 0 12 -6 14 -12 4 -9
6 -8 6 2 1 9 11 16 24 17 12 0 16 -1 9 -4 -15 -6 -37 -44 -23 -41 5 2 16 -5
24 -16 11 -15 14 -16 14 -3 0 9 -6 18 -14 21 -7 3 -13 10 -13 15 0 6 7 8 15 5
16 -6 19 4 9 30 -4 11 -11 13 -31 5 -32 -12 -35 -11 -28 4 4 6 -1 3 -9 -7 -9
-11 -16 -16 -17 -10 0 5 -5 -2 -11 -16 l-11 -25 -5 25 c-2 14 -9 28 -16 33 -8
5 -7 9 2 16 8 4 14 12 15 17 2 10 21 10 187 0 90 -5 115 -9 114 -20 -1 -8 4
-12 11 -10 6 3 12 11 12 19 0 15 -4 16 -69 19 -35 1 -68 16 -36 16 9 0 19 7
22 16 5 14 4 15 -9 4 -12 -10 -15 -9 -16 6 0 17 -1 17 -9 -2 -4 -12 -15 -24
-23 -27 -14 -5 -22 88 -27 313 -1 19 -9 43 -18 54 -9 11 -11 16 -4 12 9 -6 12
22 12 123 0 98 3 129 13 127 20 -3 37 -16 37 -29 0 -9 -2 -9 -8 0 -5 8 -13 9
-22 3 -13 -8 -12 -10 2 -10 12 0 15 -5 11 -15 -3 -9 3 -25 13 -37 19 -21 19
-21 -8 -14 -33 8 -37 -1 -6 -13 15 -5 27 -4 35 5 7 7 22 11 33 9 21 -4 27 9
10 20 -5 3 -10 0 -10 -7 0 -9 -3 -9 -10 2 -6 10 -10 11 -10 3 0 -19 -14 -15
-28 8 -10 15 -10 24 -2 34 6 7 8 25 4 40 -5 22 -11 25 -30 21 -24 -6 -24 -6
-24 75 0 71 2 80 15 69 8 -7 15 -9 15 -4 0 5 30 8 67 6 l68 -3 0 -32 c0 -18
-4 -38 -9 -46 -7 -11 -6 -12 5 -6 12 8 12 6 0 -8 -9 -12 -10 -17 -2 -17 9 0
11 -47 9 -180 -2 -100 1 -181 6 -183 5 -2 3 -13 -4 -26 -6 -13 -8 -21 -2 -17
6 4 10 -25 11 -78 1 -47 -3 -87 -8 -90 -12 -8 -3 -42 15 -56 10 -10 12 -5 9
22 -4 32 -15 496 -15 653 l0 80 -163 3 -163 3 -2 -25z m25 -118 c-3 -7 -5 -2
-5 12 0 14 2 19 5 13 2 -7 2 -19 0 -25z"/>
<path d="M922 1768 c-1 -20 3 -40 8 -43 6 -4 10 -70 9 -168 0 -114 -3 -157
-11 -147 -7 11 -8 10 -2 -5 5 -11 8 -49 9 -85 0 -36 5 -68 10 -72 6 -5 5 -8
-4 -8 -10 0 -11 -3 -2 -14 6 -7 10 -24 10 -37 -1 -13 2 -57 6 -98 6 -55 5 -72
-4 -67 -6 4 -11 1 -11 -8 0 -9 5 -16 10 -16 6 0 10 5 10 11 0 6 7 9 15 5 8 -3
15 -1 15 3 0 5 -4 11 -9 13 -5 2 -12 43 -16 92 -5 71 -4 87 7 81 7 -3 4 1 -6
9 -20 16 -20 16 0 32 17 14 17 15 1 10 -17 -5 -18 8 -15 254 2 202 0 257 -9
244 -10 -14 -12 -11 -16 18 l-4 33 -1 -37z"/>
<path d="M1040 1790 c-9 -6 -11 -10 -3 -10 7 0 10 -6 7 -14 -3 -8 -1 -17 4
-20 5 -3 12 8 14 24 5 32 1 35 -22 20z"/>
<path d="M1926 1787 c3 -10 9 -15 12 -12 3 3 0 11 -7 18 -10 9 -11 8 -5 -6z"/>
<path d="M2295 1791 c-3 -5 -1 -12 4 -15 5 -3 11 1 15 9 6 16 -9 21 -19 6z"/>
<path d="M896 1773 c-6 -14 -5 -15 5 -6 7 7 10 15 7 18 -3 3 -9 -2 -12 -12z"/>
<path d="M1361 1774 c0 -11 3 -14 6 -6 3 7 2 16 -1 19 -3 4 -6 -2 -5 -13z"/>
<path d="M1530 1775 c-4 -37 2 -80 11 -89 13 -14 11 -46 -2 -46 -8 0 -7 -6 2
-17 10 -11 10 -14 2 -9 -7 4 -13 3 -13 -3 0 -5 6 -12 13 -15 10 -5 10 -7 0
-12 -18 -8 -17 -45 1 -38 12 5 14 -31 14 -226 0 -128 3 -234 6 -238 3 -3 6
103 6 236 0 133 -3 242 -7 242 -5 0 -7 53 -5 117 2 74 -1 113 -6 104 -8 -11
-10 -11 -15 0 -4 9 -6 7 -7 -6z"/>
<path d="M1598 1763 c-4 -70 -3 -91 5 -86 4 3 5 18 2 33 -3 16 -2 31 4 35 14
8 14 45 1 45 -5 0 -11 -12 -12 -27z"/>
<path d="M1684 1782 c3 -6 -3 -20 -15 -31 -12 -11 -19 -25 -16 -33 4 -9 6 -7
6 5 1 9 5 17 11 17 16 0 32 38 18 46 -6 4 -8 3 -4 -4z"/>
<path d="M1981 1774 c0 -11 3 -14 6 -6 3 7 2 16 -1 19 -3 4 -6 -2 -5 -13z"/>
<path d="M1457 1773 c-3 -5 -1 -17 4 -28 7 -17 8 -17 8 8 1 27 -4 34 -12 20z"/>
<path d="M1480 1766 c0 -8 4 -17 9 -20 5 -4 7 3 4 14 -6 23 -13 26 -13 6z"/>
<path d="M1821 1765 c-1 -21 15 -53 22 -45 2 3 -2 19 -9 35 -10 23 -13 25 -13
10z"/>
<path d="M2116 1767 c3 -10 9 -15 12 -12 3 3 0 11 -7 18 -10 9 -11 8 -5 -6z"/>
<path d="M2246 1771 c-4 -5 3 -7 14 -4 23 6 26 13 6 13 -8 0 -17 -4 -20 -9z"/>
<path d="M1725 1744 c13 -14 19 -14 28 -4 9 10 9 11 0 6 -7 -4 -13 -2 -13 3 0
6 -7 11 -16 11 -14 0 -14 -2 1 -16z"/>
<path d="M1777 1753 c-4 -3 -7 -11 -7 -17 0 -6 5 -5 12 2 6 6 9 14 7 17 -3 3
-9 2 -12 -2z"/>
<path d="M862 1725 c1 -14 6 -25 11 -25 5 0 6 9 2 20 -5 15 -3 18 9 14 9 -3
16 -1 16 5 0 6 -9 11 -20 11 -15 0 -19 -6 -18 -25z"/>
<path d="M1330 1740 c0 -5 5 -10 11 -10 5 0 7 5 4 10 -3 6 -8 10 -11 10 -2 0
-4 -4 -4 -10z"/>
<path d="M1365 1740 c3 -5 11 -10 16 -10 6 0 7 5 4 10 -3 6 -11 10 -16 10 -6
0 -7 -4 -4 -10z"/>
<path d="M1617 1744 c-8 -8 1 -24 12 -24 4 0 8 7 8 15 0 16 -9 20 -20 9z"/>
<path d="M775 1732 c-15 -11 -17 -32 -2 -32 7 0 13 9 13 20 0 11 0 20 -1 20 0
0 -4 -4 -10 -8z"/>
<path d="M1696 1726 c3 -9 13 -16 22 -16 8 0 13 1 11 3 -2 1 -12 9 -22 16 -15
12 -17 12 -11 -3z"/>
<path d="M1940 1729 c0 -5 5 -7 10 -4 6 3 10 8 10 11 0 2 -4 4 -10 4 -5 0 -10
-5 -10 -11z"/>
<path d="M2212 1720 c0 -14 2 -19 5 -12 2 6 2 18 0 25 -3 6 -5 1 -5 -13z"/>
<path d="M995 1720 c3 -5 13 -10 21 -10 8 0 14 -7 14 -15 0 -8 9 -15 21 -15
11 0 17 5 14 10 -4 6 -12 7 -18 4 -8 -5 -8 -3 1 7 20 22 14 29 -24 29 -21 0
-33 -4 -29 -10z"/>
<path d="M1070 1720 c0 -5 5 -10 11 -10 5 0 7 5 4 10 -3 6 -8 10 -11 10 -2 0
-4 -4 -4 -10z"/>
<path d="M1203 1713 c0 -15 19 -12 24 3 2 6 -3 11 -10 11 -8 0 -14 -6 -14 -14z"/>
<path d="M1476 1714 c-10 -25 -7 -41 7 -41 9 0 12 10 9 29 -5 32 -7 34 -16 12z"/>
<path d="M2121 1714 c0 -11 3 -14 6 -6 3 7 2 16 -1 19 -3 4 -6 -2 -5 -13z"/>
<path d="M740 1703 c0 -13 5 -23 10 -23 13 0 13 11 0 30 -8 12 -10 11 -10 -7z"/>
<path d="M973 1701 c0 -11 5 -18 9 -15 4 3 5 11 1 19 -7 21 -12 19 -10 -4z"/>
<path d="M1303 1703 c-4 -10 -9 -10 -18 -3 -6 5 -15 7 -18 3 -12 -11 -7 -21
13 -26 11 -3 20 -2 20 3 0 4 7 10 15 14 12 4 15 -5 14 -50 -1 -38 3 -59 12
-65 22 -14 29 -11 29 11 0 11 -6 19 -12 18 -14 -3 -23 54 -13 80 5 14 7 14 15
2 7 -11 10 -12 10 -2 0 7 5 10 10 7 6 -3 10 -2 10 3 0 16 -81 20 -87 5z"/>
<path d="M700 1686 c0 -31 6 -34 13 -6 3 11 1 23 -4 26 -5 3 -9 -6 -9 -20z"/>
<path d="M1936 1695 c4 -8 11 -15 16 -15 6 0 5 6 -2 15 -7 8 -14 15 -16 15 -2
0 -1 -7 2 -15z"/>
<path d="M645 1690 c3 -5 8 -10 11 -10 2 0 4 5 4 10 0 6 -5 10 -11 10 -5 0 -7
-4 -4 -10z"/>
<path d="M1084 1685 c-3 -8 -4 -20 -2 -27 3 -7 7 -1 10 15 6 29 1 36 -8 12z"/>
<path d="M1649 1698 c-5 -18 -6 -38 -1 -34 7 8 12 36 6 36 -2 0 -4 -1 -5 -2z"/>
<path d="M1773 1685 c1 -11 -3 -27 -8 -35 -7 -12 -6 -13 7 -3 8 7 19 9 24 5 4
-4 3 0 -2 8 -6 8 -14 22 -17 30 -5 10 -6 8 -4 -5z"/>
<path d="M863 1683 c4 -3 1 -13 -6 -21 -9 -13 -9 -14 1 -8 7 4 12 1 12 -8 0
-9 5 -16 10 -16 11 0 12 6 4 38 -4 12 -11 22 -17 22 -6 0 -7 -3 -4 -7z"/>
<path d="M1000 1680 c0 -5 5 -10 11 -10 5 0 7 5 4 10 -3 6 -8 10 -11 10 -2 0
-4 -4 -4 -10z"/>
<path d="M1150 1680 c0 -8 5 -22 10 -30 9 -13 10 -13 10 0 0 8 -5 22 -10 30
-9 13 -10 13 -10 0z"/>
<path d="M2223 1625 c0 -38 2 -53 4 -32 2 20 2 52 0 70 -2 17 -4 1 -4 -38z"/>
<path d="M721 1664 c0 -11 3 -14 6 -6 3 7 2 16 -1 19 -3 4 -6 -2 -5 -13z"/>
<path d="M745 1651 c2 -9 4 -18 4 -20 1 -2 8 2 16 9 16 14 13 23 -9 26 -8 1
-13 -5 -11 -15z"/>
<path d="M1037 1648 c-3 -12 -1 -29 4 -37 9 -13 10 -13 5 3 -4 10 -2 24 4 31
7 8 7 16 2 19 -6 3 -12 -4 -15 -16z"/>
<path d="M1615 1660 c3 -5 8 -10 11 -10 2 0 4 5 4 10 0 6 -5 10 -11 10 -5 0
-7 -4 -4 -10z"/>
<path d="M2151 1654 c0 -11 3 -14 6 -6 3 7 2 16 -1 19 -3 4 -6 -2 -5 -13z"/>
<path d="M1492 1635 c0 -16 2 -22 5 -12 2 9 2 23 0 30 -3 6 -5 -1 -5 -18z"/>
<path d="M1580 1649 c0 -5 5 -7 10 -4 6 3 10 8 10 11 0 2 -4 4 -10 4 -5 0 -10
-5 -10 -11z"/>
<path d="M708 1625 c5 -29 8 -31 15 -11 3 8 0 19 -7 25 -10 9 -12 6 -8 -14z"/>
<path d="M1650 1641 c0 -5 7 -12 16 -15 14 -5 15 -4 4 9 -14 17 -20 19 -20 6z"/>
<path d="M1818 1633 c15 -27 15 -60 1 -65 -7 -2 -6 -8 3 -15 9 -8 19 -9 28 -3
13 8 13 10 0 10 -12 0 -15 8 -12 33 3 23 -2 38 -14 48 -16 13 -16 12 -6 -8z"/>
<path d="M921 1624 c0 -11 3 -14 6 -6 3 7 2 16 -1 19 -3 4 -6 -2 -5 -13z"/>
<path d="M1070 1630 c0 -5 5 -10 11 -10 5 0 7 5 4 10 -3 6 -8 10 -11 10 -2 0
-4 -4 -4 -10z"/>
<path d="M1096 1614 l-19 -26 27 17 c17 11 26 13 26 6 0 -7 4 -10 10 -6 12 7
1 35 -14 35 -6 0 -19 -12 -30 -26z"/>
<path d="M1730 1636 c0 -2 7 -12 16 -20 8 -9 11 -16 6 -16 -11 0 -10 -56 2
-67 5 -4 6 4 2 19 -4 17 -1 32 7 40 12 11 10 16 -10 31 -12 10 -23 16 -23 13z"/>
<path d="M2301 1624 c0 -11 3 -14 6 -6 3 7 2 16 -1 19 -3 4 -6 -2 -5 -13z"/>
<path d="M987 1588 c-23 -56 -16 -58 10 -3 11 25 17 45 13 45 -4 0 -14 -19
-23 -42z"/>
<path d="M1187 1623 c-4 -3 -7 -13 -6 -22 0 -12 3 -11 9 4 8 19 8 19 18 -5 6
-14 11 -20 12 -15 1 6 3 18 5 28 3 17 -24 25 -38 10z"/>
<path d="M1690 1618 c0 -9 -6 -18 -12 -21 -7 -2 -1 -4 15 -4 24 0 26 2 15 16
-7 9 -14 18 -15 20 -2 2 -3 -3 -3 -11z"/>
<path d="M2131 1614 c0 -11 3 -14 6 -6 3 7 2 16 -1 19 -3 4 -6 -2 -5 -13z"/>
<path d="M2151 1614 c0 -11 3 -14 6 -6 3 7 2 16 -1 19 -3 4 -6 -2 -5 -13z"/>
<path d="M746 1604 c-4 -9 -4 -19 -1 -22 2 -3 7 3 11 12 4 9 4 19 1 22 -2 3
-7 -3 -11 -12z"/>
<path d="M890 1605 c7 -9 15 -13 17 -11 7 7 -7 26 -19 26 -6 0 -6 -6 2 -15z"/>
<path d="M1881 1604 c0 -11 3 -14 6 -6 3 7 2 16 -1 19 -3 4 -6 -2 -5 -13z"/>
<path d="M1941 1604 c0 -11 3 -14 6 -6 3 7 2 16 -1 19 -3 4 -6 -2 -5 -13z"/>
<path d="M2342 1590 c0 -19 2 -27 5 -17 2 9 2 25 0 35 -3 9 -5 1 -5 -18z"/>
<path d="M1598 1603 c7 -3 16 -2 19 1 4 3 -2 6 -13 5 -11 0 -14 -3 -6 -6z"/>
<path d="M858 1575 c2 -14 8 -25 12 -25 4 0 5 11 2 25 -2 14 -8 25 -12 25 -4
0 -5 -11 -2 -25z"/>
<path d="M762 1560 c-8 -16 -11 -36 -9 -42 3 -7 6 -4 6 8 1 11 6 25 12 31 6 6
10 16 8 22 -2 6 -10 -2 -17 -19z"/>
<path d="M1022 1569 c-9 -14 -10 -19 -2 -14 7 4 15 3 19 -2 3 -6 15 -7 26 -2
17 6 17 8 3 8 -10 1 -18 8 -18 16 0 21 -13 19 -28 -6z"/>
<path d="M1130 1550 c0 -22 2 -40 4 -40 2 0 6 18 8 40 2 22 0 40 -4 40 -5 0
-8 -18 -8 -40z"/>
<path d="M1606 1574 c-3 -9 -11 -12 -18 -8 -9 5 -9 3 1 -9 7 -9 19 -17 25 -17
6 0 4 5 -4 10 -15 9 -13 11 12 14 6 0 13 7 16 14 6 18 -25 15 -32 -4z"/>
<path d="M644 1567 c3 -10 6 -20 6 -22 0 -2 9 -1 20 2 17 5 18 1 13 -30 -3
-19 -1 -37 5 -41 5 -3 9 8 8 27 -1 21 3 31 12 30 6 -2 12 1 12 6 0 8 -41 23
-56 20 -4 0 -11 5 -16 13 -7 9 -8 8 -4 -5z"/>
<path d="M1480 1570 c0 -5 5 -10 10 -10 6 0 10 5 10 10 0 6 -4 10 -10 10 -5 0
-10 -4 -10 -10z"/>
<path d="M1657 1563 c3 -7 9 -10 14 -7 14 8 11 21 -5 21 -8 0 -12 -6 -9 -14z"/>
<path d="M2156 1555 c-3 -8 -1 -15 4 -15 6 0 10 7 10 15 0 8 -2 15 -4 15 -2 0
-6 -7 -10 -15z"/>
<path d="M2296 1517 c-16 -52 -16 -59 -2 -89 9 -17 14 -41 11 -52 -5 -17 -3
-16 9 4 13 22 13 26 0 36 -18 15 -18 78 1 98 10 10 12 21 7 37 -7 19 -11 14
-26 -34z"/>
<path d="M775 1540 c-3 -5 -1 -10 4 -10 6 0 11 5 11 10 0 6 -2 10 -4 10 -3 0
-8 -4 -11 -10z"/>
<path d="M900 1540 c0 -5 5 -10 11 -10 5 0 7 5 4 10 -3 6 -8 10 -11 10 -2 0
-4 -4 -4 -10z"/>
<path d="M994 1528 c4 -19 2 -28 -6 -28 -9 0 -8 -3 2 -10 12 -8 11 -10 -7 -10
-13 0 -23 -4 -23 -9 0 -5 10 -7 21 -4 19 5 20 4 10 -15 -14 -26 -14 -29 2 -35
10 -4 13 10 13 58 -1 35 -5 67 -10 72 -5 4 -6 -4 -2 -19z"/>
<path d="M1506 1536 c3 -9 1 -16 -5 -16 -6 0 -11 5 -11 10 0 6 -6 5 -14 -2
-17 -16 -2 -28 25 -21 20 6 26 28 9 38 -6 3 -7 -1 -4 -9z"/>
<path d="M850 1524 c0 -8 5 -12 10 -9 6 3 10 10 10 16 0 5 -4 9 -10 9 -5 0
-10 -7 -10 -16z"/>
<path d="M1153 1496 c-9 -40 -8 -44 9 -43 18 1 26 17 9 17 -6 0 -7 16 -4 35 8
50 -2 43 -14 -9z"/>
<path d="M1395 1530 c-3 -5 -1 -10 4 -10 6 0 11 5 11 10 0 6 -2 10 -4 10 -3 0
-8 -4 -11 -10z"/>
<path d="M1610 1524 l-35 -13 30 -1 c23 0 27 -3 15 -10 -8 -5 -10 -10 -3 -10
6 0 10 -8 8 -17 -1 -10 0 -12 2 -5 3 7 8 10 11 8 4 -2 7 11 8 30 0 19 0 33 0
33 -1 -1 -17 -7 -36 -15z"/>
<path d="M1680 1536 c0 -2 8 -10 18 -17 15 -13 16 -12 3 4 -13 16 -21 21 -21
13z"/>
<path d="M1775 1531 c-3 -6 3 -9 14 -8 11 0 17 5 15 9 -7 11 -22 10 -29 -1z"/>
<path d="M1035 1520 c-5 -9 -4 -15 3 -18 8 -2 6 -9 -5 -20 -15 -15 -15 -17 -1
-20 19 -4 41 -49 28 -57 -6 -4 -10 1 -10 9 0 9 -4 16 -10 16 -5 0 -10 -4 -10
-9 0 -6 5 -13 10 -16 15 -9 12 -38 -4 -32 -10 4 -13 -5 -12 -36 2 -42 3 -44
46 -38 6 0 10 9 10 18 0 15 -2 15 -14 -2 -13 -18 -14 -18 -25 3 -9 16 -8 24 5
37 15 14 17 14 29 -2 12 -16 13 -15 12 8 -1 17 -7 25 -14 22 -16 -6 -17 13 -2
22 6 4 8 13 5 20 -3 8 0 16 7 19 7 2 5 5 -4 5 -22 1 -41 25 -30 37 5 5 6 18 2
28 -6 16 -9 17 -16 6z"/>
<path d="M1938 1510 c-3 -14 -9 -34 -12 -45 -4 -11 0 -7 9 8 9 16 15 36 13 45
-3 12 -6 10 -10 -8z"/>
<path d="M1966 1515 c-3 -8 -1 -15 4 -15 6 0 10 7 10 15 0 8 -2 15 -4 15 -2 0
-6 -7 -10 -15z"/>
<path d="M1358 1513 c7 -3 16 -2 19 1 4 3 -2 6 -13 5 -11 0 -14 -3 -6 -6z"/>
<path d="M1665 1510 c3 -5 8 -10 11 -10 2 0 4 5 4 10 0 6 -5 10 -11 10 -5 0
-7 -4 -4 -10z"/>
<path d="M2037 1513 c-11 -11 -8 -20 7 -20 8 0 12 6 9 14 -6 15 -7 15 -16 6z"/>
<path d="M710 1495 c0 -8 2 -15 4 -15 2 0 6 7 10 15 3 8 1 15 -4 15 -6 0 -10
-7 -10 -15z"/>
<path d="M1822 1485 c0 -16 2 -22 5 -12 2 9 2 23 0 30 -3 6 -5 -1 -5 -18z"/>
<path d="M2229 1478 c-3 -22 -1 -34 4 -29 5 5 7 21 5 37 -3 27 -4 26 -9 -8z"/>
<path d="M646 1485 c4 -8 10 -15 15 -15 4 0 6 7 3 15 -4 8 -10 15 -15 15 -4 0
-6 -7 -3 -15z"/>
<path d="M860 1490 c-12 -8 -12 -10 -1 -10 10 0 11 -3 2 -14 -13 -16 2 -32 19
-21 13 8 13 35 -1 35 -5 0 -7 5 -4 10 8 12 4 12 -15 0z"/>
<path d="M1295 1490 c4 -6 11 -8 16 -5 14 9 11 15 -7 15 -8 0 -12 -5 -9 -10z"/>
<path d="M1352 1480 c-10 -17 -10 -20 3 -20 8 0 15 2 15 4 0 2 3 11 6 20 9 23
-9 20 -24 -4z"/>
<path d="M1080 1481 c0 -6 4 -13 10 -16 6 -3 7 1 4 9 -7 18 -14 21 -14 7z"/>
<path d="M1463 1474 c-19 -19 -16 -29 4 -13 9 8 19 13 22 11 3 -2 7 2 9 10 3
10 2 10 -6 -1 -6 -7 -11 -9 -13 -3 -2 6 -9 5 -16 -4z"/>
<path d="M1730 1481 c0 -5 -8 -7 -19 -4 -10 3 -21 1 -24 -5 -4 -5 6 -8 20 -7
15 0 28 6 31 13 2 7 1 12 -2 12 -3 0 -6 -4 -6 -9z"/>
<path d="M1766 1483 c5 -5 12 -12 16 -18 4 -6 8 -2 8 8 0 9 -7 17 -17 17 -9 0
-12 -3 -7 -7z"/>
<path d="M1996 1481 c-4 -5 -2 -20 3 -33 6 -12 10 -17 10 -10 1 7 6 10 11 7 6
-3 10 -1 10 4 0 6 -7 11 -16 11 -10 0 -14 6 -10 15 6 16 1 20 -8 6z"/>
<path d="M737 1473 c-12 -12 -7 -23 11 -23 13 0 14 2 3 9 -11 7 -11 9 0 14 8
3 9 6 3 6 -6 1 -14 -2 -17 -6z"/>
<path d="M1542 1460 c0 -14 2 -19 5 -12 2 6 2 18 0 25 -3 6 -5 1 -5 -13z"/>
<path d="M772 1445 c-7 -15 -8 -25 -2 -25 6 0 10 7 10 16 0 8 5 12 10 9 6 -3
10 -2 10 4 0 22 -18 19 -28 -4z"/>
<path d="M1287 1463 c-13 -13 -7 -33 11 -32 10 0 12 3 5 6 -22 8 -14 25 8 18
15 -5 19 -4 15 4 -8 12 -29 15 -39 4z"/>
<path d="M1496 1451 c-19 -21 -9 -35 14 -20 13 7 13 9 0 10 -10 0 -9 3 4 8 12
4 15 10 9 14 -6 4 -18 -2 -27 -12z"/>
<path d="M1580 1456 c0 -2 7 -6 15 -10 8 -3 15 -1 15 4 0 6 -7 10 -15 10 -8 0
-15 -2 -15 -4z"/>
<path d="M1661 1437 c-1 -21 5 -30 19 -34 11 -3 20 -10 20 -15 0 -5 4 -7 10
-3 14 9 1 33 -17 31 -10 0 -20 10 -24 24 -7 25 -7 25 -8 -3z"/>
<path d="M895 1439 c-9 -14 -2 -20 14 -10 8 6 9 11 3 15 -6 3 -14 1 -17 -5z"/>
<path d="M1210 1430 c0 -11 2 -20 4 -20 2 0 6 9 9 20 3 11 1 20 -4 20 -5 0 -9
-9 -9 -20z"/>
<path d="M1350 1436 c0 -8 8 -17 18 -19 16 -4 16 -5 0 -6 -10 0 -18 -5 -18
-10 0 -5 9 -7 20 -4 24 6 25 19 6 39 -18 18 -26 18 -26 0z"/>
<path d="M1730 1442 c0 -7 5 -12 10 -12 6 0 9 -3 9 -7 -3 -19 2 -33 11 -33 17
0 11 26 -10 45 -11 10 -20 13 -20 7z"/>
<path d="M1770 1440 c0 -5 5 -10 10 -10 6 0 10 5 10 10 0 6 -4 10 -10 10 -5 0
-10 -4 -10 -10z"/>
<path d="M1822 1425 c0 -16 2 -22 5 -12 2 9 2 23 0 30 -3 6 -5 -1 -5 -18z"/>
<path d="M687 1433 c-10 -10 -8 -23 4 -23 5 0 7 5 3 11 -4 7 -1 10 7 7 8 -3
13 -14 11 -24 -2 -18 -2 -18 9 0 9 14 8 20 -2 27 -17 11 -24 11 -32 2z"/>
<path d="M1316 1425 c-10 -8 -22 -13 -25 -10 -4 2 -12 -5 -19 -16 -17 -27 -3
-23 38 11 36 30 40 41 6 15z"/>
<path d="M1620 1431 c0 -6 4 -13 10 -16 6 -3 7 1 4 9 -7 18 -14 21 -14 7z"/>
<path d="M960 1416 c0 -9 5 -16 10 -16 6 0 10 4 10 9 0 6 -4 13 -10 16 -5 3
-10 -1 -10 -9z"/>
<path d="M1879 1416 c5 -6 11 -20 14 -31 3 -12 5 -8 4 11 -1 18 -6 31 -14 31
-8 0 -9 -4 -4 -11z"/>
<path d="M742 1388 c2 -20 6 -34 10 -32 3 2 8 1 11 -3 2 -5 2 -1 -1 7 -2 8 -5
23 -6 32 -4 35 -16 31 -14 -4z"/>
<path d="M2092 1400 c0 -14 2 -19 5 -12 2 6 2 18 0 25 -3 6 -5 1 -5 -13z"/>
<path d="M2143 1365 c0 -33 2 -45 4 -27 2 18 2 45 0 60 -2 15 -4 0 -4 -33z"/>
<path d="M1160 1403 c0 -5 10 -18 23 -29 l22 -19 -20 25 c-11 14 -21 27 -22
29 -2 2 -3 0 -3 -6z"/>
<path d="M1485 1380 c3 -19 8 -36 11 -39 9 -9 3 45 -6 59 -8 11 -9 5 -5 -20z"/>
<path d="M680 1384 c0 -16 -2 -17 -10 -4 -11 17 -12 4 -1 -23 6 -18 7 -17 24
1 16 17 16 21 2 32 -12 10 -15 9 -15 -6z"/>
<path d="M786 1384 c-3 -9 1 -25 9 -37 13 -18 15 -19 15 -4 0 9 -5 17 -11 17
-6 0 -8 9 -4 20 7 24 0 27 -9 4z"/>
<path d="M994 1374 c2 -15 9 -30 16 -32 8 -3 10 2 5 19 -11 37 -24 45 -21 13z"/>
<path d="M1307 1394 c-12 -13 -8 -24 11 -25 12 0 11 -3 -6 -10 -13 -5 -27 -7
-31 -4 -4 2 -8 -2 -8 -9 0 -17 28 -15 47 3 15 15 24 45 10 36 -5 -3 -10 0 -12
6 -2 5 -7 7 -11 3z"/>
<path d="M1524 1385 c-9 -21 -2 -26 13 -10 8 9 9 16 3 20 -6 3 -13 -1 -16 -10z"/>
<path d="M1627 1381 c-4 -16 0 -21 16 -22 12 0 30 -2 40 -4 18 -3 18 -3 2 16
-10 10 -22 16 -27 12 -6 -3 -14 0 -18 7 -5 8 -9 5 -13 -9z"/>
<path d="M2162 1375 c0 -16 2 -22 5 -12 2 9 2 23 0 30 -3 6 -5 -1 -5 -18z"/>
<path d="M1136 1382 c-3 -5 1 -9 9 -9 8 0 12 4 9 9 -3 4 -7 8 -9 8 -2 0 -6 -4
-9 -8z"/>
<path d="M1376 1375 c4 -8 -1 -26 -10 -40 -14 -21 -14 -25 -2 -25 23 0 37 62
16 75 -6 3 -7 -1 -4 -10z"/>
<path d="M1781 1376 c-1 -11 -8 -28 -18 -38 -21 -23 -12 -23 14 0 14 12 18 23
12 37 -7 19 -8 19 -8 1z"/>
<path d="M1920 1380 c0 -6 4 -9 9 -6 5 4 12 1 14 -4 3 -6 4 -5 3 2 -3 15 -26
23 -26 8z"/>
<path d="M1737 1369 c7 -7 15 -10 18 -7 3 3 -2 9 -12 12 -14 6 -15 5 -6 -5z"/>
<path d="M1816 1365 c4 -8 11 -15 16 -15 6 0 5 6 -2 15 -7 8 -14 15 -16 15 -2
0 -1 -7 2 -15z"/>
<path d="M857 1359 c7 -7 15 -10 18 -7 3 3 -2 9 -12 12 -14 6 -15 5 -6 -5z"/>
<path d="M1851 1354 c0 -11 3 -14 6 -6 3 7 2 16 -1 19 -3 4 -6 -2 -5 -13z"/>
<path d="M2001 1354 c0 -11 3 -14 6 -6 3 7 2 16 -1 19 -3 4 -6 -2 -5 -13z"/>
<path d="M705 1351 c-3 -5 -1 -12 5 -16 5 -3 10 1 10 9 0 18 -6 21 -15 7z"/>
<path d="M1146 1335 c18 -28 24 -31 24 -12 0 7 -9 18 -20 25 -20 12 -21 12 -4
-13z"/>
<path d="M1333 1343 c-9 -3 -9 -12 -2 -30 12 -32 4 -57 -15 -50 -18 7 -30 -23
-16 -37 7 -7 10 -5 10 7 0 9 5 17 11 17 22 0 38 32 25 52 -8 14 -8 21 3 27 15
10 2 21 -16 14z"/>
<path d="M1187 1319 c-7 -28 -6 -31 10 -14 6 6 8 18 3 24 -5 9 -9 5 -13 -10z"/>
<path d="M1465 1330 c3 -5 8 -10 11 -10 2 0 4 5 4 10 0 6 -5 10 -11 10 -5 0
-7 -4 -4 -10z"/>
<path d="M1607 1319 c-3 -13 -4 -25 -2 -28 3 -2 5 1 5 7 0 7 5 12 11 12 7 0 9
-10 5 -27 -6 -25 -5 -26 5 -8 7 11 13 22 15 24 1 1 15 -9 31 -23 l28 -27 -32
6 c-33 5 -33 5 -33 -35 0 -22 -4 -40 -10 -40 -5 0 -10 -7 -10 -15 0 -8 7 -15
16 -15 9 0 14 -6 11 -12 -2 -7 -12 -12 -21 -10 -16 3 -16 1 1 -15 17 -18 39
-10 27 9 -3 4 0 8 6 8 7 0 6 8 -4 21 -9 14 -12 29 -7 43 5 11 6 27 4 34 -3 6
1 13 9 13 7 1 18 2 23 4 6 1 14 3 19 3 5 1 -1 13 -14 27 -24 26 -21 47 4 26 8
-7 17 -8 19 -3 3 4 -3 13 -13 20 -12 7 -21 8 -25 2 -10 -16 -43 -12 -53 6 -8
14 -10 13 -15 -7z"/>
<path d="M1822 1320 c0 -14 2 -19 5 -12 2 6 2 18 0 25 -3 6 -5 1 -5 -13z"/>
<path d="M755 1320 c19 -8 19 -9 -2 -9 -25 -1 -26 -5 -14 -36 5 -12 4 -26 -3
-34 -9 -11 -8 -13 4 -9 10 3 14 16 12 38 -2 25 1 31 12 27 8 -3 17 0 20 8 5
13 -14 26 -37 24 -7 0 -3 -4 8 -9z"/>
<path d="M860 1315 c0 -8 4 -15 10 -15 5 0 7 7 4 15 -4 8 -8 15 -10 15 -2 0
-4 -7 -4 -15z"/>
<path d="M911 1299 c-6 -18 -9 -34 -7 -36 2 -2 9 10 15 28 6 18 9 34 7 36 -2
2 -9 -10 -15 -28z"/>
<path d="M987 1306 c3 -12 5 -29 5 -38 -1 -10 6 -18 14 -18 20 0 18 -54 -2
-86 -10 -14 -13 -24 -8 -23 30 5 51 -24 46 -61 -3 -13 -2 -13 7 0 9 12 11 10
11 -10 0 -14 7 -34 15 -44 19 -25 19 -8 0 36 -8 20 -12 47 -10 60 4 19 1 25
-13 25 -33 0 -42 3 -42 14 0 7 9 9 23 6 12 -4 29 -2 37 4 12 8 10 9 -8 4 -12
-4 -22 -3 -21 2 1 4 0 10 -1 13 -1 3 -4 17 -6 33 -5 29 4 35 24 15 7 -7 12 -9
12 -4 0 14 -25 33 -39 28 -9 -3 -11 0 -6 8 5 8 4 11 -3 6 -15 -9 -34 28 -21
41 6 6 5 10 -5 10 -9 0 -13 -7 -9 -21z m67 -182 c3 -8 2 -12 -4 -9 -6 3 -10
10 -10 16 0 14 7 11 14 -7z"/>
<path d="M1489 1318 c-1 -10 -2 -22 -3 -28 -1 -5 3 -11 8 -12 12 -4 16 26 5
43 -7 11 -9 11 -10 -3z"/>
<path d="M700 1311 c0 -5 7 -15 17 -22 15 -13 15 -12 4 9 -12 23 -21 28 -21
13z"/>
<path d="M1780 1310 c-13 -8 -12 -10 3 -10 9 0 17 5 17 10 0 12 -1 12 -20 0z"/>
<path d="M2232 1290 c0 -19 2 -27 5 -17 2 9 2 25 0 35 -3 9 -5 1 -5 -18z"/>
<path d="M1290 1306 c0 -2 7 -9 15 -16 9 -7 15 -8 15 -2 0 5 -7 12 -15 16 -8
3 -15 4 -15 2z"/>
<path d="M1521 1294 c0 -11 3 -14 6 -6 3 7 2 16 -1 19 -3 4 -6 -2 -5 -13z"/>
<path d="M1880 1296 c0 -8 4 -17 9 -20 5 -4 7 3 4 14 -6 23 -13 26 -13 6z"/>
<path d="M2002 1285 c0 -16 2 -22 5 -12 2 9 2 23 0 30 -3 6 -5 -1 -5 -18z"/>
<path d="M1150 1291 c0 -6 4 -13 10 -16 6 -3 7 1 4 9 -7 18 -14 21 -14 7z"/>
<path d="M1857 1293 c-9 -9 -9 -135 1 -150 4 -6 7 27 7 73 0 46 0 84 -1 84 0
0 -4 -3 -7 -7z"/>
<path d="M866 1281 c-3 -5 2 -15 12 -22 15 -12 16 -12 5 2 -7 9 -10 19 -6 22
3 4 4 7 0 7 -3 0 -8 -4 -11 -9z"/>
<path d="M1760 1281 c0 -5 5 -13 10 -16 6 -3 10 -2 10 4 0 5 -4 13 -10 16 -5
3 -10 2 -10 -4z"/>
<path d="M773 1261 c0 -11 5 -18 9 -15 4 3 5 11 1 19 -7 21 -12 19 -10 -4z"/>
<path d="M1070 1274 c0 -5 7 -18 15 -28 12 -16 15 -17 15 -4 0 8 -7 21 -15 28
-8 7 -15 9 -15 4z"/>
<path d="M1580 1269 c0 -5 5 -7 10 -4 6 3 10 8 10 11 0 2 -4 4 -10 4 -5 0 -10
-5 -10 -11z"/>
<path d="M800 1261 c0 -6 4 -13 10 -16 6 -3 7 1 4 9 -7 18 -14 21 -14 7z"/>
<path d="M1457 1250 c3 -11 7 -20 9 -20 2 0 4 9 4 20 0 11 -4 20 -9 20 -5 0
-7 -9 -4 -20z"/>
<path d="M2081 1254 c0 -11 3 -14 6 -6 3 7 2 16 -1 19 -3 4 -6 -2 -5 -13z"/>
<path d="M2291 1254 c0 -11 3 -14 6 -6 3 7 2 16 -1 19 -3 4 -6 -2 -5 -13z"/>
<path d="M1155 1250 c3 -5 1 -10 -4 -10 -6 0 -11 -4 -11 -8 0 -17 26 -8 27 10
1 10 -3 18 -8 18 -6 0 -7 -4 -4 -10z"/>
<path d="M1487 1238 c-8 -29 -4 -32 11 -8 6 10 8 21 3 24 -5 3 -11 -4 -14 -16z"/>
<path d="M694 1207 c1 -23 4 -46 5 -52 2 -5 3 -23 2 -39 -1 -25 -3 -27 -18
-15 -12 9 -11 5 3 -11 12 -14 20 -31 18 -38 -1 -7 0 -8 3 -2 2 5 9 10 14 10 6
0 8 -4 5 -9 -4 -5 3 -7 14 -4 11 3 20 12 20 19 0 17 -17 19 -22 3 -2 -7 -9 -5
-17 5 -12 14 -11 16 5 10 17 -5 17 -4 4 8 -9 7 -15 23 -14 36 2 36 12 37 21 1
5 -19 16 -33 26 -35 9 -1 15 2 11 7 -3 5 -10 6 -16 3 -7 -5 -9 4 -6 24 2 17 1
29 -4 26 -4 -3 -8 2 -8 11 0 12 -6 15 -22 10 -18 -5 -20 -4 -8 4 13 10 13 11
0 11 -13 0 -13 1 0 10 20 13 33 13 25 0 -3 -5 -1 -10 4 -10 6 0 11 7 11 16 0
9 -8 14 -17 13 -30 -3 -39 1 -25 10 11 7 11 9 -1 14 -12 4 -15 -3 -13 -36z"/>
<path d="M1196 1237 c3 -10 9 -15 12 -12 3 3 0 11 -7 18 -10 9 -11 8 -5 -6z"/>
<path d="M1220 1241 c0 -5 5 -13 10 -16 6 -3 10 -2 10 4 0 5 -4 13 -10 16 -5
3 -10 2 -10 -4z"/>
<path d="M1820 1230 c0 -11 2 -20 4 -20 2 0 6 9 9 20 3 11 1 20 -4 20 -5 0 -9
-9 -9 -20z"/>
<path d="M2226 1234 c-8 -21 -8 -59 0 -51 7 7 16 67 10 67 -2 0 -7 -7 -10 -16z"/>
<path d="M794 1228 c4 -13 -1 -18 -17 -19 l-22 0 23 -11 c29 -14 38 -4 23 24
-6 13 -9 15 -7 6z"/>
<path d="M856 1231 c-4 -5 1 -8 9 -7 21 3 31 16 12 16 -9 0 -18 -4 -21 -9z"/>
<path d="M1375 1230 c-3 -5 -3 -15 1 -21 6 -11 23 6 24 24 0 10 -18 9 -25 -3z"/>
<path d="M1586 1225 c-3 -8 -1 -15 4 -15 13 0 22 18 11 24 -5 3 -11 -1 -15 -9z"/>
<path d="M1767 1209 c-4 -16 -3 -19 5 -11 6 6 16 9 22 8 6 -2 8 -1 3 1 -4 3
-5 9 -1 14 3 5 -1 9 -9 9 -8 0 -17 -10 -20 -21z"/>
<path d="M905 1210 c-3 -5 -1 -10 4 -10 6 0 11 5 11 10 0 6 -2 10 -4 10 -3 0
-8 -4 -11 -10z"/>
<path d="M1180 1204 c0 -8 5 -12 10 -9 6 4 8 11 5 16 -9 14 -15 11 -15 -7z"/>
<path d="M1315 1200 c3 -5 8 -10 11 -10 2 0 4 5 4 10 0 6 -5 10 -11 10 -5 0
-7 -4 -4 -10z"/>
<path d="M2133 1170 c0 -25 2 -35 4 -22 2 12 2 32 0 45 -2 12 -4 2 -4 -23z"/>
<path d="M858 1193 c6 -2 18 -2 25 0 6 3 1 5 -13 5 -14 0 -19 -2 -12 -5z"/>
<path d="M1480 1192 c0 -17 21 -25 31 -13 5 6 6 9 3 6 -4 -3 -13 0 -21 6 -9 8
-13 8 -13 1z"/>
<path d="M1585 1191 c-4 -8 -2 -16 5 -21 9 -5 9 -9 1 -14 -6 -4 -11 -12 -11
-19 0 -7 6 -5 15 4 11 11 13 22 7 39 -6 17 -11 20 -17 11z"/>
<path d="M1730 1194 c0 -14 33 -44 48 -44 7 0 12 5 12 11 0 6 -7 9 -15 5 -8
-3 -21 4 -30 17 -8 12 -15 17 -15 11z"/>
<path d="M903 1162 c-1 -15 1 -21 4 -14 4 10 8 10 19 1 21 -17 17 5 -4 24 -17
15 -18 14 -19 -11z"/>
<path d="M1369 1173 c-1 -10 -1 -21 0 -25 3 -18 -27 -6 -37 15 -8 16 -11 17
-11 6 -1 -24 25 -42 49 -34 13 4 20 15 20 31 0 27 -19 33 -21 7z"/>
<path d="M1660 1183 c0 -6 8 -17 18 -24 16 -13 16 -13 2 6 -8 11 -16 22 -17
24 -2 2 -3 0 -3 -6z"/>
<path d="M800 1165 c-7 -8 -16 -12 -21 -9 -5 3 -9 3 -9 0 0 -3 10 -10 22 -17
17 -9 20 -9 15 4 -3 8 0 20 6 26 6 6 8 11 5 11 -3 0 -11 -7 -18 -15z"/>
<path d="M1186 1164 c-8 -22 -4 -25 11 -9 7 8 9 16 4 19 -5 3 -12 -1 -15 -10z"/>
<path d="M1700 1166 c0 -9 5 -16 10 -16 6 0 10 4 10 9 0 6 -4 13 -10 16 -5 3
-10 -1 -10 -9z"/>
<path d="M1483 1148 c2 -7 -2 -21 -11 -30 -10 -13 -11 -18 -3 -18 7 0 9 -5 4
-12 -4 -7 -8 -34 -8 -59 l0 -46 53 -2 c46 -2 52 0 52 18 0 24 -18 28 -26 6 -4
-8 -15 -15 -26 -15 -10 0 -16 5 -13 10 3 6 2 10 -4 10 -5 0 -11 -6 -14 -12 -2
-7 -4 3 -3 22 1 19 5 41 9 47 6 9 3 11 -10 6 -14 -5 -16 -3 -6 7 6 7 9 19 6
26 -3 8 0 14 6 14 6 0 11 9 11 20 0 11 -5 20 -11 20 -6 0 -9 -6 -6 -12z"/>
<path d="M1163 1136 c1 -11 9 -21 17 -23 10 -3 11 -2 4 4 -6 4 -14 15 -17 23
-5 11 -6 9 -4 -4z"/>
<path d="M1206 1137 c3 -10 9 -15 12 -12 3 3 0 11 -7 18 -10 9 -11 8 -5 -6z"/>
<path d="M1460 1140 c0 -5 5 -10 11 -10 5 0 7 5 4 10 -3 6 -8 10 -11 10 -2 0
-4 -4 -4 -10z"/>
<path d="M1726 1135 c-3 -8 -1 -15 4 -15 6 0 10 7 10 15 0 8 -2 15 -4 15 -2 0
-6 -7 -10 -15z"/>
<path d="M1820 1143 c0 -6 8 -17 18 -24 16 -13 16 -13 2 6 -8 11 -16 22 -17
24 -2 2 -3 0 -3 -6z"/>
<path d="M860 1131 c0 -5 5 -13 10 -16 6 -3 10 -2 10 4 0 5 -4 13 -10 16 -5 3
-10 2 -10 -4z"/>
<path d="M1790 1129 c0 -5 5 -7 10 -4 6 3 10 8 10 11 0 2 -4 4 -10 4 -5 0 -10
-5 -10 -11z"/>
<path d="M988 1118 c7 -7 12 -30 12 -53 0 -46 20 -81 41 -72 10 4 9 6 -3 6
-16 1 -24 25 -19 55 3 18 -21 76 -32 76 -8 0 -7 -4 1 -12z"/>
<path d="M1366 1114 c-9 -8 -16 -12 -16 -8 0 3 -7 1 -15 -6 -19 -16 -19 -30 0
-30 8 0 12 6 9 13 -3 9 2 13 13 13 10 -1 19 3 20 8 1 5 7 13 15 17 9 6 9 9 1
9 -6 0 -19 -7 -27 -16z"/>
<path d="M1520 1119 c0 -5 5 -7 10 -4 6 3 10 8 10 11 0 2 -4 4 -10 4 -5 0 -10
-5 -10 -11z"/>
<path d="M1586 1105 c-9 -26 -7 -32 5 -12 6 10 9 21 6 23 -2 3 -7 -2 -11 -11z"/>
<path d="M2350 1101 c-6 -12 -17 -21 -24 -21 -7 0 -13 -7 -13 -16 0 -11 9 -6
31 15 16 17 27 33 24 37 -4 3 -11 -4 -18 -15z"/>
<path d="M1197 1103 c-10 -9 -9 -23 1 -23 5 0 9 7 9 15 0 17 -1 18 -10 8z"/>
<path d="M1856 1093 c-6 -14 -5 -15 5 -6 7 7 10 15 7 18 -3 3 -9 -2 -12 -12z"/>
<path d="M925 1090 c-3 -5 -2 -10 4 -10 5 0 13 5 16 10 3 6 2 10 -4 10 -5 0
-13 -4 -16 -10z"/>
<path d="M1225 1091 c-3 -5 0 -13 6 -17 7 -4 9 -3 5 4 -3 5 0 13 6 15 9 4 10
6 1 6 -6 1 -14 -3 -18 -8z"/>
<path d="M1810 1080 c6 -11 15 -20 20 -20 17 0 11 15 -11 28 -19 12 -19 11 -9
-8z"/>
<path d="M657 1059 c4 -13 8 -18 11 -10 2 7 -1 18 -6 23 -8 8 -9 4 -5 -13z"/>
<path d="M868 1073 c7 -3 16 -2 19 1 4 3 -2 6 -13 5 -11 0 -14 -3 -6 -6z"/>
<path d="M1595 1072 c-5 -4 -11 -14 -13 -22 -3 -11 3 -9 20 5 13 11 25 21 27
22 2 2 -2 3 -10 3 -8 0 -18 -4 -24 -8z"/>
<path d="M920 1060 c0 -5 5 -10 10 -10 6 0 10 5 10 10 0 6 -4 10 -10 10 -5 0
-10 -4 -10 -10z"/>
<path d="M1151 1054 c0 -11 3 -14 6 -6 3 7 2 16 -1 19 -3 4 -6 -2 -5 -13z"/>
<path d="M1548 1063 c7 -3 16 -2 19 1 4 3 -2 6 -13 5 -11 0 -14 -3 -6 -6z"/>
<path d="M885 1050 c3 -5 10 -10 16 -10 5 0 9 5 9 10 0 6 -7 10 -16 10 -8 0
-12 -4 -9 -10z"/>
<path d="M1362 1040 c0 -14 2 -19 5 -12 2 6 2 18 0 25 -3 6 -5 1 -5 -13z"/>
<path d="M2015 1035 c-60 -13 -101 -23 -91 -24 28 -1 188 29 206 40 20 11 13
10 -115 -16z"/>
<path d="M1501 1034 c0 -11 3 -14 6 -6 3 7 2 16 -1 19 -3 4 -6 -2 -5 -13z"/>
<path d="M2205 1041 c-10 -17 12 -21 25 -6 10 12 10 15 -3 15 -9 0 -18 -4 -22
-9z"/>
<path d="M1430 1024 c0 -8 5 -12 10 -9 6 3 10 10 10 16 0 5 -4 9 -10 9 -5 0
-10 -7 -10 -16z"/>
<path d="M694 1019 c-3 -6 0 -15 7 -20 8 -5 10 -9 4 -9 -12 0 16 -20 29 -20 5
0 3 6 -3 14 -9 11 -9 15 1 18 8 3 5 9 -9 16 -16 9 -24 9 -29 1z"/>
<path d="M903 1014 c0 -8 4 -14 9 -14 4 0 8 -5 8 -11 0 -5 -6 -7 -12 -3 -10 5
-10 4 -1 -6 15 -17 32 -5 26 19 -6 23 -30 35 -30 15z"/>
<path d="M1050 1020 c0 -5 5 -10 11 -10 5 0 7 5 4 10 -3 6 -8 10 -11 10 -2 0
-4 -4 -4 -10z"/>
<path d="M1640 1020 c0 -5 5 -10 10 -10 6 0 10 5 10 10 0 6 -4 10 -10 10 -5 0
-10 -4 -10 -10z"/>
<path d="M1680 1021 c0 -5 -17 -16 -37 -25 l-38 -16 35 6 c19 4 43 7 53 6 14
-1 15 3 7 19 -11 20 -20 25 -20 10z"/>
<path d="M1799 1026 c-4 -4 -42 -12 -71 -15 -5 -1 -8 -6 -8 -12 0 -6 13 -8 32
-5 18 3 37 1 43 -4 7 -6 11 -1 11 15 0 27 0 27 -7 21z"/>
<path d="M2280 1020 c0 -5 5 -10 11 -10 5 0 7 5 4 10 -3 6 -8 10 -11 10 -2 0
-4 -4 -4 -10z"/>
<path d="M1592 1000 c0 -14 2 -19 5 -12 2 6 2 18 0 25 -3 6 -5 1 -5 -13z"/>
<path d="M1848 1003 c6 -2 18 -2 25 0 6 3 1 5 -13 5 -14 0 -19 -2 -12 -5z"/>
<path d="M2110 1000 c-9 -6 -10 -10 -3 -10 6 0 15 5 18 10 8 12 4 12 -15 0z"/>
<path d="M951 975 c-16 -16 -19 -23 -9 -21 15 2 48 30 48 40 0 12 -16 4 -39
-19z"/>
<path d="M1441 984 c0 -11 3 -14 6 -6 3 7 2 16 -1 19 -3 4 -6 -2 -5 -13z"/>
<path d="M2070 990 c0 -5 5 -10 11 -10 5 0 7 5 4 10 -3 6 -8 10 -11 10 -2 0
-4 -4 -4 -10z"/>
<path d="M776 981 c-4 -7 -5 -15 -2 -18 9 -9 19 4 14 18 -4 11 -6 11 -12 0z"/>
<path d="M1996 978 c3 -5 10 -6 15 -3 13 9 11 12 -6 12 -8 0 -12 -4 -9 -9z"/>
<path d="M2205 980 c3 -5 11 -10 16 -10 6 0 7 5 4 10 -3 6 -11 10 -16 10 -6 0
-7 -4 -4 -10z"/>
<path d="M806 967 c3 -10 9 -15 12 -12 3 3 0 11 -7 18 -10 9 -11 8 -5 -6z"/>
<path d="M990 970 c-10 -6 -11 -10 -2 -10 6 0 12 -5 12 -11 0 -5 -4 -7 -10 -4
-5 3 -10 2 -10 -4 0 -5 6 -12 13 -14 7 -3 5 -6 -5 -6 -10 -1 -18 3 -18 9 0 5
-7 7 -16 3 -11 -4 -12 -8 -4 -13 9 -5 9 -9 1 -11 -6 -2 13 -4 43 -5 30 0 53 4
50 8 -3 4 -1 8 4 8 5 0 10 12 10 27 0 18 -3 22 -8 12 -5 -8 -8 -18 -8 -23 0
-9 -21 -26 -32 -26 -4 0 -4 16 -2 35 5 38 4 39 -18 25z"/>
<path d="M1224 969 c-3 -6 -1 -16 6 -22 9 -9 11 -9 8 2 -6 24 18 22 30 -3 20
-45 -12 -108 -51 -100 -60 13 -147 15 -147 4 0 -6 5 -8 11 -5 15 10 60 -4 58
-18 -1 -7 1 -24 5 -40 6 -18 4 -33 -5 -44 -10 -12 -10 -15 -1 -9 8 5 12 0 12
-18 0 -14 -4 -28 -10 -31 -5 -3 -10 -12 -9 -18 0 -9 2 -9 6 1 11 28 22 9 20
-38 -1 -28 2 -50 7 -50 4 0 6 -10 4 -23 -4 -23 3 -35 32 -52 12 -7 12 -5 -1
11 -11 13 -20 56 -28 129 -18 177 -18 196 -3 190 8 -3 33 -5 57 -5 33 0 45 -4
48 -17 4 -16 5 -16 6 1 1 12 6 16 17 12 9 -3 22 -6 30 -6 10 0 14 -8 12 -21
-2 -15 4 -24 20 -30 12 -5 22 -5 22 0 0 5 -6 11 -14 14 -7 3 -16 14 -19 26 -4
17 0 19 29 18 19 -1 34 -6 34 -11 0 -4 7 -6 15 -2 12 4 15 -3 15 -33 0 -22 6
-44 15 -51 10 -9 15 -9 15 -1 0 6 -4 11 -10 11 -5 0 -10 18 -10 40 l0 40 43 0
c32 0 44 4 44 15 0 17 -13 20 -23 4 -4 -7 -27 -9 -63 -5 -31 3 -86 5 -124 5
l-67 1 16 25 c25 39 4 115 -32 115 -7 0 -16 -5 -20 -11z"/>
<path d="M1733 965 c0 -11 4 -12 14 -4 7 6 13 13 13 15 0 2 -6 4 -13 4 -8 0
-14 -7 -14 -15z"/>
<path d="M1769 963 c-13 -16 -12 -17 4 -4 16 13 21 21 13 21 -2 0 -10 -8 -17
-17z"/>
<path d="M906 948 c10 -14 21 -24 23 -22 3 3 -6 15 -18 27 l-24 22 19 -27z"/>
<path d="M1830 955 c-11 -13 -10 -14 4 -9 9 3 16 10 16 15 0 13 -6 11 -20 -6z"/>
<path d="M1485 950 c3 -5 8 -10 11 -10 2 0 4 5 4 10 0 6 -5 10 -11 10 -5 0 -7
-4 -4 -10z"/>
<path d="M1901 944 c0 -11 3 -14 6 -6 3 7 2 16 -1 19 -3 4 -6 -2 -5 -13z"/>
<path d="M1977 946 c-3 -8 -16 -16 -29 -19 -21 -4 -21 -4 -2 -6 21 -1 52 24
42 35 -3 3 -8 -2 -11 -10z"/>
<path d="M840 939 c0 -5 5 -7 10 -4 6 3 10 8 10 11 0 2 -4 4 -10 4 -5 0 -10
-5 -10 -11z"/>
<path d="M871 931 c-10 -7 -7 -9 12 -8 14 1 23 5 20 10 -6 9 -15 9 -32 -2z"/>
<path d="M1345 930 c-16 -7 -17 -9 -3 -9 9 -1 20 4 23 9 7 11 7 11 -20 0z"/>
<path d="M1422 918 c19 -17 25 -33 9 -23 -15 8 -25 -15 -12 -28 8 -8 11 -8 11
1 0 8 9 10 25 6 15 -4 25 -2 25 5 0 6 -7 11 -15 11 -8 0 -15 4 -15 10 0 5 6 7
14 4 8 -3 17 0 21 6 4 7 -4 10 -23 8 -17 -1 -36 2 -44 7 -8 6 -6 3 4 -7z"/>
<path d="M1607 920 c3 -11 10 -17 16 -13 6 4 8 0 4 -10 -3 -9 -2 -19 3 -22 16
-10 11 32 -6 49 -20 21 -23 20 -17 -4z"/>
<path d="M1646 917 c3 -10 9 -15 12 -12 3 3 0 11 -7 18 -10 9 -11 8 -5 -6z"/>
<path d="M1230 899 c0 -18 2 -19 15 -9 15 12 12 30 -6 30 -5 0 -9 -10 -9 -21z"/>
<path d="M775 851 c2 -35 9 -69 14 -74 8 -8 11 -6 11 5 0 9 3 25 6 35 5 15 4
15 -5 3 -8 -12 -11 -6 -11 25 0 22 -5 47 -10 55 -6 10 -8 -6 -5 -49z"/>
<path d="M1505 900 c-3 -6 1 -7 9 -4 18 7 21 14 7 14 -6 0 -13 -4 -16 -10z"/>
<path d="M2055 900 c-3 -5 -1 -10 4 -10 6 0 11 5 11 10 0 6 -2 10 -4 10 -3 0
-8 -4 -11 -10z"/>
<path d="M1304 889 c-3 -6 -3 -13 0 -16 3 -4 6 -1 6 6 0 8 10 5 26 -8 31 -25
64 -27 64 -6 0 13 -4 14 -20 5 -21 -11 -27 -1 -10 16 8 8 0 11 -24 12 -19 1
-38 -3 -42 -9z m46 -9 c0 -5 -2 -10 -4 -10 -3 0 -8 5 -11 10 -3 6 -1 10 4 10
6 0 11 -4 11 -10z"/>
<path d="M1504 876 c-10 -8 -16 -17 -13 -20 3 -3 14 1 25 8 10 8 16 17 13 20
-3 3 -14 -1 -25 -8z"/>
<path d="M1585 880 c-3 -5 -1 -10 4 -10 6 0 11 5 11 10 0 6 -2 10 -4 10 -3 0
-8 -4 -11 -10z"/>
<path d="M2002 874 c-7 -8 -8 -14 -3 -14 10 0 25 19 20 25 -2 1 -10 -3 -17
-11z"/>
<path d="M2121 874 c0 -11 3 -14 6 -6 3 7 2 16 -1 19 -3 4 -6 -2 -5 -13z"/>
<path d="M1150 869 c0 -5 5 -7 10 -4 6 3 10 8 10 11 0 2 -4 4 -10 4 -5 0 -10
-5 -10 -11z"/>
<path d="M827 850 c3 -11 7 -20 9 -20 2 0 4 9 4 20 0 11 -4 20 -9 20 -5 0 -7
-9 -4 -20z"/>
<path d="M1965 859 c-4 -6 -5 -12 -2 -15 2 -3 7 2 10 11 7 17 1 20 -8 4z"/>
<path d="M1555 851 c-2 -5 5 -12 18 -15 32 -10 197 -12 197 -3 0 4 24 8 53 8
28 1 41 4 27 6 -14 2 -65 0 -114 -5 -69 -6 -89 -5 -93 5 -3 7 -9 13 -15 13 -5
0 -6 -4 -3 -10 8 -13 -6 -13 -39 0 -14 5 -28 5 -31 1z"/>
<path d="M1880 851 c0 -5 11 -8 25 -7 33 1 33 16 0 16 -14 0 -25 -4 -25 -9z"/>
<path d="M1097 833 c-4 -3 -7 -11 -7 -17 0 -6 5 -5 12 2 6 6 9 14 7 17 -3 3
-9 2 -12 -2z"/>
<path d="M1015 819 c-4 -6 -5 -12 -2 -15 2 -3 7 2 10 11 7 17 1 20 -8 4z"/>
<path d="M1842 806 c1 -14 5 -23 9 -20 7 4 0 44 -7 44 -2 0 -3 -11 -2 -24z"/>
<path d="M835 803 c2 -10 4 -24 4 -31 1 -7 6 -10 11 -7 8 5 7 12 -2 22 -7 9
-11 18 -10 20 2 3 1 7 -1 10 -3 3 -4 -3 -2 -14z"/>
<path d="M1040 809 c0 -5 5 -7 10 -4 6 3 10 1 10 -5 0 -6 5 -8 11 -4 8 4 7 9
-2 15 -19 12 -29 11 -29 -2z"/>
<path d="M1684 801 c0 -11 4 -17 8 -15 4 3 8 12 8 20 0 8 -4 14 -8 14 -4 0 -8
-9 -8 -19z"/>
<path d="M1787 800 c-3 -11 -1 -20 4 -20 5 0 9 9 9 20 0 11 -2 20 -4 20 -2 0
-6 -9 -9 -20z"/>
<path d="M900 806 c0 -3 13 -11 29 -19 28 -14 29 -14 18 4 -10 16 -47 28 -47
15z"/>
<path d="M971 794 c0 -11 3 -14 6 -6 3 7 2 16 -1 19 -3 4 -6 -2 -5 -13z"/>
<path d="M1368 803 c6 -2 18 -2 25 0 6 3 1 5 -13 5 -14 0 -19 -2 -12 -5z"/>
<path d="M1086 792 c-3 -5 1 -9 9 -9 8 0 12 4 9 9 -3 4 -7 8 -9 8 -2 0 -6 -4
-9 -8z"/>
<path d="M1310 776 c0 -14 3 -27 8 -29 4 -3 7 8 7 24 1 16 -3 29 -7 29 -4 0
-8 -11 -8 -24z"/>
<path d="M1507 792 c1 -3 -4 -14 -14 -24 -9 -10 -11 -18 -6 -18 18 0 37 30 26
39 -5 5 -8 6 -6 3z"/>
<path d="M1953 785 c-3 -9 -3 -18 -1 -21 3 -3 8 4 11 16 6 23 -1 27 -10 5z"/>
<path d="M810 781 c0 -6 4 -13 10 -16 6 -3 7 1 4 9 -7 18 -14 21 -14 7z"/>
<path d="M1261 774 c6 -8 13 -38 14 -67 1 -28 6 -82 10 -119 7 -66 7 -68 -16
-68 -28 0 -23 -5 16 -14 17 -4 26 -3 20 1 -5 4 -10 25 -10 46 -3 217 -4 224
-26 230 -16 4 -18 3 -8 -9z"/>
<path d="M1399 783 c0 -5 -2 -20 -4 -35 -2 -17 2 -29 12 -32 12 -5 13 -3 5 7
-9 10 -8 17 0 25 9 9 9 12 -1 12 -11 0 -11 3 -1 15 9 10 9 15 1 15 -6 0 -11
-3 -12 -7z"/>
<path d="M1060 769 c0 -5 -4 -8 -8 -5 -5 3 -9 -10 -10 -29 -1 -32 16 -62 19
-33 6 48 7 78 3 78 -2 0 -4 -5 -4 -11z"/>
<path d="M1561 738 l2 -43 6 37 c5 29 9 35 20 29 8 -5 12 -19 9 -35 -3 -14 -1
-23 3 -20 17 10 9 53 -10 64 -29 15 -31 13 -30 -32z"/>
<path d="M965 760 c-3 -5 -3 -16 1 -22 5 -7 7 -27 5 -44 -1 -18 2 -35 7 -38 6
-4 10 12 10 39 -1 25 -5 45 -9 45 -5 0 -6 7 -3 15 7 17 -1 20 -11 5z"/>
<path d="M1081 754 c0 -11 3 -14 6 -6 3 7 2 16 -1 19 -3 4 -6 -2 -5 -13z"/>
<path d="M1726 757 c3 -10 9 -15 12 -12 3 3 0 11 -7 18 -10 9 -11 8 -5 -6z"/>
<path d="M801 754 c0 -7 6 -27 14 -45 11 -27 14 -29 15 -12 0 12 2 27 3 35 2
7 2 10 0 6 -8 -14 -21 -9 -26 10 -3 9 -5 12 -6 6z"/>
<path d="M1628 753 c7 -3 16 -2 19 1 4 3 -2 6 -13 5 -11 0 -14 -3 -6 -6z"/>
<path d="M1660 750 c0 -13 18 -22 24 -11 3 5 -1 11 -9 15 -8 3 -15 1 -15 -4z"/>
<path d="M1750 751 c0 -6 4 -13 10 -16 6 -3 7 1 4 9 -7 18 -14 21 -14 7z"/>
<path d="M1831 693 c2 -70 6 -63 11 20 2 26 0 47 -4 47 -5 0 -7 -30 -7 -67z"/>
<path d="M1206 737 c3 -10 9 -15 12 -12 3 3 0 11 -7 18 -10 9 -11 8 -5 -6z"/>
<path d="M1346 741 c-3 -5 1 -14 9 -21 13 -10 15 -9 15 9 0 21 -14 28 -24 12z"/>
<path d="M1525 740 c-3 -5 -1 -10 4 -10 6 0 11 5 11 10 0 6 -2 10 -4 10 -3 0
-8 -4 -11 -10z"/>
<path d="M859 721 c6 -10 7 -22 3 -26 -4 -5 -1 -5 6 -1 9 5 9 12 2 27 -6 10
-13 19 -16 19 -2 0 0 -8 5 -19z"/>
<path d="M937 726 c-4 -10 -1 -13 8 -9 8 3 12 9 9 14 -7 12 -11 11 -17 -5z"/>
<path d="M1181 724 c0 -11 3 -14 6 -6 3 7 2 16 -1 19 -3 4 -6 -2 -5 -13z"/>
<path d="M1091 686 c-1 -33 1 -37 14 -26 16 14 20 25 6 15 -5 -3 -12 7 -14 22
-3 22 -4 20 -6 -11z"/>
<path d="M1230 709 c0 -5 5 -7 10 -4 6 3 10 8 10 11 0 2 -4 4 -10 4 -5 0 -10
-5 -10 -11z"/>
<path d="M1787 699 c4 -15 8 -17 14 -8 8 14 3 29 -11 29 -4 0 -6 -9 -3 -21z"/>
<path d="M1206 701 c-4 -7 -5 -15 -2 -18 9 -9 19 4 14 18 -4 11 -6 11 -12 0z"/>
<path d="M1326 695 c4 -8 2 -15 -4 -15 -5 0 -9 -12 -9 -27 l0 -26 13 24 c16
28 18 59 4 59 -5 0 -7 -7 -4 -15z"/>
<path d="M2103 665 c0 -27 2 -38 4 -22 2 15 2 37 0 50 -2 12 -4 0 -4 -28z"/>
<path d="M1433 694 c11 -4 17 -15 16 -32 0 -15 -3 -21 -6 -14 -2 6 -11 12 -19
12 -8 0 -14 7 -14 15 0 11 -6 12 -22 6 -26 -9 -43 -48 -22 -48 8 0 13 6 10 13
-8 21 16 29 29 11 7 -9 14 -14 17 -12 3 3 11 -2 18 -10 10 -12 10 -19 2 -27
-7 -7 -12 -17 -12 -22 0 -6 4 -5 9 3 6 9 10 -3 12 -38 4 -56 -9 -67 -35 -29
-9 12 -16 18 -16 13 1 -25 30 -47 54 -41 13 3 36 2 51 -4 17 -7 24 -7 20 0 -3
6 -2 10 4 10 5 0 12 -5 14 -10 3 -6 4 -5 3 2 -2 7 -14 13 -27 14 -61 2 -58 -3
-61 96 -3 84 -5 93 -23 95 -16 1 -16 1 -2 -3z"/>
<path d="M1952 670 c0 -19 2 -27 5 -17 2 9 2 25 0 35 -3 9 -5 1 -5 -18z"/>
<path d="M781 674 c0 -11 3 -14 6 -6 3 7 2 16 -1 19 -3 4 -6 -2 -5 -13z"/>
<path d="M1498 663 c5 -21 7 -23 10 -9 2 10 0 22 -6 28 -6 6 -7 0 -4 -19z"/>
<path d="M1560 643 c0 -32 -5 -53 -12 -56 -10 -4 -10 -6 0 -6 7 -1 12 -14 12
-31 0 -16 4 -30 9 -30 8 0 4 161 -5 169 -2 2 -4 -19 -4 -46z"/>
<path d="M1670 680 c0 -5 5 -10 11 -10 5 0 7 5 4 10 -3 6 -8 10 -11 10 -2 0
-4 -4 -4 -10z"/>
<path d="M1750 674 c0 -8 5 -12 10 -9 6 4 8 11 5 16 -9 14 -15 11 -15 -7z"/>
<path d="M947 667 c-3 -8 -1 -20 4 -28 6 -10 9 -7 9 14 0 29 -5 35 -13 14z"/>
<path d="M842 651 c7 -9 13 -18 15 -20 1 -2 1 5 0 16 0 11 -7 20 -14 20 -10 0
-10 -4 -1 -16z"/>
<path d="M1186 655 c-7 -20 9 -28 23 -11 9 10 8 15 -3 19 -8 3 -17 -1 -20 -8z"/>
<path d="M1620 645 c0 -20 13 -25 27 -10 9 10 8 14 -8 18 -12 3 -19 0 -19 -8z"/>
<path d="M1060 635 c0 -8 -4 -15 -10 -15 -5 0 -10 -4 -10 -8 0 -5 7 -9 15 -9
9 0 15 10 15 24 0 13 -2 23 -5 23 -3 0 -5 -7 -5 -15z"/>
<path d="M1117 629 c6 -22 23 -26 23 -5 0 8 -6 16 -14 19 -10 4 -12 0 -9 -14z"/>
<path d="M976 632 c-3 -5 1 -9 9 -9 8 0 15 4 15 9 0 4 -4 8 -9 8 -6 0 -12 -4
-15 -8z"/>
<path d="M1811 624 c0 -11 3 -14 6 -6 3 7 2 16 -1 19 -3 4 -6 -2 -5 -13z"/>
<path d="M1896 623 c-6 -14 -5 -15 5 -6 7 7 10 15 7 18 -3 3 -9 -2 -12 -12z"/>
<path d="M818 605 c2 -11 7 -42 9 -68 3 -27 11 -51 18 -54 8 -2 11 -11 8 -19
-3 -8 -1 -14 5 -14 5 0 8 -12 6 -27 -2 -16 -1 -22 2 -15 8 17 25 15 18 -3 -4
-8 -1 -15 7 -15 7 0 9 3 6 7 -4 3 -2 12 5 20 6 8 7 13 2 12 -18 -3 -37 1 -31
8 4 3 2 12 -4 20 -14 16 -1 17 35 3 20 -7 27 -20 36 -68 7 -33 21 -73 32 -88
10 -16 18 -21 16 -12 -2 9 0 17 5 17 30 3 39 0 34 -13 -4 -10 -1 -13 9 -9 10
3 12 0 8 -10 -3 -8 -1 -18 5 -22 7 -3 8 0 5 9 -8 21 6 20 22 -1 12 -16 13 -16
14 -1 0 9 -6 19 -12 21 -7 3 6 4 30 2 23 -1 42 2 42 8 0 5 -21 8 -50 5 -39 -4
-54 -1 -63 11 -7 9 -21 17 -32 19 -39 6 -43 11 -50 70 l-7 59 -53 17 -53 16
-4 50 c-3 46 -1 49 17 44 11 -4 22 -11 23 -15 2 -5 8 -9 13 -9 23 0 -7 29 -36
34 -19 4 -36 12 -38 19 -2 7 -2 3 1 -8z"/>
<path d="M1211 606 c-8 -13 -11 -30 -8 -38 3 -7 6 -4 6 8 1 12 7 27 15 33 11
10 17 8 25 -6 6 -10 11 -13 11 -7 0 11 -20 34 -30 34 -4 0 -12 -11 -19 -24z"/>
<path d="M1602 618 c2 -6 15 -13 28 -15 24 -3 24 -3 5 11 -24 18 -38 20 -33 4z"/>
<path d="M1335 606 c-19 -13 -18 -14 6 -13 17 1 25 7 22 15 -6 15 -5 15 -28
-2z"/>
<path d="M941 593 c0 -13 -6 -23 -13 -23 -6 0 -9 -2 -7 -5 3 -2 18 0 35 4 16
5 21 10 12 10 -9 1 -19 9 -21 19 -4 13 -5 11 -6 -5z"/>
<path d="M970 598 c0 -4 5 -8 10 -8 6 0 10 -7 10 -15 0 -8 4 -15 9 -15 4 0 6
11 4 23 -4 22 -33 35 -33 15z"/>
<path d="M1775 600 c3 -5 11 -10 16 -10 6 0 7 5 4 10 -3 6 -11 10 -16 10 -6 0
-7 -4 -4 -10z"/>
<path d="M2092 590 c0 -14 2 -19 5 -12 2 6 2 18 0 25 -3 6 -5 1 -5 -13z"/>
<path d="M1740 590 c-8 -5 -12 -12 -9 -15 4 -3 12 1 19 10 14 17 11 19 -10 5z"/>
<path d="M1651 574 c0 -11 3 -14 6 -6 3 7 2 16 -1 19 -3 4 -6 -2 -5 -13z"/>
<path d="M1067 567 c-3 -8 1 -14 8 -14 7 0 11 6 8 14 -3 7 -6 13 -8 13 -2 0
-5 -6 -8 -13z"/>
<path d="M1114 562 c-10 -15 -8 -18 15 -19 14 0 18 1 9 4 -10 2 -15 10 -11 19
7 20 0 18 -13 -4z"/>
<path d="M1243 558 c1 -17 7 -28 15 -28 10 0 11 4 5 13 -6 6 -13 19 -16 27 -3
8 -5 3 -4 -12z"/>
<path d="M1315 570 c3 -5 8 -10 11 -10 2 0 4 5 4 10 0 6 -5 10 -11 10 -5 0 -7
-4 -4 -10z"/>
<path d="M1815 570 c-3 -5 -1 -10 4 -10 6 0 11 5 11 10 0 6 -2 10 -4 10 -3 0
-8 -4 -11 -10z"/>
<path d="M1355 560 c-3 -6 1 -7 9 -4 18 7 21 14 7 14 -6 0 -13 -4 -16 -10z"/>
<path d="M2048 563 c7 -3 16 -2 19 1 4 3 -2 6 -13 5 -11 0 -14 -3 -6 -6z"/>
<path d="M1590 545 c0 -8 2 -15 4 -15 2 0 6 7 10 15 3 8 1 15 -4 15 -6 0 -10
-7 -10 -15z"/>
<path d="M1740 535 c0 -8 2 -15 4 -15 2 0 6 7 10 15 3 8 1 15 -4 15 -6 0 -10
-7 -10 -15z"/>
<path d="M1068 533 c6 -2 9 -10 6 -15 -4 -7 -2 -8 4 -4 18 11 14 26 -5 25 -11
0 -13 -3 -5 -6z"/>
<path d="M1225 510 c3 -5 8 -10 11 -10 2 0 4 5 4 10 0 6 -5 10 -11 10 -5 0 -7
-4 -4 -10z"/>
<path d="M1790 510 c-8 -5 -10 -10 -5 -10 6 0 17 5 25 10 8 5 11 10 5 10 -5 0
-17 -5 -25 -10z"/>
<path d="M1850 509 c0 -5 5 -7 10 -4 6 3 10 8 10 11 0 2 -4 4 -10 4 -5 0 -10
-5 -10 -11z"/>
<path d="M1325 500 c-3 -6 1 -7 9 -4 18 7 21 14 7 14 -6 0 -13 -4 -16 -10z"/>
<path d="M1560 506 c0 -2 14 -6 30 -8 17 -3 30 -1 30 4 0 4 -13 8 -30 8 -16 0
-30 -2 -30 -4z"/>
<path d="M1720 499 c0 -5 5 -7 10 -4 6 3 10 8 10 11 0 2 -4 4 -10 4 -5 0 -10
-5 -10 -11z"/>
<path d="M1175 480 c3 -5 8 -10 11 -10 2 0 4 5 4 10 0 6 -5 10 -11 10 -5 0 -7
-4 -4 -10z"/>
<path d="M1625 479 c-4 -6 -5 -12 -2 -15 2 -3 7 2 10 11 7 17 1 20 -8 4z"/>
<path d="M1150 449 c0 -5 -5 -7 -12 -3 -7 4 -8 3 -4 -5 5 -8 12 -9 19 -2 7 5
26 11 42 14 27 4 27 4 -7 6 -21 0 -38 -4 -38 -10z"/>
<path d="M983 443 c9 -2 17 -11 17 -19 0 -8 8 -14 18 -14 15 0 15 2 2 11 -13
9 -13 10 0 7 9 -3 19 -26 25 -58 6 -30 16 -55 23 -58 9 -3 10 2 3 20 -5 12
-12 40 -16 60 -7 43 -8 45 -55 51 -19 2 -27 2 -17 0z"/>
<path d="M1420 441 c0 -6 4 -13 10 -16 6 -3 7 1 4 9 -7 18 -14 21 -14 7z"/>
<path d="M2065 400 c-6 -45 -10 -51 -38 -59 -22 -6 -26 -9 -11 -10 33 -2 52
21 59 72 4 26 5 47 2 47 -3 0 -8 -22 -12 -50z"/>
<path d="M1180 430 c-13 -8 -13 -10 2 -10 9 0 20 5 23 10 8 13 -5 13 -25 0z"/>
<path d="M1060 426 c0 -2 9 -6 20 -9 11 -3 20 -1 20 4 0 5 -9 9 -20 9 -11 0
-20 -2 -20 -4z"/>
<path d="M1126 413 c30 -6 50 -31 59 -73 7 -30 6 -33 -7 -22 -12 9 -15 9 -15
-3 0 -8 4 -15 8 -15 4 0 14 -2 22 -5 11 -5 13 5 9 51 l-5 57 38 -6 c45 -7 64
-31 61 -74 -1 -20 3 -34 12 -38 22 -8 23 -6 12 15 -15 27 -9 82 9 88 9 3 11 0
5 -9 -7 -12 -5 -12 9 0 9 7 17 10 17 5 0 -5 22 -7 49 -6 49 4 50 3 49 -25 -1
-61 6 -75 11 -23 l6 55 42 0 c24 0 42 -4 42 -10 -1 -5 0 -30 1 -55 l3 -45 6
55 c4 32 11 55 18 55 6 0 15 3 19 7 4 4 -65 8 -152 8 -87 0 -172 2 -189 4 -47
7 -163 15 -139 9z"/>
<path d="M1685 402 c-27 -2 -54 -7 -59 -12 -8 -8 104 -2 113 6 8 8 -5 9 -54 6z"/>
<path d="M996 383 c-6 -14 -5 -15 5 -6 7 7 10 15 7 18 -3 3 -9 -2 -12 -12z"/>
<path d="M1756 385 c4 -8 8 -15 10 -15 2 0 4 7 4 15 0 8 -4 15 -10 15 -5 0 -7
-7 -4 -15z"/>
<path d="M2194 385 c-18 -14 -18 -14 4 -8 12 3 22 9 22 14 0 12 -3 11 -26 -6z"/>
<path d="M1100 379 c0 -5 5 -7 10 -4 6 3 10 8 10 11 0 2 -4 4 -10 4 -5 0 -10
-5 -10 -11z"/>
<path d="M1812 340 c-2 -22 1 -40 5 -40 4 0 8 18 8 40 1 52 -10 52 -13 0z"/>
<path d="M1930 351 c0 -16 -6 -32 -12 -34 -8 -3 -6 -6 5 -6 13 -1 17 7 17 34
0 19 -2 35 -5 35 -3 0 -5 -13 -5 -29z"/>
<path d="M2130 376 c0 -2 7 -7 16 -10 8 -3 12 -2 9 4 -6 10 -25 14 -25 6z"/>
<path d="M836 345 c4 -8 7 -15 9 -15 2 0 5 7 9 15 3 9 0 15 -9 15 -9 0 -12 -6
-9 -15z"/>
<path d="M1580 345 c0 -8 2 -15 4 -15 2 0 6 7 10 15 3 8 1 15 -4 15 -6 0 -10
-7 -10 -15z"/>
<path d="M1616 352 c-2 -4 4 -8 14 -8 10 0 16 4 14 8 -3 4 -9 8 -14 8 -5 0
-11 -4 -14 -8z"/>
<path d="M1120 334 c0 -8 5 -12 10 -9 6 4 8 11 5 16 -9 14 -15 11 -15 -7z"/>
<path d="M1531 324 c0 -11 3 -14 6 -6 3 7 2 16 -1 19 -3 4 -6 -2 -5 -13z"/>
<path d="M2166 323 c-6 -14 -5 -15 5 -6 7 7 10 15 7 18 -3 3 -9 -2 -12 -12z"/>
<path d="M1225 319 c-4 -6 -5 -12 -2 -15 2 -3 7 2 10 11 7 17 1 20 -8 4z"/>
<path d="M1610 315 c0 -5 5 -17 10 -25 5 -8 10 -10 10 -5 0 6 -5 17 -10 25 -5
8 -10 11 -10 5z"/>
<path d="M876 298 c3 -4 9 -8 15 -8 5 0 9 4 9 8 0 5 -7 9 -15 9 -8 0 -12 -4
-9 -9z"/>
<path d="M1660 299 c0 -5 5 -7 10 -4 6 3 10 8 10 11 0 2 -4 4 -10 4 -5 0 -10
-5 -10 -11z"/>
<path d="M1401 284 c0 -11 3 -14 6 -6 3 7 2 16 -1 19 -3 4 -6 -2 -5 -13z"/>
<path d="M960 260 c6 -11 13 -20 16 -20 2 0 0 9 -6 20 -6 11 -13 20 -16 20 -2
0 0 -9 6 -20z"/>
<path d="M1598 263 c7 -3 16 -2 19 1 4 3 -2 6 -13 5 -11 0 -14 -3 -6 -6z"/>
<path d="M1115 249 c-4 -6 -5 -12 -2 -15 2 -3 7 2 10 11 7 17 1 20 -8 4z"/>
<path d="M1144 249 c-5 -8 -3 -9 6 -4 10 6 12 4 7 -8 -3 -10 -2 -17 3 -17 13
0 13 27 1 35 -5 3 -13 0 -17 -6z"/>
<path d="M1206 222 c-3 -4 4 -9 15 -9 23 -2 25 3 4 10 -8 4 -16 3 -19 -1z"/>
<path d="M1260 196 c0 -2 7 -7 16 -10 8 -3 12 -2 9 4 -6 10 -25 14 -25 6z"/>
<path d="M1485 190 c-4 -6 -11 -8 -16 -5 -5 3 -6 -1 -3 -9 7 -18 34 -10 34 10
0 16 -6 18 -15 4z"/>
<path d="M1320 180 c0 -5 7 -7 15 -4 8 4 15 8 15 10 0 2 -7 4 -15 4 -8 0 -15
-4 -15 -10z"/>
<path d="M1375 170 c-13 -6 -15 -9 -5 -9 8 0 22 4 30 9 18 12 2 12 -25 0z"/>
</g>
</svg>
